<?xml version="1.0" encoding="UTF-8"?>
<svg width="49px" height="49px" viewBox="0 0 49 49" version="1.1" xmlns="http://www.w3.org/2000/svg" xmlns:xlink="http://www.w3.org/1999/xlink">
    <!-- Generator: Sketch 54.1 (76490) - https://sketchapp.com -->
    <title>Slice</title>
    <desc>Created with Sketch.</desc>
    <g id="Page-1" stroke="none" stroke-width="1" fill="none" fill-rule="evenodd">
        <g id="Group-2" transform="translate(3.000000, 0.000000)" fill="#FFFFFF" fill-rule="nonzero">
            <path d="M26.704295,5.44014085 C26.4962305,5.44014085 26.3575208,5.36971831 26.2188111,5.29929577 L20.9478434,2.20070423 L15.6075208,5.29929577 C15.1220369,5.58098592 14.4978434,5.44014085 14.220424,4.9471831 C13.9430047,4.45422535 14.0817143,3.82042254 14.5671982,3.53873239 L14.5671982,3.53873239 L20.3930047,0.158450704 C20.670424,-0.0528169014 21.0865531,-0.0528169014 21.3639724,0.158450704 L27.120424,3.53873239 C27.6059079,3.82042254 27.7446176,4.45422535 27.4671982,4.9471831 C27.3978434,5.22887324 27.0510692,5.44014085 26.704295,5.44014085" id="Path"></path>
            <path d="M20.8784885,32.2007042 C20.3236498,32.2007042 19.9075208,31.778169 19.9075208,31.2147887 C19.9075208,31.2147887 19.9075208,31.2147887 19.9075208,31.1443662 L19.9075208,24.3838028 C19.9075208,23.8204225 20.3236498,23.3978873 20.8784885,23.3978873 C21.4333272,23.3978873 21.8494563,23.8204225 21.8494563,24.3838028 C21.8494563,24.3838028 21.8494563,24.3838028 21.8494563,24.3838028 L21.8494563,31.1443662 C21.9188111,31.7077465 21.4333272,32.1302817 20.8784885,32.2007042 L20.8784885,32.2007042" id="Path"></path>
            <path d="M0.97364983,20.5105634 C0.41881112,20.5105634 0.00268208807,20.0880282 0.00268208807,19.5246479 L0.00268208807,19.5246479 L0.00268208807,12.693662 C0.00268208807,12.1302817 0.41881112,11.7077465 0.97364983,11.7077465 C1.52848854,11.7077465 1.94461757,12.1302817 1.94461757,12.693662 C1.94461757,12.693662 1.94461757,12.693662 1.94461757,12.693662 L1.94461757,19.5246479 C2.01397241,20.0176056 1.52848854,20.5105634 0.97364983,20.5105634 L0.97364983,20.5105634" id="Path"></path>
            <path d="M40.7833272,20.5105634 C40.2284885,20.5105634 39.8123595,20.0880282 39.8123595,19.5246479 L39.8123595,19.5246479 L39.8123595,12.693662 C39.8123595,12.1302817 40.2284885,11.7077465 40.7833272,11.7077465 C41.338166,11.7077465 41.754295,12.1302817 41.754295,12.693662 L41.754295,19.5246479 C41.8236498,20.0176056 41.338166,20.5105634 40.7833272,20.5105634 L40.7833272,20.5105634" id="Path"></path>
            <path d="M40.7833272,37.0598592 C40.2284885,37.0598592 39.8123595,36.6373239 39.8123595,36.0739437 L39.8123595,29.2429577 C39.8123595,28.6795775 40.2284885,28.2570423 40.7833272,28.2570423 L40.7833272,28.2570423 L40.7833272,28.2570423 C41.338166,28.2570423 41.754295,28.6795775 41.754295,29.2429577 L41.754295,29.2429577 L41.754295,36.0739437 C41.8236498,36.6373239 41.338166,37.0598592 40.7833272,37.0598592 L40.7833272,37.0598592 L40.7833272,37.0598592 Z" id="Path"></path>
            <path d="M0.97364983,37.0598592 C0.488165959,37.0598592 0.00268208807,36.6373239 0.00268208807,36.0739437 L0.00268208807,29.2429577 C0.00268208807,28.6795775 0.41881112,28.2570423 0.97364983,28.2570423 C1.52848854,28.2570423 1.94461757,28.6795775 1.94461757,29.2429577 C1.94461757,29.2429577 1.94461757,29.2429577 1.94461757,29.2429577 L1.94461757,36.0739437 C2.01397241,36.6373239 1.52848854,37.0598592 0.97364983,37.0598592 C0.97364983,37.0598592 0.97364983,37.0598592 0.97364983,37.0598592" id="Path"></path>
            <path d="M20.8784885,9.45422535 C20.3236498,9.45422535 19.9075208,9.03169014 19.9075208,8.46830986 C19.9075208,8.46830986 19.9075208,8.46830986 19.9075208,8.46830986 L19.9075208,1.00352113 C19.9075208,0.440140845 20.3236498,0.0176056338 20.8784885,0.0176056338 C21.4333272,0.0176056338 21.8494563,0.440140845 21.8494563,1.00352113 C21.8494563,1.00352113 21.8494563,1.00352113 21.8494563,1.00352113 L21.8494563,8.39788732 C21.9188111,9.03169014 21.4333272,9.45422535 20.8784885,9.45422535 L20.8784885,9.45422535" id="Path"></path>
            <path d="M20.8784885,48.75 C20.3236498,48.75 19.9075208,48.3274648 19.9075208,47.7640845 C19.9075208,47.7640845 19.9075208,47.7640845 19.9075208,47.7640845 L19.9075208,41.0035211 C19.9075208,40.4401408 20.3236498,40.0176056 20.8784885,40.0176056 C21.4333272,40.0176056 21.8494563,40.4401408 21.8494563,41.0035211 C21.8494563,41.0035211 21.8494563,41.0035211 21.8494563,41.0035211 L21.8494563,47.834507 C21.9188111,48.3274648 21.4333272,48.75 20.8784885,48.75" id="Path"></path>
            <path d="M20.8784885,48.75 C20.670424,48.75 20.5317143,48.6795775 20.3930047,48.6091549 L14.5671982,45.2288732 C14.0817143,44.9471831 13.9430047,44.3133803 14.220424,43.8204225 C14.4978434,43.3274648 15.1220369,43.1866197 15.6075208,43.4683099 L20.9478434,46.5669014 L26.2188111,43.4683099 C26.704295,43.2570423 27.3284885,43.5387324 27.4671982,44.1021127 C27.6059079,44.5246479 27.4671982,44.9471831 27.1897789,45.2288732 L21.4333272,48.6091549 C21.2946176,48.6795775 21.0865531,48.75 20.8784885,48.75" id="Path"></path>
            <path d="M20.8784885,25.3697183 C20.670424,25.3697183 20.5317143,25.2992958 20.3930047,25.2288732 L14.5671982,21.8485915 C14.0817143,21.5669014 13.9430047,20.9330986 14.220424,20.4401408 C14.4978434,19.9471831 15.1220369,19.806338 15.6075208,20.0880282 L20.9478434,23.1866197 L26.2188111,20.0880282 C26.704295,19.806338 27.3284885,20.0176056 27.5365531,20.5105634 C27.7446176,21.0035211 27.6059079,21.5669014 27.1897789,21.8485915 L21.4333272,25.2288732 C21.2252627,25.2992958 21.0865531,25.3697183 20.8784885,25.3697183" id="Path"></path>
            <path d="M35.0268756,17.1302817 C34.4720369,17.1302817 34.0559079,16.7077465 34.0559079,16.1443662 C34.0559079,15.7922535 34.2639724,15.4401408 34.5413918,15.2288732 L40.3671982,11.8485915 C40.8526821,11.5669014 41.4768756,11.7077465 41.754295,12.2007042 C42.0317143,12.693662 41.8930047,13.3274648 41.4075208,13.6091549 L35.5817143,16.9894366 C35.3736498,17.0598592 35.1655853,17.1302817 35.0268756,17.1302817" id="Path"></path>
            <path d="M40.7833272,13.6795775 C40.5752627,13.6795775 40.4365531,13.6091549 40.2978434,13.5387324 L34.4720369,10.1584507 C33.9865531,9.87676056 33.8478434,9.24295775 34.1252627,8.75 C34.4026821,8.25704225 35.0268756,8.11619718 35.5123595,8.39788732 L41.338166,11.778169 C41.8236498,12.0598592 41.9623595,12.693662 41.6849402,13.1866197 C41.4768756,13.5387324 41.1301014,13.6795775 40.7833272,13.6795775" id="Path"></path>
            <path d="M6.79945628,17.1302817 C6.59139177,17.1302817 6.45268209,17.0598592 6.31397241,16.9894366 L0.488165959,13.5387324 C0.00268208807,13.2570423 -0.136027589,12.6232394 0.141391765,12.1302817 C0.41881112,11.6373239 1.04300467,11.4964789 1.52848854,11.778169 L7.35429499,15.1584507 C7.83977886,15.4401408 7.97848854,16.0739437 7.70106918,16.5669014 C7.49300467,16.8485915 7.14623048,17.0598592 6.79945628,17.1302817" id="Path"></path>
            <path d="M0.97364983,13.6795775 C0.41881112,13.6795775 0.00268208807,13.2570423 0.00268208807,12.693662 C0.00268208807,12.3415493 0.210746604,11.9894366 0.488165959,11.778169 L6.31397241,8.39788732 C6.79945628,8.11619718 7.42364983,8.25704225 7.70106918,8.75 C7.97848854,9.24295775 7.83977886,9.87676056 7.35429499,10.1584507 L7.35429499,10.1584507 L1.52848854,13.5387324 C1.32042402,13.6091549 1.18171435,13.6795775 0.97364983,13.6795775" id="Path"></path>
            <path d="M34.9575208,40.4401408 C34.4026821,40.4401408 33.9865531,40.0176056 33.9865531,39.4542254 C33.9865531,39.1021127 34.1946176,38.75 34.4720369,38.5387324 L40.2978434,35.1584507 C40.7833272,34.8767606 41.4075208,35.0176056 41.6849402,35.5105634 C41.9623595,36.0035211 41.8236498,36.6373239 41.338166,36.9190141 L35.5123595,40.2992958 C35.304295,40.4401408 35.1655853,40.4401408 34.9575208,40.4401408" id="Path"></path>
            <path d="M40.7833272,37.0598592 C40.5752627,37.0598592 40.4365531,36.9894366 40.2978434,36.9190141 L34.4720369,33.5387324 C33.9865531,33.2570423 33.8478434,32.6232394 34.1252627,32.1302817 C34.4026821,31.6373239 35.0268756,31.4964789 35.5123595,31.778169 L41.338166,35.1584507 C41.8236498,35.4401408 41.9623595,36.0739437 41.6849402,36.5669014 C41.4768756,36.8485915 41.1301014,37.0598592 40.7833272,37.0598592" id="Path"></path>
            <path d="M6.79945628,40.4401408 C6.59139177,40.4401408 6.45268209,40.3697183 6.31397241,40.2992958 L0.488165959,36.9190141 C0.00268208807,36.6373239 -0.136027589,36.0035211 0.141391765,35.5105634 C0.41881112,35.0176056 1.04300467,34.8767606 1.52848854,35.1584507 L7.35429499,38.5387324 C7.83977886,38.8204225 7.97848854,39.4542254 7.70106918,39.9471831 C7.49300467,40.2992958 7.14623048,40.5105634 6.79945628,40.4401408" id="Path"></path>
            <path d="M0.97364983,37.0598592 C0.41881112,37.0598592 0.00268208807,36.6373239 0.00268208807,36.0739437 C0.00268208807,35.721831 0.210746604,35.3697183 0.488165959,35.1584507 L6.24461757,31.778169 C6.73010144,31.4964789 7.35429499,31.6373239 7.63171435,32.1302817 C7.9091337,32.6232394 7.77042402,33.2570423 7.28494015,33.5387324 L1.52848854,36.9190141 C1.32042402,36.9894366 1.18171435,37.0598592 0.97364983,37.0598592" id="Path"></path>
            <g id="Group" opacity="0.2" transform="translate(0.002682, 0.158451)">
                <g id="Path">
                    <path d="M0.970967742,13.0985915 C0.624193548,13.0985915 0.416129032,12.8169014 0.416129032,12.5352113 C0.416129032,12.3239437 0.55483871,12.1126761 0.693548387,12.0422535 L20.5983871,0.352112676 C20.8758065,0.211267606 21.2225806,0.281690141 21.3612903,0.563380282 C21.5,0.845070423 21.4306452,1.1971831 21.1532258,1.33802817 L1.31774194,13.028169 C1.17903226,13.0985915 1.10967742,13.0985915 0.970967742,13.0985915"></path>
                </g>
            </g>
            <g id="Group" transform="translate(0.002682, 0.158451)">
                <g opacity="0.2" transform="translate(0.000000, 11.971831)" id="Path">
                    <g>
                        <path d="M0.970967742,24.5070423 C0.624193548,24.5070423 0.416129032,24.2253521 0.416129032,23.943662 C0.416129032,23.7323944 0.55483871,23.5211268 0.693548387,23.4507042 L40.5032258,0.0704225352 C40.7806452,-0.0704225352 41.1274194,-7.10542736e-15 41.266129,0.281690141 C41.4048387,0.563380282 41.3354839,0.915492958 41.0580645,1.05633803 L1.31774194,24.4366197 C1.17903226,24.5070423 1.10967742,24.5070423 0.970967742,24.5070423"></path>
                    </g>
                </g>
                <g id="Path">
                    <g opacity="0.2" transform="translate(20.112903, 0.000000)">
                        <g>
                            <path d="M20.6677419,13.0985915 C20.5983871,13.0985915 20.4596774,13.0985915 20.3903226,13.028169 L0.485483871,1.33802817 C0.208064516,1.1971831 0.138709677,0.845070423 0.277419355,0.563380282 C0.416129032,0.281690141 0.762903226,0.211267606 1.04032258,0.352112676 L20.9451613,12.0422535 C21.2225806,12.1830986 21.2919355,12.5352113 21.1532258,12.8169014 C21.083871,13.028169 20.8758065,13.0985915 20.6677419,13.0985915"></path>
                        </g>
                    </g>
                    <g opacity="0.299999982">
                        <g opacity="0.2" transform="translate(0.000000, 11.971831)">
                            <g>
                                <path d="M40.7806452,24.5070423 C40.7112903,24.5070423 40.5725806,24.5070423 40.5032258,24.4366197 L0.693548387,1.05633803 C0.416129032,0.915492958 0.346774194,0.563380282 0.485483871,0.281690141 C0.693548387,0 1.04032258,-0.0704225352 1.31774194,0.0704225352 L41.1274194,23.4507042 C41.4048387,23.5915493 41.4741935,23.943662 41.3354839,24.2253521 C41.1967742,24.3661972 40.9887097,24.5070423 40.7806452,24.5070423"></path>
                            </g>
                        </g>
                        <g opacity="0.2">
                            <g transform="translate(0.000000, 35.211268)">
                                <g>
                                    <path d="M20.8758065,12.9577465 C20.8064516,12.9577465 20.6677419,12.9577465 20.5983871,12.8873239 L0.693548387,1.1971831 C0.416129032,1.05633803 0.346774194,0.704225352 0.485483871,0.422535211 C0.693548387,0.14084507 1.04032258,0 1.31774194,0.211267606 L21.2225806,11.9014085 C21.5,12.0422535 21.5693548,12.3943662 21.4306452,12.6760563 C21.2919355,12.8169014 21.083871,12.9577465 20.8758065,12.9577465"></path>
                                </g>
                            </g>
                            <g>
                                <g transform="translate(20.112903, 35.211268)">
                                    <g>
                                        <path d="M0.832258065,12.9577465 C0.485483871,12.9577465 0.277419355,12.6760563 0.277419355,12.3943662 C0.277419355,12.1830986 0.416129032,11.971831 0.55483871,11.9014085 L20.4596774,0.211267606 C20.7370968,0.0704225352 21.083871,0.14084507 21.2225806,0.422535211 C21.3612903,0.704225352 21.2919355,1.05633803 21.0145161,1.1971831 L1.10967742,12.8873239 C0.970967742,12.9577465 0.901612903,12.9577465 0.832258065,12.9577465"></path>
                                    </g>
                                </g>
                                <g>
                                    <g transform="translate(0.000000, 11.971831)">
                                        <g>
                                            <path d="M0.970967742,24.5070423 C0.693548387,24.5070423 0.416129032,24.2253521 0.416129032,23.943662 L0.416129032,0.563380282 C0.416129032,0.211267606 0.693548387,0 1.04032258,0 C1.38709677,0 1.59516129,0.281690141 1.59516129,0.563380282 C1.59516129,0.563380282 1.59516129,0.563380282 1.59516129,0.563380282 L1.59516129,23.943662 C1.59516129,24.2957746 1.31774194,24.5070423 0.970967742,24.5070423"></path>
                                        </g>
                                    </g>
                                    <g transform="translate(20.112903, 0.000000)">
                                        <g transform="translate(20.112903, 11.971831)">
                                            <g>
                                                <path d="M0.55483871,24.5070423 C0.208064516,24.5070423 0,24.2253521 0,23.943662 L0,23.943662 L0,0.563380282 C0,0.211267606 0.277419355,0 0.55483871,0 C0.901612903,0 1.10967742,0.281690141 1.10967742,0.563380282 C1.10967742,0.563380282 1.10967742,0.563380282 1.10967742,0.563380282 L1.10967742,23.943662 C1.10967742,24.2957746 0.901612903,24.5070423 0.55483871,24.5070423 L0.55483871,24.5070423"></path>
                                            </g>
                                        </g>
                                        <g>
                                            <g>
                                                <path d="M0.762903226,48.0985915 C0.416129032,48.0985915 0.208064516,47.8169014 0.208064516,47.5352113 L0.208064516,0.845070423 C0.208064516,0.492957746 0.485483871,0.281690141 0.762903226,0.281690141 C1.10967742,0.281690141 1.31774194,0.563380282 1.31774194,0.845070423 L1.31774194,47.4647887 C1.38709677,47.8169014 1.10967742,48.0985915 0.762903226,48.0985915"></path>
                                            </g>
                                        </g>
                                    </g>
                                </g>
                            </g>
                        </g>
                    </g>
                </g>
            </g>
        </g>
    </g>
</svg>