<?xml version="1.0" encoding="UTF-8"?>
<svg id="Layer_1" xmlns="http://www.w3.org/2000/svg" version="1.1" viewBox="0 0 136.28 42.89">
  <!-- Generator: Adobe Illustrator 30.1.0, SVG Export Plug-In . SVG Version: 2.1.1 Build 136)  -->
  <path d="M12.87,35.72l-.11-20.77-4.08-1.2,5.7-5.94c3.89-.15,7.95-.43,11.6.39,6.91,1.56,11.01,7.34,10.96,13.94s-4.56,12.47-11.39,13.43c-4.06.57-7.9.25-12.67.15ZM28.96,25.36c1.52-2.42,1.24-6.15-.51-8.14-2.2-2.51-5.43-2.66-8.7-2.31l-.02,13.77c3.13.49,7.16-.02,9.23-3.33Z"/>
  <path d="M83.2,35.79l-.22-21.2c-1.67-.21-2.54-.5-3.2-1.39,1.5-1.79,3.38-3.81,5.1-5.32,3.74-.3,7.61-.49,11.24.23,6.93,1.38,11.32,7.81,11.03,14.48s-5.44,12.6-12.42,13.11c-3.77.27-7.01.13-11.54.08ZM100,23c.44-2.87-.46-5.75-3.16-7.18-2.02-1.07-4.6-1.1-6.93-.94v13.88c4.64.76,9.39-1.15,10.09-5.76Z"/>
  <path d="M56.89,21.52c-4.51,5.02-3.27,3.58-9.74,3.75-.63.02-1.74.79-1.91,1.34-.2.65.89,2.11,1.6,2.12l10.5.15c.49,0,1.53.41,1.88.71s.42,1.6.07,1.98l-3.8,4.18-15.33.07c-.78,0-1.92-1.12-1.92-1.92l.05-24.13c0-1.13.89-2.27,2.13-2.27h16.66c.63.01,1.64.55,1.93.93.34.45.07,1.91-.33,2.36-4.72,5.28-2.84,3.8-11.55,3.93-.89.01-1.96,1.03-1.9,1.84s1.07,1.82,1.85,1.82l8.3-.04c.52,0,1.62.47,1.86.92s0,1.86-.36,2.26Z"/>
  <path d="M127.52,21.6c-4.91,5.31-3.01,3.26-9.87,3.71-.65.04-1.71,1.15-1.71,1.79s1.11,1.75,1.83,1.75h10.51c.51.01,1.55.6,1.75,1.03.24.51-.04,1.87-.47,2.3l-3.57,3.58-14.83.09c-1.05,0-2.26-.92-2.26-2.02V9.89c0-1.22,1.07-2.22,2.32-2.22l16.93.02c.57,0,1.67.77,1.77,1.2.43,1.83-3.73,5.29-4.48,5.54-3.93,1.33-8.59-1.06-9.47,1.77-.19.62.56,2.15,1.23,2.15l9.06.08c.47,0,1.53.63,1.7,1.04.21.5-.07,1.72-.45,2.13Z"/>
  <path d="M73.44,35.79l-13.06.09c-.18,0-.85-.33-.95-.49s.02-.94.15-1.07l5.59-5.56,7.35-.12c.65-.01,1.66-1.12,1.66-1.66,0-2.65-4.74-1.24-8.97-2.58-4.3-1.36-5.37-5.16-4.93-9.01.53-4.61,3.65-7.86,8.5-7.73l12.99.34c-1.84,2.97-3.43,4.46-5.64,6.51h-5.51c-.81,0-1.95.9-2.02,1.59-.41,4.02,6.87.25,11.12,5.28,2.25,2.67,2.57,5.97,1.05,9.26-1.1,2.38-3.56,5.13-7.34,5.16Z"/>
</svg>