<svg xmlns="http://www.w3.org/2000/svg" width="4490" height="102" viewBox="0 0 4490 102">
  <g fill="none" fill-rule="evenodd">
    <rect width="4490" height="102" fill="#000"/>
    <path fill="#FFF" fill-rule="nonzero" d="M44.64,60.72 L18.64,60.72 L18.64,80.56 L0,80.56 L0,21.04 L44.64,21.04 C66,21.04 72.4,29.52 72.4,40.4 L72.4,41.2 C72.4,51.84 65.92,60.72 44.64,60.72 Z M18.64,34.56 L18.64,47.36 L44.32,47.36 C50.16,47.36 52.96,45.12 52.96,41.12 L52.96,40.88 C52.96,36.88 50.24,34.56 44.32,34.56 L18.64,34.56 Z M138.24,80.56 L132.64,69.68 L96.56,69.68 L91.2,80.56 L72.24,80.56 L102.32,21.04 L126.48,21.04 L158.32,80.56 L138.24,80.56 Z M103.2,56.24 L125.76,56.24 L114.24,33.92 L103.2,56.24 Z M241.76,57.44 C241.76,64.96 235.92,81.6 201.84,81.6 L198.56,81.6 C164.08,81.6 158.72,62.4 158.72,51.76 L158.72,49.44 C158.72,38.64 163.44,20 198.56,20 L201.84,20 C236.4,20 241.6,36.48 241.68,43.44 L241.68,44.32 L221.92,44.32 C221.44,42.72 219.12,34.4 200.16,34.4 C182.32,34.4 178.24,42.4 178.24,49.84 L178.24,50.8 C178.24,57.76 182.96,67.12 200.32,67.12 C219.6,67.12 221.6,57.92 222,56.56 L241.76,56.56 L241.76,57.44 Z M247.76,80.56 L247.76,21.04 L321.76,21.04 L321.76,80.56 L303.12,80.56 L303.12,35.44 L266.4,35.44 L266.4,80.56 L247.76,80.56 Z M375.04,60.72 L349.04,60.72 L349.04,80.56 L330.4,80.56 L330.4,21.04 L375.04,21.04 C396.4,21.04 402.8,29.52 402.8,40.4 L402.8,41.2 C402.8,51.84 396.32,60.72 375.04,60.72 Z M349.04,34.56 L349.04,47.36 L374.72,47.36 C380.56,47.36 383.36,45.12 383.36,41.12 L383.36,40.88 C383.36,36.88 380.64,34.56 374.72,34.56 L349.04,34.56 Z M448,20 L451.44,20 C488.88,20 493.28,38.8 493.28,49.44 L493.28,51.84 C493.28,62.32 488.96,81.6 451.44,81.6 L448,81.6 C410.32,81.6 406.08,62.32 406.08,51.84 L406.08,49.44 C406.08,38.8 410.32,20 448,20 Z M473.76,50 C473.76,43.12 469.76,34.4 449.68,34.4 C429.28,34.4 425.6,43.12 425.6,50 L425.6,50.96 C425.6,57.76 429.6,67.12 449.68,67.12 C469.68,67.12 473.76,58 473.76,51.12 L473.76,50 Z M503.2,66.16 C506.24,60 506.64,46.72 506.64,21.04 L570.96,21.04 L570.96,66.16 L580.56,66.16 L580.56,90.56 L562.72,90.56 L562.72,80.56 L513.44,80.56 L513.44,90.56 L495.6,90.56 L495.6,66.16 L503.2,66.16 Z M520,66.16 L552.32,66.16 L552.32,35.44 L523.12,35.44 C523.12,47.68 522.48,60.4 520,66.16 Z M645.44,80.56 L639.84,69.68 L603.76,69.68 L598.4,80.56 L579.44,80.56 L609.52,21.04 L633.68,21.04 L665.52,80.56 L645.44,80.56 Z M610.4,56.24 L632.96,56.24 L621.44,33.92 L610.4,56.24 Z M713.76,80.56 L713.76,54.16 L687.12,80.56 L662.8,80.56 L695.68,48.32 L664.4,21.04 L688.08,21.04 L713.76,44.16 L713.76,21.04 L732.4,21.04 L732.4,44.16 L758.08,21.04 L781.76,21.04 L750.48,48.32 L783.36,80.56 L759.04,80.56 L732.4,54.16 L732.4,80.56 L713.76,80.56 Z M846.64,80.56 L841.04,69.68 L804.96,69.68 L799.6,80.56 L780.64,80.56 L810.72,21.04 L834.88,21.04 L866.72,80.56 L846.64,80.56 Z M811.6,56.24 L834.16,56.24 L822.64,33.92 L811.6,56.24 Z M938.8,60.72 L912.8,60.72 L912.8,80.56 L894.16,80.56 L894.16,21.04 L938.8,21.04 C960.16,21.04 966.56,29.52 966.56,40.4 L966.56,41.2 C966.56,51.84 960.08,60.72 938.8,60.72 Z M912.8,34.56 L912.8,47.36 L938.48,47.36 C944.32,47.36 947.12,45.12 947.12,41.12 L947.12,40.88 C947.12,36.88 944.4,34.56 938.48,34.56 L912.8,34.56 Z M1032.4,80.56 L1026.8,69.68 L990.72,69.68 L985.36,80.56 L966.4,80.56 L996.48,21.04 L1020.64,21.04 L1052.48,80.56 L1032.4,80.56 Z M997.36,56.24 L1019.92,56.24 L1008.4,33.92 L997.36,56.24 Z M1135.92,57.44 C1135.92,64.96 1130.08,81.6 1096,81.6 L1092.72,81.6 C1058.24,81.6 1052.88,62.4 1052.88,51.76 L1052.88,49.44 C1052.88,38.64 1057.6,20 1092.72,20 L1096,20 C1130.56,20 1135.76,36.48 1135.84,43.44 L1135.84,44.32 L1116.08,44.32 C1115.6,42.72 1113.28,34.4 1094.32,34.4 C1076.48,34.4 1072.4,42.4 1072.4,49.84 L1072.4,50.8 C1072.4,57.76 1077.12,67.12 1094.48,67.12 C1113.76,67.12 1115.76,57.92 1116.16,56.56 L1135.92,56.56 L1135.92,57.44 Z M1141.92,80.56 L1141.92,21.04 L1215.92,21.04 L1215.92,80.56 L1197.28,80.56 L1197.28,35.44 L1160.56,35.44 L1160.56,80.56 L1141.92,80.56 Z M1269.2,60.72 L1243.2,60.72 L1243.2,80.56 L1224.56,80.56 L1224.56,21.04 L1269.2,21.04 C1290.56,21.04 1296.96,29.52 1296.96,40.4 L1296.96,41.2 C1296.96,51.84 1290.48,60.72 1269.2,60.72 Z M1243.2,34.56 L1243.2,47.36 L1268.88,47.36 C1274.72,47.36 1277.52,45.12 1277.52,41.12 L1277.52,40.88 C1277.52,36.88 1274.8,34.56 1268.88,34.56 L1243.2,34.56 Z M1342.16,20 L1345.6,20 C1383.04,20 1387.44,38.8 1387.44,49.44 L1387.44,51.84 C1387.44,62.32 1383.12,81.6 1345.6,81.6 L1342.16,81.6 C1304.48,81.6 1300.24,62.32 1300.24,51.84 L1300.24,49.44 C1300.24,38.8 1304.48,20 1342.16,20 Z M1367.92,50 C1367.92,43.12 1363.92,34.4 1343.84,34.4 C1323.44,34.4 1319.76,43.12 1319.76,50 L1319.76,50.96 C1319.76,57.76 1323.76,67.12 1343.84,67.12 C1363.84,67.12 1367.92,58 1367.92,51.12 L1367.92,50 Z M1397.36,66.16 C1400.4,60 1400.8,46.72 1400.8,21.04 L1465.12,21.04 L1465.12,66.16 L1474.72,66.16 L1474.72,90.56 L1456.88,90.56 L1456.88,80.56 L1407.6,80.56 L1407.6,90.56 L1389.76,90.56 L1389.76,66.16 L1397.36,66.16 Z M1414.16,66.16 L1446.48,66.16 L1446.48,35.44 L1417.28,35.44 C1417.28,47.68 1416.64,60.4 1414.16,66.16 Z M1539.6,80.56 L1534,69.68 L1497.92,69.68 L1492.56,80.56 L1473.6,80.56 L1503.68,21.04 L1527.84,21.04 L1559.68,80.56 L1539.6,80.56 Z M1504.56,56.24 L1527.12,56.24 L1515.6,33.92 L1504.56,56.24 Z M1607.92,80.56 L1607.92,54.16 L1581.28,80.56 L1556.96,80.56 L1589.84,48.32 L1558.56,21.04 L1582.24,21.04 L1607.92,44.16 L1607.92,21.04 L1626.56,21.04 L1626.56,44.16 L1652.24,21.04 L1675.92,21.04 L1644.64,48.32 L1677.52,80.56 L1653.2,80.56 L1626.56,54.16 L1626.56,80.56 L1607.92,80.56 Z M1740.8,80.56 L1735.2,69.68 L1699.12,69.68 L1693.76,80.56 L1674.8,80.56 L1704.88,21.04 L1729.04,21.04 L1760.88,80.56 L1740.8,80.56 Z M1705.76,56.24 L1728.32,56.24 L1716.8,33.92 L1705.76,56.24 Z M1832.96,60.72 L1806.96,60.72 L1806.96,80.56 L1788.32,80.56 L1788.32,21.04 L1832.96,21.04 C1854.32,21.04 1860.72,29.52 1860.72,40.4 L1860.72,41.2 C1860.72,51.84 1854.24,60.72 1832.96,60.72 Z M1806.96,34.56 L1806.96,47.36 L1832.64,47.36 C1838.48,47.36 1841.28,45.12 1841.28,41.12 L1841.28,40.88 C1841.28,36.88 1838.56,34.56 1832.64,34.56 L1806.96,34.56 Z M1926.56,80.56 L1920.96,69.68 L1884.88,69.68 L1879.52,80.56 L1860.56,80.56 L1890.64,21.04 L1914.8,21.04 L1946.64,80.56 L1926.56,80.56 Z M1891.52,56.24 L1914.08,56.24 L1902.56,33.92 L1891.52,56.24 Z M2030.08,57.44 C2030.08,64.96 2024.24,81.6 1990.16,81.6 L1986.88,81.6 C1952.4,81.6 1947.04,62.4 1947.04,51.76 L1947.04,49.44 C1947.04,38.64 1951.76,20 1986.88,20 L1990.16,20 C2024.72,20 2029.92,36.48 2030,43.44 L2030,44.32 L2010.24,44.32 C2009.76,42.72 2007.44,34.4 1988.48,34.4 C1970.64,34.4 1966.56,42.4 1966.56,49.84 L1966.56,50.8 C1966.56,57.76 1971.28,67.12 1988.64,67.12 C2007.92,67.12 2009.92,57.92 2010.32,56.56 L2030.08,56.56 L2030.08,57.44 Z M2036.08,80.56 L2036.08,21.04 L2110.08,21.04 L2110.08,80.56 L2091.44,80.56 L2091.44,35.44 L2054.72,35.44 L2054.72,80.56 L2036.08,80.56 Z M2163.36,60.72 L2137.36,60.72 L2137.36,80.56 L2118.72,80.56 L2118.72,21.04 L2163.36,21.04 C2184.72,21.04 2191.12,29.52 2191.12,40.4 L2191.12,41.2 C2191.12,51.84 2184.64,60.72 2163.36,60.72 Z M2137.36,34.56 L2137.36,47.36 L2163.04,47.36 C2168.88,47.36 2171.68,45.12 2171.68,41.12 L2171.68,40.88 C2171.68,36.88 2168.96,34.56 2163.04,34.56 L2137.36,34.56 Z M2236.32,20 L2239.76,20 C2277.2,20 2281.6,38.8 2281.6,49.44 L2281.6,51.84 C2281.6,62.32 2277.28,81.6 2239.76,81.6 L2236.32,81.6 C2198.64,81.6 2194.4,62.32 2194.4,51.84 L2194.4,49.44 C2194.4,38.8 2198.64,20 2236.32,20 Z M2262.08,50 C2262.08,43.12 2258.08,34.4 2238,34.4 C2217.6,34.4 2213.92,43.12 2213.92,50 L2213.92,50.96 C2213.92,57.76 2217.92,67.12 2238,67.12 C2258,67.12 2262.08,58 2262.08,51.12 L2262.08,50 Z M2291.52,66.16 C2294.56,60 2294.96,46.72 2294.96,21.04 L2359.28,21.04 L2359.28,66.16 L2368.88,66.16 L2368.88,90.56 L2351.04,90.56 L2351.04,80.56 L2301.76,80.56 L2301.76,90.56 L2283.92,90.56 L2283.92,66.16 L2291.52,66.16 Z M2308.32,66.16 L2340.64,66.16 L2340.64,35.44 L2311.44,35.44 C2311.44,47.68 2310.8,60.4 2308.32,66.16 Z M2433.76,80.56 L2428.16,69.68 L2392.08,69.68 L2386.72,80.56 L2367.76,80.56 L2397.84,21.04 L2422,21.04 L2453.84,80.56 L2433.76,80.56 Z M2398.72,56.24 L2421.28,56.24 L2409.76,33.92 L2398.72,56.24 Z M2502.08,80.56 L2502.08,54.16 L2475.44,80.56 L2451.12,80.56 L2484,48.32 L2452.72,21.04 L2476.4,21.04 L2502.08,44.16 L2502.08,21.04 L2520.72,21.04 L2520.72,44.16 L2546.4,21.04 L2570.08,21.04 L2538.8,48.32 L2571.68,80.56 L2547.36,80.56 L2520.72,54.16 L2520.72,80.56 L2502.08,80.56 Z M2634.96,80.56 L2629.36,69.68 L2593.28,69.68 L2587.92,80.56 L2568.96,80.56 L2599.04,21.04 L2623.2,21.04 L2655.04,80.56 L2634.96,80.56 Z M2599.92,56.24 L2622.48,56.24 L2610.96,33.92 L2599.92,56.24 Z M2727.12,60.72 L2701.12,60.72 L2701.12,80.56 L2682.48,80.56 L2682.48,21.04 L2727.12,21.04 C2748.48,21.04 2754.88,29.52 2754.88,40.4 L2754.88,41.2 C2754.88,51.84 2748.4,60.72 2727.12,60.72 Z M2701.12,34.56 L2701.12,47.36 L2726.8,47.36 C2732.64,47.36 2735.44,45.12 2735.44,41.12 L2735.44,40.88 C2735.44,36.88 2732.72,34.56 2726.8,34.56 L2701.12,34.56 Z M2820.72,80.56 L2815.12,69.68 L2779.04,69.68 L2773.68,80.56 L2754.72,80.56 L2784.8,21.04 L2808.96,21.04 L2840.8,80.56 L2820.72,80.56 Z M2785.68,56.24 L2808.24,56.24 L2796.72,33.92 L2785.68,56.24 Z M2924.24,57.44 C2924.24,64.96 2918.4,81.6 2884.32,81.6 L2881.04,81.6 C2846.56,81.6 2841.2,62.4 2841.2,51.76 L2841.2,49.44 C2841.2,38.64 2845.92,20 2881.04,20 L2884.32,20 C2918.88,20 2924.08,36.48 2924.16,43.44 L2924.16,44.32 L2904.4,44.32 C2903.92,42.72 2901.6,34.4 2882.64,34.4 C2864.8,34.4 2860.72,42.4 2860.72,49.84 L2860.72,50.8 C2860.72,57.76 2865.44,67.12 2882.8,67.12 C2902.08,67.12 2904.08,57.92 2904.48,56.56 L2924.24,56.56 L2924.24,57.44 Z M2930.24,80.56 L2930.24,21.04 L3004.24,21.04 L3004.24,80.56 L2985.6,80.56 L2985.6,35.44 L2948.88,35.44 L2948.88,80.56 L2930.24,80.56 Z M3057.52,60.72 L3031.52,60.72 L3031.52,80.56 L3012.88,80.56 L3012.88,21.04 L3057.52,21.04 C3078.88,21.04 3085.28,29.52 3085.28,40.4 L3085.28,41.2 C3085.28,51.84 3078.8,60.72 3057.52,60.72 Z M3031.52,34.56 L3031.52,47.36 L3057.2,47.36 C3063.04,47.36 3065.84,45.12 3065.84,41.12 L3065.84,40.88 C3065.84,36.88 3063.12,34.56 3057.2,34.56 L3031.52,34.56 Z M3130.48,20 L3133.92,20 C3171.36,20 3175.76,38.8 3175.76,49.44 L3175.76,51.84 C3175.76,62.32 3171.44,81.6 3133.92,81.6 L3130.48,81.6 C3092.8,81.6 3088.56,62.32 3088.56,51.84 L3088.56,49.44 C3088.56,38.8 3092.8,20 3130.48,20 Z M3156.24,50 C3156.24,43.12 3152.24,34.4 3132.16,34.4 C3111.76,34.4 3108.08,43.12 3108.08,50 L3108.08,50.96 C3108.08,57.76 3112.08,67.12 3132.16,67.12 C3152.16,67.12 3156.24,58 3156.24,51.12 L3156.24,50 Z M3185.68,66.16 C3188.72,60 3189.12,46.72 3189.12,21.04 L3253.44,21.04 L3253.44,66.16 L3263.04,66.16 L3263.04,90.56 L3245.2,90.56 L3245.2,80.56 L3195.92,80.56 L3195.92,90.56 L3178.08,90.56 L3178.08,66.16 L3185.68,66.16 Z M3202.48,66.16 L3234.8,66.16 L3234.8,35.44 L3205.6,35.44 C3205.6,47.68 3204.96,60.4 3202.48,66.16 Z M3327.92,80.56 L3322.32,69.68 L3286.24,69.68 L3280.88,80.56 L3261.92,80.56 L3292,21.04 L3316.16,21.04 L3348,80.56 L3327.92,80.56 Z M3292.88,56.24 L3315.44,56.24 L3303.92,33.92 L3292.88,56.24 Z M3396.24,80.56 L3396.24,54.16 L3369.6,80.56 L3345.28,80.56 L3378.16,48.32 L3346.88,21.04 L3370.56,21.04 L3396.24,44.16 L3396.24,21.04 L3414.88,21.04 L3414.88,44.16 L3440.56,21.04 L3464.24,21.04 L3432.96,48.32 L3465.84,80.56 L3441.52,80.56 L3414.88,54.16 L3414.88,80.56 L3396.24,80.56 Z M3529.12,80.56 L3523.52,69.68 L3487.44,69.68 L3482.08,80.56 L3463.12,80.56 L3493.2,21.04 L3517.36,21.04 L3549.2,80.56 L3529.12,80.56 Z M3494.08,56.24 L3516.64,56.24 L3505.12,33.92 L3494.08,56.24 Z M3621.28,60.72 L3595.28,60.72 L3595.28,80.56 L3576.64,80.56 L3576.64,21.04 L3621.28,21.04 C3642.64,21.04 3649.04,29.52 3649.04,40.4 L3649.04,41.2 C3649.04,51.84 3642.56,60.72 3621.28,60.72 Z M3595.28,34.56 L3595.28,47.36 L3620.96,47.36 C3626.8,47.36 3629.6,45.12 3629.6,41.12 L3629.6,40.88 C3629.6,36.88 3626.88,34.56 3620.96,34.56 L3595.28,34.56 Z M3714.88,80.56 L3709.28,69.68 L3673.2,69.68 L3667.84,80.56 L3648.88,80.56 L3678.96,21.04 L3703.12,21.04 L3734.96,80.56 L3714.88,80.56 Z M3679.84,56.24 L3702.4,56.24 L3690.88,33.92 L3679.84,56.24 Z M3818.4,57.44 C3818.4,64.96 3812.56,81.6 3778.48,81.6 L3775.2,81.6 C3740.72,81.6 3735.36,62.4 3735.36,51.76 L3735.36,49.44 C3735.36,38.64 3740.08,20 3775.2,20 L3778.48,20 C3813.04,20 3818.24,36.48 3818.32,43.44 L3818.32,44.32 L3798.56,44.32 C3798.08,42.72 3795.76,34.4 3776.8,34.4 C3758.96,34.4 3754.88,42.4 3754.88,49.84 L3754.88,50.8 C3754.88,57.76 3759.6,67.12 3776.96,67.12 C3796.24,67.12 3798.24,57.92 3798.64,56.56 L3818.4,56.56 L3818.4,57.44 Z M3824.4,80.56 L3824.4,21.04 L3898.4,21.04 L3898.4,80.56 L3879.76,80.56 L3879.76,35.44 L3843.04,35.44 L3843.04,80.56 L3824.4,80.56 Z M3951.68,60.72 L3925.68,60.72 L3925.68,80.56 L3907.04,80.56 L3907.04,21.04 L3951.68,21.04 C3973.04,21.04 3979.44,29.52 3979.44,40.4 L3979.44,41.2 C3979.44,51.84 3972.96,60.72 3951.68,60.72 Z M3925.68,34.56 L3925.68,47.36 L3951.36,47.36 C3957.2,47.36 3960,45.12 3960,41.12 L3960,40.88 C3960,36.88 3957.28,34.56 3951.36,34.56 L3925.68,34.56 Z M4024.64,20 L4028.08,20 C4065.52,20 4069.92,38.8 4069.92,49.44 L4069.92,51.84 C4069.92,62.32 4065.6,81.6 4028.08,81.6 L4024.64,81.6 C3986.96,81.6 3982.72,62.32 3982.72,51.84 L3982.72,49.44 C3982.72,38.8 3986.96,20 4024.64,20 Z M4050.4,50 C4050.4,43.12 4046.4,34.4 4026.32,34.4 C4005.92,34.4 4002.24,43.12 4002.24,50 L4002.24,50.96 C4002.24,57.76 4006.24,67.12 4026.32,67.12 C4046.32,67.12 4050.4,58 4050.4,51.12 L4050.4,50 Z M4079.84,66.16 C4082.88,60 4083.28,46.72 4083.28,21.04 L4147.6,21.04 L4147.6,66.16 L4157.2,66.16 L4157.2,90.56 L4139.36,90.56 L4139.36,80.56 L4090.08,80.56 L4090.08,90.56 L4072.24,90.56 L4072.24,66.16 L4079.84,66.16 Z M4096.64,66.16 L4128.96,66.16 L4128.96,35.44 L4099.76,35.44 C4099.76,47.68 4099.12,60.4 4096.64,66.16 Z M4222.08,80.56 L4216.48,69.68 L4180.4,69.68 L4175.04,80.56 L4156.08,80.56 L4186.16,21.04 L4210.32,21.04 L4242.16,80.56 L4222.08,80.56 Z M4187.04,56.24 L4209.6,56.24 L4198.08,33.92 L4187.04,56.24 Z M4290.4,80.56 L4290.4,54.16 L4263.76,80.56 L4239.44,80.56 L4272.32,48.32 L4241.04,21.04 L4264.72,21.04 L4290.4,44.16 L4290.4,21.04 L4309.04,21.04 L4309.04,44.16 L4334.72,21.04 L4358.4,21.04 L4327.12,48.32 L4360,80.56 L4335.68,80.56 L4309.04,54.16 L4309.04,80.56 L4290.4,80.56 Z M4423.28,80.56 L4417.68,69.68 L4381.6,69.68 L4376.24,80.56 L4357.28,80.56 L4387.36,21.04 L4411.52,21.04 L4443.36,80.56 L4423.28,80.56 Z M4388.24,56.24 L4410.8,56.24 L4399.28,33.92 L4388.24,56.24 Z"/>
  </g>
</svg>
