<svg xmlns="http://www.w3.org/2000/svg" width="4015" height="102" viewBox="0 0 4015 102">
  <g fill="none" fill-rule="evenodd">
    <rect width="4015" height="102" fill="#000"/>
    <path fill="#FFF" fill-rule="nonzero" d="M77.12,63.48 C77.12,73.24 70.24,81.8 41.12,81.8 L36.8,81.8 C15.52,81.8 2.27373675e-13,75.88 2.27373675e-13,59.56 L2.27373675e-13,58.68 L19.6,58.68 C19.6,65.48 26.48,68.6 39.76,68.6 C52.88,68.6 57.92,66.36 57.92,62.44 L57.92,62.2 C57.92,58.28 52.88,56.76 43.12,56.76 L25.44,56.76 L25.44,43.88 L43.04,43.88 C52.32,43.88 56.4,42.6 56.4,39.48 L56.4,39.24 C56.4,36.04 52.08,34.12 39.28,34.12 C29.12,34.12 19.84,36.04 19.84,43.24 L0.24,43.24 L0.24,41.8 C0.24,28.28 15.44,21 36.48,21 L40.48,21 C68,21 75.52,28.04 75.52,36.44 L75.52,37.32 C75.52,42.84 70.88,48.6 59.52,49.4 C71.36,50.28 77.12,56.04 77.12,62.68 L77.12,63.48 Z M143.6,81.08 L138,70.2 L101.92,70.2 L96.56,81.08 L77.6,81.08 L107.68,21.56 L131.84,21.56 L163.68,81.08 L143.6,81.08 Z M108.56,56.76 L131.12,56.76 L119.6,34.44 L108.56,56.76 Z M216.56,81.08 L185.12,53 L185.12,81.08 L166.48,81.08 L166.48,21.56 L185.12,21.56 L185.12,46.36 L215.6,21.56 L239.28,21.56 L205.04,48.76 L240.88,81.08 L216.56,81.08 Z M303.6,81.08 L298,70.2 L261.92,70.2 L256.56,81.08 L237.6,81.08 L267.68,21.56 L291.84,21.56 L323.68,81.08 L303.6,81.08 Z M268.56,56.76 L291.12,56.76 L279.6,34.44 L268.56,56.76 Z M401.76,63.48 C401.76,73.24 394.88,81.8 365.76,81.8 L361.44,81.8 C340.16,81.8 324.64,75.88 324.64,59.56 L324.64,58.68 L344.24,58.68 C344.24,65.48 351.12,68.6 364.4,68.6 C377.52,68.6 382.56,66.36 382.56,62.44 L382.56,62.2 C382.56,58.28 377.52,56.76 367.76,56.76 L350.08,56.76 L350.08,43.88 L367.68,43.88 C376.96,43.88 381.04,42.6 381.04,39.48 L381.04,39.24 C381.04,36.04 376.72,34.12 363.92,34.12 C353.76,34.12 344.48,36.04 344.48,43.24 L324.88,43.24 L324.88,41.8 C324.88,28.28 340.08,21 361.12,21 L365.12,21 C392.64,21 400.16,28.04 400.16,36.44 L400.16,37.32 C400.16,42.84 395.52,48.6 384.16,49.4 C396,50.28 401.76,56.04 401.76,62.68 L401.76,63.48 Z M468.24,81.08 L462.64,70.2 L426.56,70.2 L421.2,81.08 L402.24,81.08 L432.32,21.56 L456.48,21.56 L488.32,81.08 L468.24,81.08 Z M433.2,56.76 L455.76,56.76 L444.24,34.44 L433.2,56.76 Z M488.8,35.64 L488.8,21.56 L558.88,21.56 L558.88,35.64 L533.2,35.64 L533.2,81.08 L514.4,81.08 L514.4,35.64 L488.8,35.64 Z M607.04,39.8 C631.6,39.8 637.52,48.92 637.52,59.96 L637.52,60.76 C637.52,71.88 631.76,81.08 606.96,81.08 L565.2,81.08 L565.2,21.56 L583.84,21.56 L583.84,39.8 L607.04,39.8 Z M583.84,67.64 L606.48,67.64 C615.6,67.64 618.08,64.36 618.08,60.44 L618.08,60.2 C618.08,56.2 615.6,53.16 606.48,53.16 L583.84,53.16 L583.84,67.64 Z M743.12,63.48 C743.12,73.24 736.24,81.8 707.12,81.8 L702.8,81.8 C681.52,81.8 666,75.88 666,59.56 L666,58.68 L685.6,58.68 C685.6,65.48 692.48,68.6 705.76,68.6 C718.88,68.6 723.92,66.36 723.92,62.44 L723.92,62.2 C723.92,58.28 718.88,56.76 709.12,56.76 L691.44,56.76 L691.44,43.88 L709.04,43.88 C718.32,43.88 722.4,42.6 722.4,39.48 L722.4,39.24 C722.4,36.04 718.08,34.12 705.28,34.12 C695.12,34.12 685.84,36.04 685.84,43.24 L666.24,43.24 L666.24,41.8 C666.24,28.28 681.44,21 702.48,21 L706.48,21 C734,21 741.52,28.04 741.52,36.44 L741.52,37.32 C741.52,42.84 736.88,48.6 725.52,49.4 C737.36,50.28 743.12,56.04 743.12,62.68 L743.12,63.48 Z M809.6,81.08 L804,70.2 L767.92,70.2 L762.56,81.08 L743.6,81.08 L773.68,21.56 L797.84,21.56 L829.68,81.08 L809.6,81.08 Z M774.56,56.76 L797.12,56.76 L785.6,34.44 L774.56,56.76 Z M882.56,81.08 L851.12,53 L851.12,81.08 L832.48,81.08 L832.48,21.56 L851.12,21.56 L851.12,46.36 L881.6,21.56 L905.28,21.56 L871.04,48.76 L906.88,81.08 L882.56,81.08 Z M969.6,81.08 L964,70.2 L927.92,70.2 L922.56,81.08 L903.6,81.08 L933.68,21.56 L957.84,21.56 L989.68,81.08 L969.6,81.08 Z M934.56,56.76 L957.12,56.76 L945.6,34.44 L934.56,56.76 Z M1067.76,63.48 C1067.76,73.24 1060.88,81.8 1031.76,81.8 L1027.44,81.8 C1006.16,81.8 990.64,75.88 990.64,59.56 L990.64,58.68 L1010.24,58.68 C1010.24,65.48 1017.12,68.6 1030.4,68.6 C1043.52,68.6 1048.56,66.36 1048.56,62.44 L1048.56,62.2 C1048.56,58.28 1043.52,56.76 1033.76,56.76 L1016.08,56.76 L1016.08,43.88 L1033.68,43.88 C1042.96,43.88 1047.04,42.6 1047.04,39.48 L1047.04,39.24 C1047.04,36.04 1042.72,34.12 1029.92,34.12 C1019.76,34.12 1010.48,36.04 1010.48,43.24 L990.88,43.24 L990.88,41.8 C990.88,28.28 1006.08,21 1027.12,21 L1031.12,21 C1058.64,21 1066.16,28.04 1066.16,36.44 L1066.16,37.32 C1066.16,42.84 1061.52,48.6 1050.16,49.4 C1062,50.28 1067.76,56.04 1067.76,62.68 L1067.76,63.48 Z M1134.24,81.08 L1128.64,70.2 L1092.56,70.2 L1087.2,81.08 L1068.24,81.08 L1098.32,21.56 L1122.48,21.56 L1154.32,81.08 L1134.24,81.08 Z M1099.2,56.76 L1121.76,56.76 L1110.24,34.44 L1099.2,56.76 Z M1154.8,35.64 L1154.8,21.56 L1224.88,21.56 L1224.88,35.64 L1199.2,35.64 L1199.2,81.08 L1180.4,81.08 L1180.4,35.64 L1154.8,35.64 Z M1273.04,39.8 C1297.6,39.8 1303.52,48.92 1303.52,59.96 L1303.52,60.76 C1303.52,71.88 1297.76,81.08 1272.96,81.08 L1231.2,81.08 L1231.2,21.56 L1249.84,21.56 L1249.84,39.8 L1273.04,39.8 Z M1249.84,67.64 L1272.48,67.64 C1281.6,67.64 1284.08,64.36 1284.08,60.44 L1284.08,60.2 C1284.08,56.2 1281.6,53.16 1272.48,53.16 L1249.84,53.16 L1249.84,67.64 Z M1409.12,63.48 C1409.12,73.24 1402.24,81.8 1373.12,81.8 L1368.8,81.8 C1347.52,81.8 1332,75.88 1332,59.56 L1332,58.68 L1351.6,58.68 C1351.6,65.48 1358.48,68.6 1371.76,68.6 C1384.88,68.6 1389.92,66.36 1389.92,62.44 L1389.92,62.2 C1389.92,58.28 1384.88,56.76 1375.12,56.76 L1357.44,56.76 L1357.44,43.88 L1375.04,43.88 C1384.32,43.88 1388.4,42.6 1388.4,39.48 L1388.4,39.24 C1388.4,36.04 1384.08,34.12 1371.28,34.12 C1361.12,34.12 1351.84,36.04 1351.84,43.24 L1332.24,43.24 L1332.24,41.8 C1332.24,28.28 1347.44,21 1368.48,21 L1372.48,21 C1400,21 1407.52,28.04 1407.52,36.44 L1407.52,37.32 C1407.52,42.84 1402.88,48.6 1391.52,49.4 C1403.36,50.28 1409.12,56.04 1409.12,62.68 L1409.12,63.48 Z M1475.6,81.08 L1470,70.2 L1433.92,70.2 L1428.56,81.08 L1409.6,81.08 L1439.68,21.56 L1463.84,21.56 L1495.68,81.08 L1475.6,81.08 Z M1440.56,56.76 L1463.12,56.76 L1451.6,34.44 L1440.56,56.76 Z M1548.56,81.08 L1517.12,53 L1517.12,81.08 L1498.48,81.08 L1498.48,21.56 L1517.12,21.56 L1517.12,46.36 L1547.6,21.56 L1571.28,21.56 L1537.04,48.76 L1572.88,81.08 L1548.56,81.08 Z M1635.6,81.08 L1630,70.2 L1593.92,70.2 L1588.56,81.08 L1569.6,81.08 L1599.68,21.56 L1623.84,21.56 L1655.68,81.08 L1635.6,81.08 Z M1600.56,56.76 L1623.12,56.76 L1611.6,34.44 L1600.56,56.76 Z M1733.76,63.48 C1733.76,73.24 1726.88,81.8 1697.76,81.8 L1693.44,81.8 C1672.16,81.8 1656.64,75.88 1656.64,59.56 L1656.64,58.68 L1676.24,58.68 C1676.24,65.48 1683.12,68.6 1696.4,68.6 C1709.52,68.6 1714.56,66.36 1714.56,62.44 L1714.56,62.2 C1714.56,58.28 1709.52,56.76 1699.76,56.76 L1682.08,56.76 L1682.08,43.88 L1699.68,43.88 C1708.96,43.88 1713.04,42.6 1713.04,39.48 L1713.04,39.24 C1713.04,36.04 1708.72,34.12 1695.92,34.12 C1685.76,34.12 1676.48,36.04 1676.48,43.24 L1656.88,43.24 L1656.88,41.8 C1656.88,28.28 1672.08,21 1693.12,21 L1697.12,21 C1724.64,21 1732.16,28.04 1732.16,36.44 L1732.16,37.32 C1732.16,42.84 1727.52,48.6 1716.16,49.4 C1728,50.28 1733.76,56.04 1733.76,62.68 L1733.76,63.48 Z M1800.24,81.08 L1794.64,70.2 L1758.56,70.2 L1753.2,81.08 L1734.24,81.08 L1764.32,21.56 L1788.48,21.56 L1820.32,81.08 L1800.24,81.08 Z M1765.2,56.76 L1787.76,56.76 L1776.24,34.44 L1765.2,56.76 Z M1820.8,35.64 L1820.8,21.56 L1890.88,21.56 L1890.88,35.64 L1865.2,35.64 L1865.2,81.08 L1846.4,81.08 L1846.4,35.64 L1820.8,35.64 Z M1939.04,39.8 C1963.6,39.8 1969.52,48.92 1969.52,59.96 L1969.52,60.76 C1969.52,71.88 1963.76,81.08 1938.96,81.08 L1897.2,81.08 L1897.2,21.56 L1915.84,21.56 L1915.84,39.8 L1939.04,39.8 Z M1915.84,67.64 L1938.48,67.64 C1947.6,67.64 1950.08,64.36 1950.08,60.44 L1950.08,60.2 C1950.08,56.2 1947.6,53.16 1938.48,53.16 L1915.84,53.16 L1915.84,67.64 Z M2075.12,63.48 C2075.12,73.24 2068.24,81.8 2039.12,81.8 L2034.8,81.8 C2013.52,81.8 1998,75.88 1998,59.56 L1998,58.68 L2017.6,58.68 C2017.6,65.48 2024.48,68.6 2037.76,68.6 C2050.88,68.6 2055.92,66.36 2055.92,62.44 L2055.92,62.2 C2055.92,58.28 2050.88,56.76 2041.12,56.76 L2023.44,56.76 L2023.44,43.88 L2041.04,43.88 C2050.32,43.88 2054.4,42.6 2054.4,39.48 L2054.4,39.24 C2054.4,36.04 2050.08,34.12 2037.28,34.12 C2027.12,34.12 2017.84,36.04 2017.84,43.24 L1998.24,43.24 L1998.24,41.8 C1998.24,28.28 2013.44,21 2034.48,21 L2038.48,21 C2066,21 2073.52,28.04 2073.52,36.44 L2073.52,37.32 C2073.52,42.84 2068.88,48.6 2057.52,49.4 C2069.36,50.28 2075.12,56.04 2075.12,62.68 L2075.12,63.48 Z M2141.6,81.08 L2136,70.2 L2099.92,70.2 L2094.56,81.08 L2075.6,81.08 L2105.68,21.56 L2129.84,21.56 L2161.68,81.08 L2141.6,81.08 Z M2106.56,56.76 L2129.12,56.76 L2117.6,34.44 L2106.56,56.76 Z M2214.56,81.08 L2183.12,53 L2183.12,81.08 L2164.48,81.08 L2164.48,21.56 L2183.12,21.56 L2183.12,46.36 L2213.6,21.56 L2237.28,21.56 L2203.04,48.76 L2238.88,81.08 L2214.56,81.08 Z M2301.6,81.08 L2296,70.2 L2259.92,70.2 L2254.56,81.08 L2235.6,81.08 L2265.68,21.56 L2289.84,21.56 L2321.68,81.08 L2301.6,81.08 Z M2266.56,56.76 L2289.12,56.76 L2277.6,34.44 L2266.56,56.76 Z M2399.76,63.48 C2399.76,73.24 2392.88,81.8 2363.76,81.8 L2359.44,81.8 C2338.16,81.8 2322.64,75.88 2322.64,59.56 L2322.64,58.68 L2342.24,58.68 C2342.24,65.48 2349.12,68.6 2362.4,68.6 C2375.52,68.6 2380.56,66.36 2380.56,62.44 L2380.56,62.2 C2380.56,58.28 2375.52,56.76 2365.76,56.76 L2348.08,56.76 L2348.08,43.88 L2365.68,43.88 C2374.96,43.88 2379.04,42.6 2379.04,39.48 L2379.04,39.24 C2379.04,36.04 2374.72,34.12 2361.92,34.12 C2351.76,34.12 2342.48,36.04 2342.48,43.24 L2322.88,43.24 L2322.88,41.8 C2322.88,28.28 2338.08,21 2359.12,21 L2363.12,21 C2390.64,21 2398.16,28.04 2398.16,36.44 L2398.16,37.32 C2398.16,42.84 2393.52,48.6 2382.16,49.4 C2394,50.28 2399.76,56.04 2399.76,62.68 L2399.76,63.48 Z M2466.24,81.08 L2460.64,70.2 L2424.56,70.2 L2419.2,81.08 L2400.24,81.08 L2430.32,21.56 L2454.48,21.56 L2486.32,81.08 L2466.24,81.08 Z M2431.2,56.76 L2453.76,56.76 L2442.24,34.44 L2431.2,56.76 Z M2486.8,35.64 L2486.8,21.56 L2556.88,21.56 L2556.88,35.64 L2531.2,35.64 L2531.2,81.08 L2512.4,81.08 L2512.4,35.64 L2486.8,35.64 Z M2605.04,39.8 C2629.6,39.8 2635.52,48.92 2635.52,59.96 L2635.52,60.76 C2635.52,71.88 2629.76,81.08 2604.96,81.08 L2563.2,81.08 L2563.2,21.56 L2581.84,21.56 L2581.84,39.8 L2605.04,39.8 Z M2581.84,67.64 L2604.48,67.64 C2613.6,67.64 2616.08,64.36 2616.08,60.44 L2616.08,60.2 C2616.08,56.2 2613.6,53.16 2604.48,53.16 L2581.84,53.16 L2581.84,67.64 Z M2741.12,63.48 C2741.12,73.24 2734.24,81.8 2705.12,81.8 L2700.8,81.8 C2679.52,81.8 2664,75.88 2664,59.56 L2664,58.68 L2683.6,58.68 C2683.6,65.48 2690.48,68.6 2703.76,68.6 C2716.88,68.6 2721.92,66.36 2721.92,62.44 L2721.92,62.2 C2721.92,58.28 2716.88,56.76 2707.12,56.76 L2689.44,56.76 L2689.44,43.88 L2707.04,43.88 C2716.32,43.88 2720.4,42.6 2720.4,39.48 L2720.4,39.24 C2720.4,36.04 2716.08,34.12 2703.28,34.12 C2693.12,34.12 2683.84,36.04 2683.84,43.24 L2664.24,43.24 L2664.24,41.8 C2664.24,28.28 2679.44,21 2700.48,21 L2704.48,21 C2732,21 2739.52,28.04 2739.52,36.44 L2739.52,37.32 C2739.52,42.84 2734.88,48.6 2723.52,49.4 C2735.36,50.28 2741.12,56.04 2741.12,62.68 L2741.12,63.48 Z M2807.6,81.08 L2802,70.2 L2765.92,70.2 L2760.56,81.08 L2741.6,81.08 L2771.68,21.56 L2795.84,21.56 L2827.68,81.08 L2807.6,81.08 Z M2772.56,56.76 L2795.12,56.76 L2783.6,34.44 L2772.56,56.76 Z M2880.56,81.08 L2849.12,53 L2849.12,81.08 L2830.48,81.08 L2830.48,21.56 L2849.12,21.56 L2849.12,46.36 L2879.6,21.56 L2903.28,21.56 L2869.04,48.76 L2904.88,81.08 L2880.56,81.08 Z M2967.6,81.08 L2962,70.2 L2925.92,70.2 L2920.56,81.08 L2901.6,81.08 L2931.68,21.56 L2955.84,21.56 L2987.68,81.08 L2967.6,81.08 Z M2932.56,56.76 L2955.12,56.76 L2943.6,34.44 L2932.56,56.76 Z M3065.76,63.48 C3065.76,73.24 3058.88,81.8 3029.76,81.8 L3025.44,81.8 C3004.16,81.8 2988.64,75.88 2988.64,59.56 L2988.64,58.68 L3008.24,58.68 C3008.24,65.48 3015.12,68.6 3028.4,68.6 C3041.52,68.6 3046.56,66.36 3046.56,62.44 L3046.56,62.2 C3046.56,58.28 3041.52,56.76 3031.76,56.76 L3014.08,56.76 L3014.08,43.88 L3031.68,43.88 C3040.96,43.88 3045.04,42.6 3045.04,39.48 L3045.04,39.24 C3045.04,36.04 3040.72,34.12 3027.92,34.12 C3017.76,34.12 3008.48,36.04 3008.48,43.24 L2988.88,43.24 L2988.88,41.8 C2988.88,28.28 3004.08,21 3025.12,21 L3029.12,21 C3056.64,21 3064.16,28.04 3064.16,36.44 L3064.16,37.32 C3064.16,42.84 3059.52,48.6 3048.16,49.4 C3060,50.28 3065.76,56.04 3065.76,62.68 L3065.76,63.48 Z M3132.24,81.08 L3126.64,70.2 L3090.56,70.2 L3085.2,81.08 L3066.24,81.08 L3096.32,21.56 L3120.48,21.56 L3152.32,81.08 L3132.24,81.08 Z M3097.2,56.76 L3119.76,56.76 L3108.24,34.44 L3097.2,56.76 Z M3152.8,35.64 L3152.8,21.56 L3222.88,21.56 L3222.88,35.64 L3197.2,35.64 L3197.2,81.08 L3178.4,81.08 L3178.4,35.64 L3152.8,35.64 Z M3271.04,39.8 C3295.6,39.8 3301.52,48.92 3301.52,59.96 L3301.52,60.76 C3301.52,71.88 3295.76,81.08 3270.96,81.08 L3229.2,81.08 L3229.2,21.56 L3247.84,21.56 L3247.84,39.8 L3271.04,39.8 Z M3247.84,67.64 L3270.48,67.64 C3279.6,67.64 3282.08,64.36 3282.08,60.44 L3282.08,60.2 C3282.08,56.2 3279.6,53.16 3270.48,53.16 L3247.84,53.16 L3247.84,67.64 Z M3407.12,63.48 C3407.12,73.24 3400.24,81.8 3371.12,81.8 L3366.8,81.8 C3345.52,81.8 3330,75.88 3330,59.56 L3330,58.68 L3349.6,58.68 C3349.6,65.48 3356.48,68.6 3369.76,68.6 C3382.88,68.6 3387.92,66.36 3387.92,62.44 L3387.92,62.2 C3387.92,58.28 3382.88,56.76 3373.12,56.76 L3355.44,56.76 L3355.44,43.88 L3373.04,43.88 C3382.32,43.88 3386.4,42.6 3386.4,39.48 L3386.4,39.24 C3386.4,36.04 3382.08,34.12 3369.28,34.12 C3359.12,34.12 3349.84,36.04 3349.84,43.24 L3330.24,43.24 L3330.24,41.8 C3330.24,28.28 3345.44,21 3366.48,21 L3370.48,21 C3398,21 3405.52,28.04 3405.52,36.44 L3405.52,37.32 C3405.52,42.84 3400.88,48.6 3389.52,49.4 C3401.36,50.28 3407.12,56.04 3407.12,62.68 L3407.12,63.48 Z M3473.6,81.08 L3468,70.2 L3431.92,70.2 L3426.56,81.08 L3407.6,81.08 L3437.68,21.56 L3461.84,21.56 L3493.68,81.08 L3473.6,81.08 Z M3438.56,56.76 L3461.12,56.76 L3449.6,34.44 L3438.56,56.76 Z M3546.56,81.08 L3515.12,53 L3515.12,81.08 L3496.48,81.08 L3496.48,21.56 L3515.12,21.56 L3515.12,46.36 L3545.6,21.56 L3569.28,21.56 L3535.04,48.76 L3570.88,81.08 L3546.56,81.08 Z M3633.6,81.08 L3628,70.2 L3591.92,70.2 L3586.56,81.08 L3567.6,81.08 L3597.68,21.56 L3621.84,21.56 L3653.68,81.08 L3633.6,81.08 Z M3598.56,56.76 L3621.12,56.76 L3609.6,34.44 L3598.56,56.76 Z M3731.76,63.48 C3731.76,73.24 3724.88,81.8 3695.76,81.8 L3691.44,81.8 C3670.16,81.8 3654.64,75.88 3654.64,59.56 L3654.64,58.68 L3674.24,58.68 C3674.24,65.48 3681.12,68.6 3694.4,68.6 C3707.52,68.6 3712.56,66.36 3712.56,62.44 L3712.56,62.2 C3712.56,58.28 3707.52,56.76 3697.76,56.76 L3680.08,56.76 L3680.08,43.88 L3697.68,43.88 C3706.96,43.88 3711.04,42.6 3711.04,39.48 L3711.04,39.24 C3711.04,36.04 3706.72,34.12 3693.92,34.12 C3683.76,34.12 3674.48,36.04 3674.48,43.24 L3654.88,43.24 L3654.88,41.8 C3654.88,28.28 3670.08,21 3691.12,21 L3695.12,21 C3722.64,21 3730.16,28.04 3730.16,36.44 L3730.16,37.32 C3730.16,42.84 3725.52,48.6 3714.16,49.4 C3726,50.28 3731.76,56.04 3731.76,62.68 L3731.76,63.48 Z M3798.24,81.08 L3792.64,70.2 L3756.56,70.2 L3751.2,81.08 L3732.24,81.08 L3762.32,21.56 L3786.48,21.56 L3818.32,81.08 L3798.24,81.08 Z M3763.2,56.76 L3785.76,56.76 L3774.24,34.44 L3763.2,56.76 Z M3818.8,35.64 L3818.8,21.56 L3888.88,21.56 L3888.88,35.64 L3863.2,35.64 L3863.2,81.08 L3844.4,81.08 L3844.4,35.64 L3818.8,35.64 Z M3937.04,39.8 C3961.6,39.8 3967.52,48.92 3967.52,59.96 L3967.52,60.76 C3967.52,71.88 3961.76,81.08 3936.96,81.08 L3895.2,81.08 L3895.2,21.56 L3913.84,21.56 L3913.84,39.8 L3937.04,39.8 Z M3913.84,67.64 L3936.48,67.64 C3945.6,67.64 3948.08,64.36 3948.08,60.44 L3948.08,60.2 C3948.08,56.2 3945.6,53.16 3936.48,53.16 L3913.84,53.16 L3913.84,67.64 Z"/>
  </g>
</svg>
