<svg xmlns="http://www.w3.org/2000/svg" width="4190" height="102" viewBox="0 0 4190 102">
  <g fill="none" fill-rule="evenodd">
    <rect width="4190" height="102" fill="#000"/>
    <path fill="#FFF" fill-rule="nonzero" d="M83.04,57.44 C83.04,64.96 77.2,81.6 43.12,81.6 L39.84,81.6 C5.36,81.6 0,62.4 0,51.76 L0,49.44 C0,38.64 4.72,20 39.84,20 L43.12,20 C77.68,20 82.88,36.48 82.96,43.44 L82.96,44.32 L63.2,44.32 C62.72,42.72 60.4,34.4 41.44,34.4 C23.6,34.4 19.52,42.4 19.52,49.84 L19.52,50.8 C19.52,57.76 24.24,67.12 41.6,67.12 C60.88,67.12 62.88,57.92 63.28,56.56 L83.04,56.56 L83.04,57.44 Z M139.12,80.56 L107.68,52.48 L107.68,80.56 L89.04,80.56 L89.04,21.04 L107.68,21.04 L107.68,45.84 L138.16,21.04 L161.84,21.04 L127.6,48.24 L163.44,80.56 L139.12,80.56 Z M224.56,80.56 L224.56,41.28 L184.64,80.56 L166,80.56 L166,21.04 L184.64,21.04 L184.64,60.48 L224.56,21.04 L243.2,21.04 L243.2,80.56 L224.56,80.56 Z M255.52,66.16 C258.56,60 258.96,46.72 258.96,21.04 L323.28,21.04 L323.28,66.16 L332.88,66.16 L332.88,90.56 L315.04,90.56 L315.04,80.56 L265.76,80.56 L265.76,90.56 L247.92,90.56 L247.92,66.16 L255.52,66.16 Z M272.32,66.16 L304.64,66.16 L304.64,35.44 L275.44,35.44 C275.44,47.68 274.8,60.4 272.32,66.16 Z M387.68,80.56 L356.24,52.48 L356.24,80.56 L337.6,80.56 L337.6,21.04 L356.24,21.04 L356.24,45.84 L386.72,21.04 L410.4,21.04 L376.16,48.24 L412,80.56 L387.68,80.56 Z M473.12,80.56 L473.12,41.28 L433.2,80.56 L414.56,80.56 L414.56,21.04 L433.2,21.04 L433.2,60.48 L473.12,21.04 L491.76,21.04 L491.76,80.56 L473.12,80.56 Z M605.68,57.44 C605.68,64.96 599.84,81.6 565.76,81.6 L562.48,81.6 C528,81.6 522.64,62.4 522.64,51.76 L522.64,49.44 C522.64,38.64 527.36,20 562.48,20 L565.76,20 C600.32,20 605.52,36.48 605.6,43.44 L605.6,44.32 L585.84,44.32 C585.36,42.72 583.04,34.4 564.08,34.4 C546.24,34.4 542.16,42.4 542.16,49.84 L542.16,50.8 C542.16,57.76 546.88,67.12 564.24,67.12 C583.52,67.12 585.52,57.92 585.92,56.56 L605.68,56.56 L605.68,57.44 Z M661.76,80.56 L630.32,52.48 L630.32,80.56 L611.68,80.56 L611.68,21.04 L630.32,21.04 L630.32,45.84 L660.8,21.04 L684.48,21.04 L650.24,48.24 L686.08,80.56 L661.76,80.56 Z M747.2,80.56 L747.2,41.28 L707.28,80.56 L688.64,80.56 L688.64,21.04 L707.28,21.04 L707.28,60.48 L747.2,21.04 L765.84,21.04 L765.84,80.56 L747.2,80.56 Z M778.16,66.16 C781.2,60 781.6,46.72 781.6,21.04 L845.92,21.04 L845.92,66.16 L855.52,66.16 L855.52,90.56 L837.68,90.56 L837.68,80.56 L788.4,80.56 L788.4,90.56 L770.56,90.56 L770.56,66.16 L778.16,66.16 Z M794.96,66.16 L827.28,66.16 L827.28,35.44 L798.08,35.44 C798.08,47.68 797.44,60.4 794.96,66.16 Z M910.32,80.56 L878.88,52.48 L878.88,80.56 L860.24,80.56 L860.24,21.04 L878.88,21.04 L878.88,45.84 L909.36,21.04 L933.04,21.04 L898.8,48.24 L934.64,80.56 L910.32,80.56 Z M995.76,80.56 L995.76,41.28 L955.84,80.56 L937.2,80.56 L937.2,21.04 L955.84,21.04 L955.84,60.48 L995.76,21.04 L1014.4,21.04 L1014.4,80.56 L995.76,80.56 Z M1128.32,57.44 C1128.32,64.96 1122.48,81.6 1088.4,81.6 L1085.12,81.6 C1050.64,81.6 1045.28,62.4 1045.28,51.76 L1045.28,49.44 C1045.28,38.64 1050,20 1085.12,20 L1088.4,20 C1122.96,20 1128.16,36.48 1128.24,43.44 L1128.24,44.32 L1108.48,44.32 C1108,42.72 1105.68,34.4 1086.72,34.4 C1068.88,34.4 1064.8,42.4 1064.8,49.84 L1064.8,50.8 C1064.8,57.76 1069.52,67.12 1086.88,67.12 C1106.16,67.12 1108.16,57.92 1108.56,56.56 L1128.32,56.56 L1128.32,57.44 Z M1184.4,80.56 L1152.96,52.48 L1152.96,80.56 L1134.32,80.56 L1134.32,21.04 L1152.96,21.04 L1152.96,45.84 L1183.44,21.04 L1207.12,21.04 L1172.88,48.24 L1208.72,80.56 L1184.4,80.56 Z M1269.84,80.56 L1269.84,41.28 L1229.92,80.56 L1211.28,80.56 L1211.28,21.04 L1229.92,21.04 L1229.92,60.48 L1269.84,21.04 L1288.48,21.04 L1288.48,80.56 L1269.84,80.56 Z M1300.8,66.16 C1303.84,60 1304.24,46.72 1304.24,21.04 L1368.56,21.04 L1368.56,66.16 L1378.16,66.16 L1378.16,90.56 L1360.32,90.56 L1360.32,80.56 L1311.04,80.56 L1311.04,90.56 L1293.2,90.56 L1293.2,66.16 L1300.8,66.16 Z M1317.6,66.16 L1349.92,66.16 L1349.92,35.44 L1320.72,35.44 C1320.72,47.68 1320.08,60.4 1317.6,66.16 Z M1432.96,80.56 L1401.52,52.48 L1401.52,80.56 L1382.88,80.56 L1382.88,21.04 L1401.52,21.04 L1401.52,45.84 L1432,21.04 L1455.68,21.04 L1421.44,48.24 L1457.28,80.56 L1432.96,80.56 Z M1518.4,80.56 L1518.4,41.28 L1478.48,80.56 L1459.84,80.56 L1459.84,21.04 L1478.48,21.04 L1478.48,60.48 L1518.4,21.04 L1537.04,21.04 L1537.04,80.56 L1518.4,80.56 Z M1650.96,57.44 C1650.96,64.96 1645.12,81.6 1611.04,81.6 L1607.76,81.6 C1573.28,81.6 1567.92,62.4 1567.92,51.76 L1567.92,49.44 C1567.92,38.64 1572.64,20 1607.76,20 L1611.04,20 C1645.6,20 1650.8,36.48 1650.88,43.44 L1650.88,44.32 L1631.12,44.32 C1630.64,42.72 1628.32,34.4 1609.36,34.4 C1591.52,34.4 1587.44,42.4 1587.44,49.84 L1587.44,50.8 C1587.44,57.76 1592.16,67.12 1609.52,67.12 C1628.8,67.12 1630.8,57.92 1631.2,56.56 L1650.96,56.56 L1650.96,57.44 Z M1707.04,80.56 L1675.6,52.48 L1675.6,80.56 L1656.96,80.56 L1656.96,21.04 L1675.6,21.04 L1675.6,45.84 L1706.08,21.04 L1729.76,21.04 L1695.52,48.24 L1731.36,80.56 L1707.04,80.56 Z M1792.48,80.56 L1792.48,41.28 L1752.56,80.56 L1733.92,80.56 L1733.92,21.04 L1752.56,21.04 L1752.56,60.48 L1792.48,21.04 L1811.12,21.04 L1811.12,80.56 L1792.48,80.56 Z M1823.44,66.16 C1826.48,60 1826.88,46.72 1826.88,21.04 L1891.2,21.04 L1891.2,66.16 L1900.8,66.16 L1900.8,90.56 L1882.96,90.56 L1882.96,80.56 L1833.68,80.56 L1833.68,90.56 L1815.84,90.56 L1815.84,66.16 L1823.44,66.16 Z M1840.24,66.16 L1872.56,66.16 L1872.56,35.44 L1843.36,35.44 C1843.36,47.68 1842.72,60.4 1840.24,66.16 Z M1955.6,80.56 L1924.16,52.48 L1924.16,80.56 L1905.52,80.56 L1905.52,21.04 L1924.16,21.04 L1924.16,45.84 L1954.64,21.04 L1978.32,21.04 L1944.08,48.24 L1979.92,80.56 L1955.6,80.56 Z M2041.04,80.56 L2041.04,41.28 L2001.12,80.56 L1982.48,80.56 L1982.48,21.04 L2001.12,21.04 L2001.12,60.48 L2041.04,21.04 L2059.68,21.04 L2059.68,80.56 L2041.04,80.56 Z M2173.6,57.44 C2173.6,64.96 2167.76,81.6 2133.68,81.6 L2130.4,81.6 C2095.92,81.6 2090.56,62.4 2090.56,51.76 L2090.56,49.44 C2090.56,38.64 2095.28,20 2130.4,20 L2133.68,20 C2168.24,20 2173.44,36.48 2173.52,43.44 L2173.52,44.32 L2153.76,44.32 C2153.28,42.72 2150.96,34.4 2132,34.4 C2114.16,34.4 2110.08,42.4 2110.08,49.84 L2110.08,50.8 C2110.08,57.76 2114.8,67.12 2132.16,67.12 C2151.44,67.12 2153.44,57.92 2153.84,56.56 L2173.6,56.56 L2173.6,57.44 Z M2229.68,80.56 L2198.24,52.48 L2198.24,80.56 L2179.6,80.56 L2179.6,21.04 L2198.24,21.04 L2198.24,45.84 L2228.72,21.04 L2252.4,21.04 L2218.16,48.24 L2254,80.56 L2229.68,80.56 Z M2315.12,80.56 L2315.12,41.28 L2275.2,80.56 L2256.56,80.56 L2256.56,21.04 L2275.2,21.04 L2275.2,60.48 L2315.12,21.04 L2333.76,21.04 L2333.76,80.56 L2315.12,80.56 Z M2346.08,66.16 C2349.12,60 2349.52,46.72 2349.52,21.04 L2413.84,21.04 L2413.84,66.16 L2423.44,66.16 L2423.44,90.56 L2405.6,90.56 L2405.6,80.56 L2356.32,80.56 L2356.32,90.56 L2338.48,90.56 L2338.48,66.16 L2346.08,66.16 Z M2362.88,66.16 L2395.2,66.16 L2395.2,35.44 L2366,35.44 C2366,47.68 2365.36,60.4 2362.88,66.16 Z M2478.24,80.56 L2446.8,52.48 L2446.8,80.56 L2428.16,80.56 L2428.16,21.04 L2446.8,21.04 L2446.8,45.84 L2477.28,21.04 L2500.96,21.04 L2466.72,48.24 L2502.56,80.56 L2478.24,80.56 Z M2563.68,80.56 L2563.68,41.28 L2523.76,80.56 L2505.12,80.56 L2505.12,21.04 L2523.76,21.04 L2523.76,60.48 L2563.68,21.04 L2582.32,21.04 L2582.32,80.56 L2563.68,80.56 Z M2696.24,57.44 C2696.24,64.96 2690.4,81.6 2656.32,81.6 L2653.04,81.6 C2618.56,81.6 2613.2,62.4 2613.2,51.76 L2613.2,49.44 C2613.2,38.64 2617.92,20 2653.04,20 L2656.32,20 C2690.88,20 2696.08,36.48 2696.16,43.44 L2696.16,44.32 L2676.4,44.32 C2675.92,42.72 2673.6,34.4 2654.64,34.4 C2636.8,34.4 2632.72,42.4 2632.72,49.84 L2632.72,50.8 C2632.72,57.76 2637.44,67.12 2654.8,67.12 C2674.08,67.12 2676.08,57.92 2676.48,56.56 L2696.24,56.56 L2696.24,57.44 Z M2752.32,80.56 L2720.88,52.48 L2720.88,80.56 L2702.24,80.56 L2702.24,21.04 L2720.88,21.04 L2720.88,45.84 L2751.36,21.04 L2775.04,21.04 L2740.8,48.24 L2776.64,80.56 L2752.32,80.56 Z M2837.76,80.56 L2837.76,41.28 L2797.84,80.56 L2779.2,80.56 L2779.2,21.04 L2797.84,21.04 L2797.84,60.48 L2837.76,21.04 L2856.4,21.04 L2856.4,80.56 L2837.76,80.56 Z M2868.72,66.16 C2871.76,60 2872.16,46.72 2872.16,21.04 L2936.48,21.04 L2936.48,66.16 L2946.08,66.16 L2946.08,90.56 L2928.24,90.56 L2928.24,80.56 L2878.96,80.56 L2878.96,90.56 L2861.12,90.56 L2861.12,66.16 L2868.72,66.16 Z M2885.52,66.16 L2917.84,66.16 L2917.84,35.44 L2888.64,35.44 C2888.64,47.68 2888,60.4 2885.52,66.16 Z M3000.88,80.56 L2969.44,52.48 L2969.44,80.56 L2950.8,80.56 L2950.8,21.04 L2969.44,21.04 L2969.44,45.84 L2999.92,21.04 L3023.6,21.04 L2989.36,48.24 L3025.2,80.56 L3000.88,80.56 Z M3086.32,80.56 L3086.32,41.28 L3046.4,80.56 L3027.76,80.56 L3027.76,21.04 L3046.4,21.04 L3046.4,60.48 L3086.32,21.04 L3104.96,21.04 L3104.96,80.56 L3086.32,80.56 Z M3218.88,57.44 C3218.88,64.96 3213.04,81.6 3178.96,81.6 L3175.68,81.6 C3141.2,81.6 3135.84,62.4 3135.84,51.76 L3135.84,49.44 C3135.84,38.64 3140.56,20 3175.68,20 L3178.96,20 C3213.52,20 3218.72,36.48 3218.8,43.44 L3218.8,44.32 L3199.04,44.32 C3198.56,42.72 3196.24,34.4 3177.28,34.4 C3159.44,34.4 3155.36,42.4 3155.36,49.84 L3155.36,50.8 C3155.36,57.76 3160.08,67.12 3177.44,67.12 C3196.72,67.12 3198.72,57.92 3199.12,56.56 L3218.88,56.56 L3218.88,57.44 Z M3274.96,80.56 L3243.52,52.48 L3243.52,80.56 L3224.88,80.56 L3224.88,21.04 L3243.52,21.04 L3243.52,45.84 L3274,21.04 L3297.68,21.04 L3263.44,48.24 L3299.28,80.56 L3274.96,80.56 Z M3360.4,80.56 L3360.4,41.28 L3320.48,80.56 L3301.84,80.56 L3301.84,21.04 L3320.48,21.04 L3320.48,60.48 L3360.4,21.04 L3379.04,21.04 L3379.04,80.56 L3360.4,80.56 Z M3391.36,66.16 C3394.4,60 3394.8,46.72 3394.8,21.04 L3459.12,21.04 L3459.12,66.16 L3468.72,66.16 L3468.72,90.56 L3450.88,90.56 L3450.88,80.56 L3401.6,80.56 L3401.6,90.56 L3383.76,90.56 L3383.76,66.16 L3391.36,66.16 Z M3408.16,66.16 L3440.48,66.16 L3440.48,35.44 L3411.28,35.44 C3411.28,47.68 3410.64,60.4 3408.16,66.16 Z M3523.52,80.56 L3492.08,52.48 L3492.08,80.56 L3473.44,80.56 L3473.44,21.04 L3492.08,21.04 L3492.08,45.84 L3522.56,21.04 L3546.24,21.04 L3512,48.24 L3547.84,80.56 L3523.52,80.56 Z M3608.96,80.56 L3608.96,41.28 L3569.04,80.56 L3550.4,80.56 L3550.4,21.04 L3569.04,21.04 L3569.04,60.48 L3608.96,21.04 L3627.6,21.04 L3627.6,80.56 L3608.96,80.56 Z M3741.52,57.44 C3741.52,64.96 3735.68,81.6 3701.6,81.6 L3698.32,81.6 C3663.84,81.6 3658.48,62.4 3658.48,51.76 L3658.48,49.44 C3658.48,38.64 3663.2,20 3698.32,20 L3701.6,20 C3736.16,20 3741.36,36.48 3741.44,43.44 L3741.44,44.32 L3721.68,44.32 C3721.2,42.72 3718.88,34.4 3699.92,34.4 C3682.08,34.4 3678,42.4 3678,49.84 L3678,50.8 C3678,57.76 3682.72,67.12 3700.08,67.12 C3719.36,67.12 3721.36,57.92 3721.76,56.56 L3741.52,56.56 L3741.52,57.44 Z M3797.6,80.56 L3766.16,52.48 L3766.16,80.56 L3747.52,80.56 L3747.52,21.04 L3766.16,21.04 L3766.16,45.84 L3796.64,21.04 L3820.32,21.04 L3786.08,48.24 L3821.92,80.56 L3797.6,80.56 Z M3883.04,80.56 L3883.04,41.28 L3843.12,80.56 L3824.48,80.56 L3824.48,21.04 L3843.12,21.04 L3843.12,60.48 L3883.04,21.04 L3901.68,21.04 L3901.68,80.56 L3883.04,80.56 Z M3914,66.16 C3917.04,60 3917.44,46.72 3917.44,21.04 L3981.76,21.04 L3981.76,66.16 L3991.36,66.16 L3991.36,90.56 L3973.52,90.56 L3973.52,80.56 L3924.24,80.56 L3924.24,90.56 L3906.4,90.56 L3906.4,66.16 L3914,66.16 Z M3930.8,66.16 L3963.12,66.16 L3963.12,35.44 L3933.92,35.44 C3933.92,47.68 3933.28,60.4 3930.8,66.16 Z M4046.16,80.56 L4014.72,52.48 L4014.72,80.56 L3996.08,80.56 L3996.08,21.04 L4014.72,21.04 L4014.72,45.84 L4045.2,21.04 L4068.88,21.04 L4034.64,48.24 L4070.48,80.56 L4046.16,80.56 Z M4131.6,80.56 L4131.6,41.28 L4091.68,80.56 L4073.04,80.56 L4073.04,21.04 L4091.68,21.04 L4091.68,60.48 L4131.6,21.04 L4150.24,21.04 L4150.24,80.56 L4131.6,80.56 Z"/>
  </g>
</svg>
