<svg xmlns="http://www.w3.org/2000/svg" width="4100" height="102" viewBox="0 0 4100 102">
  <g fill="none" fill-rule="evenodd">
    <rect width="4100" height="102" fill="#000"/>
    <path fill="#FFF" fill-rule="nonzero" d="M48.24,67.32 C42.24,77.32 39.92,81.08 28.48,81.08 L16.8,81.08 L16.8,66.68 L27.28,66.68 C28.96,66.68 29.36,66.12 29.36,65.4 L29.36,65.32 C29.36,64.36 28.8,63.56 28.08,62.52 L2.27373675e-13,21.56 L21.6,21.56 L40.08,50.44 L56.88,21.56 L75.6,21.56 L48.24,67.32 Z M158.72,57.96 C158.72,65.48 152.88,82.12 118.8,82.12 L115.52,82.12 C81.04,82.12 75.68,62.92 75.68,52.28 L75.68,49.96 C75.68,39.16 80.4,20.52 115.52,20.52 L118.8,20.52 C153.36,20.52 158.56,37 158.64,43.96 L158.64,44.84 L138.88,44.84 C138.4,43.24 136.08,34.92 117.12,34.92 C99.28,34.92 95.2,42.92 95.2,50.36 L95.2,51.32 C95.2,58.28 99.92,67.64 117.28,67.64 C136.56,67.64 138.56,58.44 138.96,57.08 L158.72,57.08 L158.72,57.96 Z M164.72,81.08 L164.72,21.56 L238.72,21.56 L238.72,81.08 L220.08,81.08 L220.08,35.96 L183.36,35.96 L183.36,81.08 L164.72,81.08 Z M247.36,21.56 L310.08,21.56 L310.08,35.08 L265.76,35.08 L265.76,43.88 L309.04,43.88 L309.04,57.48 L265.76,57.48 L265.76,67.24 L310.88,67.24 L310.88,81.08 L247.36,81.08 L247.36,21.56 Z M376.72,81.08 L376.72,41.8 L336.8,81.08 L318.16,81.08 L318.16,21.56 L336.8,21.56 L336.8,61 L376.72,21.56 L395.36,21.56 L395.36,81.08 L376.72,81.08 Z M375.6,5.16 C375.6,9.16 371.76,18.12 358.48,18.12 L355.76,18.12 C341.2,18.12 338.4,9.16 338.4,5.16 L338.4,5 L352.16,5 C352.24,6.04 352.8,8.84 357.2,8.84 C361.44,8.84 362.08,6.04 362.16,5 L375.6,5 L375.6,5.16 Z M478.72,81.08 L447.28,53 L447.28,81.08 L428.64,81.08 L428.64,21.56 L447.28,21.56 L447.28,46.36 L477.76,21.56 L501.44,21.56 L467.2,48.76 L503.04,81.08 L478.72,81.08 Z M547.68,67.32 C541.68,77.32 539.36,81.08 527.92,81.08 L516.24,81.08 L516.24,66.68 L526.72,66.68 C528.4,66.68 528.8,66.12 528.8,65.4 L528.8,65.32 C528.8,64.36 528.24,63.56 527.52,62.52 L499.44,21.56 L521.04,21.56 L539.52,50.44 L556.32,21.56 L575.04,21.56 L547.68,67.32 Z M577.52,81.08 L577.52,21.56 L651.52,21.56 L651.52,81.08 L632.88,81.08 L632.88,35.96 L596.16,35.96 L596.16,81.08 L577.52,81.08 Z M718.72,81.08 L718.72,41.8 L678.8,81.08 L660.16,81.08 L660.16,21.56 L678.8,21.56 L678.8,61 L718.72,21.56 L737.36,21.56 L737.36,81.08 L718.72,81.08 Z M743.68,35.64 L743.68,21.56 L813.76,21.56 L813.76,35.64 L788.08,35.64 L788.08,81.08 L769.28,81.08 L769.28,35.64 L743.68,35.64 Z M861.92,39.8 C886.48,39.8 892.4,48.92 892.4,59.96 L892.4,60.76 C892.4,71.88 886.64,81.08 861.84,81.08 L820.08,81.08 L820.08,21.56 L838.72,21.56 L838.72,39.8 L861.92,39.8 Z M838.72,67.64 L861.36,67.64 C870.48,67.64 872.96,64.36 872.96,60.44 L872.96,60.2 C872.96,56.2 870.48,53.16 861.36,53.16 L838.72,53.16 L838.72,67.64 Z M964.8,67.32 C958.8,77.32 956.48,81.08 945.04,81.08 L933.36,81.08 L933.36,66.68 L943.84,66.68 C945.52,66.68 945.92,66.12 945.92,65.4 L945.92,65.32 C945.92,64.36 945.36,63.56 944.64,62.52 L916.56,21.56 L938.16,21.56 L956.64,50.44 L973.44,21.56 L992.16,21.56 L964.8,67.32 Z M1075.28,57.96 C1075.28,65.48 1069.44,82.12 1035.36,82.12 L1032.08,82.12 C997.6,82.12 992.24,62.92 992.24,52.28 L992.24,49.96 C992.24,39.16 996.96,20.52 1032.08,20.52 L1035.36,20.52 C1069.92,20.52 1075.12,37 1075.2,43.96 L1075.2,44.84 L1055.44,44.84 C1054.96,43.24 1052.64,34.92 1033.68,34.92 C1015.84,34.92 1011.76,42.92 1011.76,50.36 L1011.76,51.32 C1011.76,58.28 1016.48,67.64 1033.84,67.64 C1053.12,67.64 1055.12,58.44 1055.52,57.08 L1075.28,57.08 L1075.28,57.96 Z M1081.28,81.08 L1081.28,21.56 L1155.28,21.56 L1155.28,81.08 L1136.64,81.08 L1136.64,35.96 L1099.92,35.96 L1099.92,81.08 L1081.28,81.08 Z M1163.92,21.56 L1226.64,21.56 L1226.64,35.08 L1182.32,35.08 L1182.32,43.88 L1225.6,43.88 L1225.6,57.48 L1182.32,57.48 L1182.32,67.24 L1227.44,67.24 L1227.44,81.08 L1163.92,81.08 L1163.92,21.56 Z M1293.28,81.08 L1293.28,41.8 L1253.36,81.08 L1234.72,81.08 L1234.72,21.56 L1253.36,21.56 L1253.36,61 L1293.28,21.56 L1311.92,21.56 L1311.92,81.08 L1293.28,81.08 Z M1292.16,5.16 C1292.16,9.16 1288.32,18.12 1275.04,18.12 L1272.32,18.12 C1257.76,18.12 1254.96,9.16 1254.96,5.16 L1254.96,5 L1268.72,5 C1268.8,6.04 1269.36,8.84 1273.76,8.84 C1278,8.84 1278.64,6.04 1278.72,5 L1292.16,5 L1292.16,5.16 Z M1395.28,81.08 L1363.84,53 L1363.84,81.08 L1345.2,81.08 L1345.2,21.56 L1363.84,21.56 L1363.84,46.36 L1394.32,21.56 L1418,21.56 L1383.76,48.76 L1419.6,81.08 L1395.28,81.08 Z M1464.24,67.32 C1458.24,77.32 1455.92,81.08 1444.48,81.08 L1432.8,81.08 L1432.8,66.68 L1443.28,66.68 C1444.96,66.68 1445.36,66.12 1445.36,65.4 L1445.36,65.32 C1445.36,64.36 1444.8,63.56 1444.08,62.52 L1416,21.56 L1437.6,21.56 L1456.08,50.44 L1472.88,21.56 L1491.6,21.56 L1464.24,67.32 Z M1494.08,81.08 L1494.08,21.56 L1568.08,21.56 L1568.08,81.08 L1549.44,81.08 L1549.44,35.96 L1512.72,35.96 L1512.72,81.08 L1494.08,81.08 Z M1635.28,81.08 L1635.28,41.8 L1595.36,81.08 L1576.72,81.08 L1576.72,21.56 L1595.36,21.56 L1595.36,61 L1635.28,21.56 L1653.92,21.56 L1653.92,81.08 L1635.28,81.08 Z M1660.24,35.64 L1660.24,21.56 L1730.32,21.56 L1730.32,35.64 L1704.64,35.64 L1704.64,81.08 L1685.84,81.08 L1685.84,35.64 L1660.24,35.64 Z M1778.48,39.8 C1803.04,39.8 1808.96,48.92 1808.96,59.96 L1808.96,60.76 C1808.96,71.88 1803.2,81.08 1778.4,81.08 L1736.64,81.08 L1736.64,21.56 L1755.28,21.56 L1755.28,39.8 L1778.48,39.8 Z M1755.28,67.64 L1777.92,67.64 C1787.04,67.64 1789.52,64.36 1789.52,60.44 L1789.52,60.2 C1789.52,56.2 1787.04,53.16 1777.92,53.16 L1755.28,53.16 L1755.28,67.64 Z M1881.36,67.32 C1875.36,77.32 1873.04,81.08 1861.6,81.08 L1849.92,81.08 L1849.92,66.68 L1860.4,66.68 C1862.08,66.68 1862.48,66.12 1862.48,65.4 L1862.48,65.32 C1862.48,64.36 1861.92,63.56 1861.2,62.52 L1833.12,21.56 L1854.72,21.56 L1873.2,50.44 L1890,21.56 L1908.72,21.56 L1881.36,67.32 Z M1991.84,57.96 C1991.84,65.48 1986,82.12 1951.92,82.12 L1948.64,82.12 C1914.16,82.12 1908.8,62.92 1908.8,52.28 L1908.8,49.96 C1908.8,39.16 1913.52,20.52 1948.64,20.52 L1951.92,20.52 C1986.48,20.52 1991.68,37 1991.76,43.96 L1991.76,44.84 L1972,44.84 C1971.52,43.24 1969.2,34.92 1950.24,34.92 C1932.4,34.92 1928.32,42.92 1928.32,50.36 L1928.32,51.32 C1928.32,58.28 1933.04,67.64 1950.4,67.64 C1969.68,67.64 1971.68,58.44 1972.08,57.08 L1991.84,57.08 L1991.84,57.96 Z M1997.84,81.08 L1997.84,21.56 L2071.84,21.56 L2071.84,81.08 L2053.2,81.08 L2053.2,35.96 L2016.48,35.96 L2016.48,81.08 L1997.84,81.08 Z M2080.48,21.56 L2143.2,21.56 L2143.2,35.08 L2098.88,35.08 L2098.88,43.88 L2142.16,43.88 L2142.16,57.48 L2098.88,57.48 L2098.88,67.24 L2144,67.24 L2144,81.08 L2080.48,81.08 L2080.48,21.56 Z M2209.84,81.08 L2209.84,41.8 L2169.92,81.08 L2151.28,81.08 L2151.28,21.56 L2169.92,21.56 L2169.92,61 L2209.84,21.56 L2228.48,21.56 L2228.48,81.08 L2209.84,81.08 Z M2208.72,5.16 C2208.72,9.16 2204.88,18.12 2191.6,18.12 L2188.88,18.12 C2174.32,18.12 2171.52,9.16 2171.52,5.16 L2171.52,5 L2185.28,5 C2185.36,6.04 2185.92,8.84 2190.32,8.84 C2194.56,8.84 2195.2,6.04 2195.28,5 L2208.72,5 L2208.72,5.16 Z M2311.84,81.08 L2280.4,53 L2280.4,81.08 L2261.76,81.08 L2261.76,21.56 L2280.4,21.56 L2280.4,46.36 L2310.88,21.56 L2334.56,21.56 L2300.32,48.76 L2336.16,81.08 L2311.84,81.08 Z M2380.8,67.32 C2374.8,77.32 2372.48,81.08 2361.04,81.08 L2349.36,81.08 L2349.36,66.68 L2359.84,66.68 C2361.52,66.68 2361.92,66.12 2361.92,65.4 L2361.92,65.32 C2361.92,64.36 2361.36,63.56 2360.64,62.52 L2332.56,21.56 L2354.16,21.56 L2372.64,50.44 L2389.44,21.56 L2408.16,21.56 L2380.8,67.32 Z M2410.64,81.08 L2410.64,21.56 L2484.64,21.56 L2484.64,81.08 L2466,81.08 L2466,35.96 L2429.28,35.96 L2429.28,81.08 L2410.64,81.08 Z M2551.84,81.08 L2551.84,41.8 L2511.92,81.08 L2493.28,81.08 L2493.28,21.56 L2511.92,21.56 L2511.92,61 L2551.84,21.56 L2570.48,21.56 L2570.48,81.08 L2551.84,81.08 Z M2576.8,35.64 L2576.8,21.56 L2646.88,21.56 L2646.88,35.64 L2621.2,35.64 L2621.2,81.08 L2602.4,81.08 L2602.4,35.64 L2576.8,35.64 Z M2695.04,39.8 C2719.6,39.8 2725.52,48.92 2725.52,59.96 L2725.52,60.76 C2725.52,71.88 2719.76,81.08 2694.96,81.08 L2653.2,81.08 L2653.2,21.56 L2671.84,21.56 L2671.84,39.8 L2695.04,39.8 Z M2671.84,67.64 L2694.48,67.64 C2703.6,67.64 2706.08,64.36 2706.08,60.44 L2706.08,60.2 C2706.08,56.2 2703.6,53.16 2694.48,53.16 L2671.84,53.16 L2671.84,67.64 Z M2797.92,67.32 C2791.92,77.32 2789.6,81.08 2778.16,81.08 L2766.48,81.08 L2766.48,66.68 L2776.96,66.68 C2778.64,66.68 2779.04,66.12 2779.04,65.4 L2779.04,65.32 C2779.04,64.36 2778.48,63.56 2777.76,62.52 L2749.68,21.56 L2771.28,21.56 L2789.76,50.44 L2806.56,21.56 L2825.28,21.56 L2797.92,67.32 Z M2908.4,57.96 C2908.4,65.48 2902.56,82.12 2868.48,82.12 L2865.2,82.12 C2830.72,82.12 2825.36,62.92 2825.36,52.28 L2825.36,49.96 C2825.36,39.16 2830.08,20.52 2865.2,20.52 L2868.48,20.52 C2903.04,20.52 2908.24,37 2908.32,43.96 L2908.32,44.84 L2888.56,44.84 C2888.08,43.24 2885.76,34.92 2866.8,34.92 C2848.96,34.92 2844.88,42.92 2844.88,50.36 L2844.88,51.32 C2844.88,58.28 2849.6,67.64 2866.96,67.64 C2886.24,67.64 2888.24,58.44 2888.64,57.08 L2908.4,57.08 L2908.4,57.96 Z M2914.4,81.08 L2914.4,21.56 L2988.4,21.56 L2988.4,81.08 L2969.76,81.08 L2969.76,35.96 L2933.04,35.96 L2933.04,81.08 L2914.4,81.08 Z M2997.04,21.56 L3059.76,21.56 L3059.76,35.08 L3015.44,35.08 L3015.44,43.88 L3058.72,43.88 L3058.72,57.48 L3015.44,57.48 L3015.44,67.24 L3060.56,67.24 L3060.56,81.08 L2997.04,81.08 L2997.04,21.56 Z M3126.4,81.08 L3126.4,41.8 L3086.48,81.08 L3067.84,81.08 L3067.84,21.56 L3086.48,21.56 L3086.48,61 L3126.4,21.56 L3145.04,21.56 L3145.04,81.08 L3126.4,81.08 Z M3125.28,5.16 C3125.28,9.16 3121.44,18.12 3108.16,18.12 L3105.44,18.12 C3090.88,18.12 3088.08,9.16 3088.08,5.16 L3088.08,5 L3101.84,5 C3101.92,6.04 3102.48,8.84 3106.88,8.84 C3111.12,8.84 3111.76,6.04 3111.84,5 L3125.28,5 L3125.28,5.16 Z M3228.4,81.08 L3196.96,53 L3196.96,81.08 L3178.32,81.08 L3178.32,21.56 L3196.96,21.56 L3196.96,46.36 L3227.44,21.56 L3251.12,21.56 L3216.88,48.76 L3252.72,81.08 L3228.4,81.08 Z M3297.36,67.32 C3291.36,77.32 3289.04,81.08 3277.6,81.08 L3265.92,81.08 L3265.92,66.68 L3276.4,66.68 C3278.08,66.68 3278.48,66.12 3278.48,65.4 L3278.48,65.32 C3278.48,64.36 3277.92,63.56 3277.2,62.52 L3249.12,21.56 L3270.72,21.56 L3289.2,50.44 L3306,21.56 L3324.72,21.56 L3297.36,67.32 Z M3327.2,81.08 L3327.2,21.56 L3401.2,21.56 L3401.2,81.08 L3382.56,81.08 L3382.56,35.96 L3345.84,35.96 L3345.84,81.08 L3327.2,81.08 Z M3468.4,81.08 L3468.4,41.8 L3428.48,81.08 L3409.84,81.08 L3409.84,21.56 L3428.48,21.56 L3428.48,61 L3468.4,21.56 L3487.04,21.56 L3487.04,81.08 L3468.4,81.08 Z M3493.36,35.64 L3493.36,21.56 L3563.44,21.56 L3563.44,35.64 L3537.76,35.64 L3537.76,81.08 L3518.96,81.08 L3518.96,35.64 L3493.36,35.64 Z M3611.6,39.8 C3636.16,39.8 3642.08,48.92 3642.08,59.96 L3642.08,60.76 C3642.08,71.88 3636.32,81.08 3611.52,81.08 L3569.76,81.08 L3569.76,21.56 L3588.4,21.56 L3588.4,39.8 L3611.6,39.8 Z M3588.4,67.64 L3611.04,67.64 C3620.16,67.64 3622.64,64.36 3622.64,60.44 L3622.64,60.2 C3622.64,56.2 3620.16,53.16 3611.04,53.16 L3588.4,53.16 L3588.4,67.64 Z M3714.48,67.32 C3708.48,77.32 3706.16,81.08 3694.72,81.08 L3683.04,81.08 L3683.04,66.68 L3693.52,66.68 C3695.2,66.68 3695.6,66.12 3695.6,65.4 L3695.6,65.32 C3695.6,64.36 3695.04,63.56 3694.32,62.52 L3666.24,21.56 L3687.84,21.56 L3706.32,50.44 L3723.12,21.56 L3741.84,21.56 L3714.48,67.32 Z M3824.96,57.96 C3824.96,65.48 3819.12,82.12 3785.04,82.12 L3781.76,82.12 C3747.28,82.12 3741.92,62.92 3741.92,52.28 L3741.92,49.96 C3741.92,39.16 3746.64,20.52 3781.76,20.52 L3785.04,20.52 C3819.6,20.52 3824.8,37 3824.88,43.96 L3824.88,44.84 L3805.12,44.84 C3804.64,43.24 3802.32,34.92 3783.36,34.92 C3765.52,34.92 3761.44,42.92 3761.44,50.36 L3761.44,51.32 C3761.44,58.28 3766.16,67.64 3783.52,67.64 C3802.8,67.64 3804.8,58.44 3805.2,57.08 L3824.96,57.08 L3824.96,57.96 Z M3830.96,81.08 L3830.96,21.56 L3904.96,21.56 L3904.96,81.08 L3886.32,81.08 L3886.32,35.96 L3849.6,35.96 L3849.6,81.08 L3830.96,81.08 Z M3913.6,21.56 L3976.32,21.56 L3976.32,35.08 L3932,35.08 L3932,43.88 L3975.28,43.88 L3975.28,57.48 L3932,57.48 L3932,67.24 L3977.12,67.24 L3977.12,81.08 L3913.6,81.08 L3913.6,21.56 Z M4042.96,81.08 L4042.96,41.8 L4003.04,81.08 L3984.4,81.08 L3984.4,21.56 L4003.04,21.56 L4003.04,61 L4042.96,21.56 L4061.6,21.56 L4061.6,81.08 L4042.96,81.08 Z M4041.84,5.16 C4041.84,9.16 4038,18.12 4024.72,18.12 L4022,18.12 C4007.44,18.12 4004.64,9.16 4004.64,5.16 L4004.64,5 L4018.4,5 C4018.48,6.04 4019.04,8.84 4023.44,8.84 C4027.68,8.84 4028.32,6.04 4028.4,5 L4041.84,5 L4041.84,5.16 Z"/>
  </g>
</svg>
