<svg xmlns="http://www.w3.org/2000/svg" width="5170" height="102" viewBox="0 0 5170 102">
  <g fill="none" fill-rule="evenodd">
    <rect width="5170" height="102" fill="#000"/>
    <path fill="#FFF" fill-rule="nonzero" d="M18.64,59.44 L18.64,80.56 L0,80.56 L0,21.04 L48,21.04 C67.84,21.04 73.84,27.92 73.84,36.48 L73.84,37.44 C73.84,45.92 66.72,49.28 62.8,50.48 C68.88,52.08 74.08,56.56 74.08,64.16 L74.08,72.88 C74.08,77.68 74.72,79.2 75.2,80.16 L75.2,80.56 L56.24,80.56 C55.68,79.84 55.36,78.88 55.36,76.8 L55.36,69.92 C55.36,62.64 52.16,59.44 42.96,59.44 L18.64,59.44 Z M18.64,34.56 L18.64,46.24 L46.88,46.24 C52.16,46.24 54.4,43.68 54.4,40.4 L54.4,40.32 C54.4,37.2 52.32,34.56 46.88,34.56 L18.64,34.56 Z M80.96,21.04 L143.68,21.04 L143.68,34.56 L99.36,34.56 L99.36,43.36 L142.64,43.36 L142.64,56.96 L99.36,56.96 L99.36,66.72 L144.48,66.72 L144.48,80.56 L80.96,80.56 L80.96,21.04 Z M151.76,80.56 L151.76,21.04 L202.72,21.04 C219.76,21.04 224.48,27.6 224.48,34.64 L224.48,35.76 C224.48,43.44 217.92,46.56 215.04,47.36 C219.12,48.4 227.84,51.92 227.84,62.32 L227.84,63.44 C227.84,72.88 222.48,80.56 203.2,80.56 L151.76,80.56 Z M199.52,33.6 L170.4,33.6 L170.4,43.28 L199.52,43.28 C204.72,43.28 206,40.88 206,38.48 L206,38.32 C206,35.84 204.72,33.6 199.52,33.6 Z M201.12,55.92 L170.4,55.92 L170.4,67.6 L201.12,67.6 C207.36,67.6 208.48,64.16 208.48,61.76 L208.48,61.44 C208.48,58.88 207.28,55.92 201.12,55.92 Z M293.44,80.56 L287.84,69.68 L251.76,69.68 L246.4,80.56 L227.44,80.56 L257.52,21.04 L281.68,21.04 L313.52,80.56 L293.44,80.56 Z M258.4,56.24 L280.96,56.24 L269.44,33.92 L258.4,56.24 Z M379.6,52.4 C379.6,64.72 373.76,81.44 348.4,81.44 L343.92,81.44 C319.12,81.44 312.32,66.96 312.32,55.68 L312.32,55.2 L331.2,55.2 C331.44,57.84 332.72,66.64 345.6,66.64 L346.56,66.64 C356.32,66.64 360.88,60.96 360.88,51.92 L360.88,21.04 L379.6,21.04 L379.6,52.4 Z M447.68,80.56 L442.08,69.68 L406,69.68 L400.64,80.56 L381.68,80.56 L411.76,21.04 L435.92,21.04 L467.76,80.56 L447.68,80.56 Z M412.64,56.24 L435.2,56.24 L423.68,33.92 L412.64,56.24 Z M542.72,61.68 C542.72,71.52 537.76,81.6 507.84,81.6 L502.32,81.6 C471.12,81.6 467.52,68.16 467.52,60.32 L467.52,59.44 L486.96,59.44 C487.2,62.96 489.28,68.88 504.64,68.88 L505.76,68.88 C521.44,68.88 523.2,65.76 523.2,62.56 C523.2,59.12 521.36,56.88 507.6,56.56 L497.36,56.32 C475.12,55.68 468.32,48.16 468.32,38.88 L468.32,38.16 C468.32,29.28 473.68,20 500.72,20 L506.24,20 C534.4,20 540.8,29.84 540.8,38.8 L540.8,39.6 L521.44,39.6 C521.12,37.28 519.76,32.48 504.24,32.48 L502.96,32.48 C488.56,32.48 487.52,35.12 487.52,37.6 C487.52,40.08 489.04,42.56 501.28,42.72 L511.28,42.88 C533.68,43.36 542.72,48.72 542.72,60.56 L542.72,61.68 Z M591.84,59.44 L591.84,80.56 L573.2,80.56 L573.2,21.04 L621.2,21.04 C641.04,21.04 647.04,27.92 647.04,36.48 L647.04,37.44 C647.04,45.92 639.92,49.28 636,50.48 C642.08,52.08 647.28,56.56 647.28,64.16 L647.28,72.88 C647.28,77.68 647.92,79.2 648.4,80.16 L648.4,80.56 L629.44,80.56 C628.88,79.84 628.56,78.88 628.56,76.8 L628.56,69.92 C628.56,62.64 625.36,59.44 616.16,59.44 L591.84,59.44 Z M591.84,34.56 L591.84,46.24 L620.08,46.24 C625.36,46.24 627.6,43.68 627.6,40.4 L627.6,40.32 C627.6,37.2 625.52,34.56 620.08,34.56 L591.84,34.56 Z M654.16,21.04 L716.88,21.04 L716.88,34.56 L672.56,34.56 L672.56,43.36 L715.84,43.36 L715.84,56.96 L672.56,56.96 L672.56,66.72 L717.68,66.72 L717.68,80.56 L654.16,80.56 L654.16,21.04 Z M724.96,80.56 L724.96,21.04 L775.92,21.04 C792.96,21.04 797.68,27.6 797.68,34.64 L797.68,35.76 C797.68,43.44 791.12,46.56 788.24,47.36 C792.32,48.4 801.04,51.92 801.04,62.32 L801.04,63.44 C801.04,72.88 795.68,80.56 776.4,80.56 L724.96,80.56 Z M772.72,33.6 L743.6,33.6 L743.6,43.28 L772.72,43.28 C777.92,43.28 779.2,40.88 779.2,38.48 L779.2,38.32 C779.2,35.84 777.92,33.6 772.72,33.6 Z M774.32,55.92 L743.6,55.92 L743.6,67.6 L774.32,67.6 C780.56,67.6 781.68,64.16 781.68,61.76 L781.68,61.44 C781.68,58.88 780.48,55.92 774.32,55.92 Z M866.64,80.56 L861.04,69.68 L824.96,69.68 L819.6,80.56 L800.64,80.56 L830.72,21.04 L854.88,21.04 L886.72,80.56 L866.64,80.56 Z M831.6,56.24 L854.16,56.24 L842.64,33.92 L831.6,56.24 Z M952.8,52.4 C952.8,64.72 946.96,81.44 921.6,81.44 L917.12,81.44 C892.32,81.44 885.52,66.96 885.52,55.68 L885.52,55.2 L904.4,55.2 C904.64,57.84 905.92,66.64 918.8,66.64 L919.76,66.64 C929.52,66.64 934.08,60.96 934.08,51.92 L934.08,21.04 L952.8,21.04 L952.8,52.4 Z M1020.88,80.56 L1015.28,69.68 L979.2,69.68 L973.84,80.56 L954.88,80.56 L984.96,21.04 L1009.12,21.04 L1040.96,80.56 L1020.88,80.56 Z M985.84,56.24 L1008.4,56.24 L996.88,33.92 L985.84,56.24 Z M1115.92,61.68 C1115.92,71.52 1110.96,81.6 1081.04,81.6 L1075.52,81.6 C1044.32,81.6 1040.72,68.16 1040.72,60.32 L1040.72,59.44 L1060.16,59.44 C1060.4,62.96 1062.48,68.88 1077.84,68.88 L1078.96,68.88 C1094.64,68.88 1096.4,65.76 1096.4,62.56 C1096.4,59.12 1094.56,56.88 1080.8,56.56 L1070.56,56.32 C1048.32,55.68 1041.52,48.16 1041.52,38.88 L1041.52,38.16 C1041.52,29.28 1046.88,20 1073.92,20 L1079.44,20 C1107.6,20 1114,29.84 1114,38.8 L1114,39.6 L1094.64,39.6 C1094.32,37.28 1092.96,32.48 1077.44,32.48 L1076.16,32.48 C1061.76,32.48 1060.72,35.12 1060.72,37.6 C1060.72,40.08 1062.24,42.56 1074.48,42.72 L1084.48,42.88 C1106.88,43.36 1115.92,48.72 1115.92,60.56 L1115.92,61.68 Z M1165.04,59.44 L1165.04,80.56 L1146.4,80.56 L1146.4,21.04 L1194.4,21.04 C1214.24,21.04 1220.24,27.92 1220.24,36.48 L1220.24,37.44 C1220.24,45.92 1213.12,49.28 1209.2,50.48 C1215.28,52.08 1220.48,56.56 1220.48,64.16 L1220.48,72.88 C1220.48,77.68 1221.12,79.2 1221.6,80.16 L1221.6,80.56 L1202.64,80.56 C1202.08,79.84 1201.76,78.88 1201.76,76.8 L1201.76,69.92 C1201.76,62.64 1198.56,59.44 1189.36,59.44 L1165.04,59.44 Z M1165.04,34.56 L1165.04,46.24 L1193.28,46.24 C1198.56,46.24 1200.8,43.68 1200.8,40.4 L1200.8,40.32 C1200.8,37.2 1198.72,34.56 1193.28,34.56 L1165.04,34.56 Z M1227.36,21.04 L1290.08,21.04 L1290.08,34.56 L1245.76,34.56 L1245.76,43.36 L1289.04,43.36 L1289.04,56.96 L1245.76,56.96 L1245.76,66.72 L1290.88,66.72 L1290.88,80.56 L1227.36,80.56 L1227.36,21.04 Z M1298.16,80.56 L1298.16,21.04 L1349.12,21.04 C1366.16,21.04 1370.88,27.6 1370.88,34.64 L1370.88,35.76 C1370.88,43.44 1364.32,46.56 1361.44,47.36 C1365.52,48.4 1374.24,51.92 1374.24,62.32 L1374.24,63.44 C1374.24,72.88 1368.88,80.56 1349.6,80.56 L1298.16,80.56 Z M1345.92,33.6 L1316.8,33.6 L1316.8,43.28 L1345.92,43.28 C1351.12,43.28 1352.4,40.88 1352.4,38.48 L1352.4,38.32 C1352.4,35.84 1351.12,33.6 1345.92,33.6 Z M1347.52,55.92 L1316.8,55.92 L1316.8,67.6 L1347.52,67.6 C1353.76,67.6 1354.88,64.16 1354.88,61.76 L1354.88,61.44 C1354.88,58.88 1353.68,55.92 1347.52,55.92 Z M1439.84,80.56 L1434.24,69.68 L1398.16,69.68 L1392.8,80.56 L1373.84,80.56 L1403.92,21.04 L1428.08,21.04 L1459.92,80.56 L1439.84,80.56 Z M1404.8,56.24 L1427.36,56.24 L1415.84,33.92 L1404.8,56.24 Z M1526,52.4 C1526,64.72 1520.16,81.44 1494.8,81.44 L1490.32,81.44 C1465.52,81.44 1458.72,66.96 1458.72,55.68 L1458.72,55.2 L1477.6,55.2 C1477.84,57.84 1479.12,66.64 1492,66.64 L1492.96,66.64 C1502.72,66.64 1507.28,60.96 1507.28,51.92 L1507.28,21.04 L1526,21.04 L1526,52.4 Z M1594.08,80.56 L1588.48,69.68 L1552.4,69.68 L1547.04,80.56 L1528.08,80.56 L1558.16,21.04 L1582.32,21.04 L1614.16,80.56 L1594.08,80.56 Z M1559.04,56.24 L1581.6,56.24 L1570.08,33.92 L1559.04,56.24 Z M1689.12,61.68 C1689.12,71.52 1684.16,81.6 1654.24,81.6 L1648.72,81.6 C1617.52,81.6 1613.92,68.16 1613.92,60.32 L1613.92,59.44 L1633.36,59.44 C1633.6,62.96 1635.68,68.88 1651.04,68.88 L1652.16,68.88 C1667.84,68.88 1669.6,65.76 1669.6,62.56 C1669.6,59.12 1667.76,56.88 1654,56.56 L1643.76,56.32 C1621.52,55.68 1614.72,48.16 1614.72,38.88 L1614.72,38.16 C1614.72,29.28 1620.08,20 1647.12,20 L1652.64,20 C1680.8,20 1687.2,29.84 1687.2,38.8 L1687.2,39.6 L1667.84,39.6 C1667.52,37.28 1666.16,32.48 1650.64,32.48 L1649.36,32.48 C1634.96,32.48 1633.92,35.12 1633.92,37.6 C1633.92,40.08 1635.44,42.56 1647.68,42.72 L1657.68,42.88 C1680.08,43.36 1689.12,48.72 1689.12,60.56 L1689.12,61.68 Z M1738.24,59.44 L1738.24,80.56 L1719.6,80.56 L1719.6,21.04 L1767.6,21.04 C1787.44,21.04 1793.44,27.92 1793.44,36.48 L1793.44,37.44 C1793.44,45.92 1786.32,49.28 1782.4,50.48 C1788.48,52.08 1793.68,56.56 1793.68,64.16 L1793.68,72.88 C1793.68,77.68 1794.32,79.2 1794.8,80.16 L1794.8,80.56 L1775.84,80.56 C1775.28,79.84 1774.96,78.88 1774.96,76.8 L1774.96,69.92 C1774.96,62.64 1771.76,59.44 1762.56,59.44 L1738.24,59.44 Z M1738.24,34.56 L1738.24,46.24 L1766.48,46.24 C1771.76,46.24 1774,43.68 1774,40.4 L1774,40.32 C1774,37.2 1771.92,34.56 1766.48,34.56 L1738.24,34.56 Z M1800.56,21.04 L1863.28,21.04 L1863.28,34.56 L1818.96,34.56 L1818.96,43.36 L1862.24,43.36 L1862.24,56.96 L1818.96,56.96 L1818.96,66.72 L1864.08,66.72 L1864.08,80.56 L1800.56,80.56 L1800.56,21.04 Z M1871.36,80.56 L1871.36,21.04 L1922.32,21.04 C1939.36,21.04 1944.08,27.6 1944.08,34.64 L1944.08,35.76 C1944.08,43.44 1937.52,46.56 1934.64,47.36 C1938.72,48.4 1947.44,51.92 1947.44,62.32 L1947.44,63.44 C1947.44,72.88 1942.08,80.56 1922.8,80.56 L1871.36,80.56 Z M1919.12,33.6 L1890,33.6 L1890,43.28 L1919.12,43.28 C1924.32,43.28 1925.6,40.88 1925.6,38.48 L1925.6,38.32 C1925.6,35.84 1924.32,33.6 1919.12,33.6 Z M1920.72,55.92 L1890,55.92 L1890,67.6 L1920.72,67.6 C1926.96,67.6 1928.08,64.16 1928.08,61.76 L1928.08,61.44 C1928.08,58.88 1926.88,55.92 1920.72,55.92 Z M2013.04,80.56 L2007.44,69.68 L1971.36,69.68 L1966,80.56 L1947.04,80.56 L1977.12,21.04 L2001.28,21.04 L2033.12,80.56 L2013.04,80.56 Z M1978,56.24 L2000.56,56.24 L1989.04,33.92 L1978,56.24 Z M2099.2,52.4 C2099.2,64.72 2093.36,81.44 2068,81.44 L2063.52,81.44 C2038.72,81.44 2031.92,66.96 2031.92,55.68 L2031.92,55.2 L2050.8,55.2 C2051.04,57.84 2052.32,66.64 2065.2,66.64 L2066.16,66.64 C2075.92,66.64 2080.48,60.96 2080.48,51.92 L2080.48,21.04 L2099.2,21.04 L2099.2,52.4 Z M2167.28,80.56 L2161.68,69.68 L2125.6,69.68 L2120.24,80.56 L2101.28,80.56 L2131.36,21.04 L2155.52,21.04 L2187.36,80.56 L2167.28,80.56 Z M2132.24,56.24 L2154.8,56.24 L2143.28,33.92 L2132.24,56.24 Z M2262.32,61.68 C2262.32,71.52 2257.36,81.6 2227.44,81.6 L2221.92,81.6 C2190.72,81.6 2187.12,68.16 2187.12,60.32 L2187.12,59.44 L2206.56,59.44 C2206.8,62.96 2208.88,68.88 2224.24,68.88 L2225.36,68.88 C2241.04,68.88 2242.8,65.76 2242.8,62.56 C2242.8,59.12 2240.96,56.88 2227.2,56.56 L2216.96,56.32 C2194.72,55.68 2187.92,48.16 2187.92,38.88 L2187.92,38.16 C2187.92,29.28 2193.28,20 2220.32,20 L2225.84,20 C2254,20 2260.4,29.84 2260.4,38.8 L2260.4,39.6 L2241.04,39.6 C2240.72,37.28 2239.36,32.48 2223.84,32.48 L2222.56,32.48 C2208.16,32.48 2207.12,35.12 2207.12,37.6 C2207.12,40.08 2208.64,42.56 2220.88,42.72 L2230.88,42.88 C2253.28,43.36 2262.32,48.72 2262.32,60.56 L2262.32,61.68 Z M2311.44,59.44 L2311.44,80.56 L2292.8,80.56 L2292.8,21.04 L2340.8,21.04 C2360.64,21.04 2366.64,27.92 2366.64,36.48 L2366.64,37.44 C2366.64,45.92 2359.52,49.28 2355.6,50.48 C2361.68,52.08 2366.88,56.56 2366.88,64.16 L2366.88,72.88 C2366.88,77.68 2367.52,79.2 2368,80.16 L2368,80.56 L2349.04,80.56 C2348.48,79.84 2348.16,78.88 2348.16,76.8 L2348.16,69.92 C2348.16,62.64 2344.96,59.44 2335.76,59.44 L2311.44,59.44 Z M2311.44,34.56 L2311.44,46.24 L2339.68,46.24 C2344.96,46.24 2347.2,43.68 2347.2,40.4 L2347.2,40.32 C2347.2,37.2 2345.12,34.56 2339.68,34.56 L2311.44,34.56 Z M2373.76,21.04 L2436.48,21.04 L2436.48,34.56 L2392.16,34.56 L2392.16,43.36 L2435.44,43.36 L2435.44,56.96 L2392.16,56.96 L2392.16,66.72 L2437.28,66.72 L2437.28,80.56 L2373.76,80.56 L2373.76,21.04 Z M2444.56,80.56 L2444.56,21.04 L2495.52,21.04 C2512.56,21.04 2517.28,27.6 2517.28,34.64 L2517.28,35.76 C2517.28,43.44 2510.72,46.56 2507.84,47.36 C2511.92,48.4 2520.64,51.92 2520.64,62.32 L2520.64,63.44 C2520.64,72.88 2515.28,80.56 2496,80.56 L2444.56,80.56 Z M2492.32,33.6 L2463.2,33.6 L2463.2,43.28 L2492.32,43.28 C2497.52,43.28 2498.8,40.88 2498.8,38.48 L2498.8,38.32 C2498.8,35.84 2497.52,33.6 2492.32,33.6 Z M2493.92,55.92 L2463.2,55.92 L2463.2,67.6 L2493.92,67.6 C2500.16,67.6 2501.28,64.16 2501.28,61.76 L2501.28,61.44 C2501.28,58.88 2500.08,55.92 2493.92,55.92 Z M2586.24,80.56 L2580.64,69.68 L2544.56,69.68 L2539.2,80.56 L2520.24,80.56 L2550.32,21.04 L2574.48,21.04 L2606.32,80.56 L2586.24,80.56 Z M2551.2,56.24 L2573.76,56.24 L2562.24,33.92 L2551.2,56.24 Z M2672.4,52.4 C2672.4,64.72 2666.56,81.44 2641.2,81.44 L2636.72,81.44 C2611.92,81.44 2605.12,66.96 2605.12,55.68 L2605.12,55.2 L2624,55.2 C2624.24,57.84 2625.52,66.64 2638.4,66.64 L2639.36,66.64 C2649.12,66.64 2653.68,60.96 2653.68,51.92 L2653.68,21.04 L2672.4,21.04 L2672.4,52.4 Z M2740.48,80.56 L2734.88,69.68 L2698.8,69.68 L2693.44,80.56 L2674.48,80.56 L2704.56,21.04 L2728.72,21.04 L2760.56,80.56 L2740.48,80.56 Z M2705.44,56.24 L2728,56.24 L2716.48,33.92 L2705.44,56.24 Z M2835.52,61.68 C2835.52,71.52 2830.56,81.6 2800.64,81.6 L2795.12,81.6 C2763.92,81.6 2760.32,68.16 2760.32,60.32 L2760.32,59.44 L2779.76,59.44 C2780,62.96 2782.08,68.88 2797.44,68.88 L2798.56,68.88 C2814.24,68.88 2816,65.76 2816,62.56 C2816,59.12 2814.16,56.88 2800.4,56.56 L2790.16,56.32 C2767.92,55.68 2761.12,48.16 2761.12,38.88 L2761.12,38.16 C2761.12,29.28 2766.48,20 2793.52,20 L2799.04,20 C2827.2,20 2833.6,29.84 2833.6,38.8 L2833.6,39.6 L2814.24,39.6 C2813.92,37.28 2812.56,32.48 2797.04,32.48 L2795.76,32.48 C2781.36,32.48 2780.32,35.12 2780.32,37.6 C2780.32,40.08 2781.84,42.56 2794.08,42.72 L2804.08,42.88 C2826.48,43.36 2835.52,48.72 2835.52,60.56 L2835.52,61.68 Z M2884.64,59.44 L2884.64,80.56 L2866,80.56 L2866,21.04 L2914,21.04 C2933.84,21.04 2939.84,27.92 2939.84,36.48 L2939.84,37.44 C2939.84,45.92 2932.72,49.28 2928.8,50.48 C2934.88,52.08 2940.08,56.56 2940.08,64.16 L2940.08,72.88 C2940.08,77.68 2940.72,79.2 2941.2,80.16 L2941.2,80.56 L2922.24,80.56 C2921.68,79.84 2921.36,78.88 2921.36,76.8 L2921.36,69.92 C2921.36,62.64 2918.16,59.44 2908.96,59.44 L2884.64,59.44 Z M2884.64,34.56 L2884.64,46.24 L2912.88,46.24 C2918.16,46.24 2920.4,43.68 2920.4,40.4 L2920.4,40.32 C2920.4,37.2 2918.32,34.56 2912.88,34.56 L2884.64,34.56 Z M2946.96,21.04 L3009.68,21.04 L3009.68,34.56 L2965.36,34.56 L2965.36,43.36 L3008.64,43.36 L3008.64,56.96 L2965.36,56.96 L2965.36,66.72 L3010.48,66.72 L3010.48,80.56 L2946.96,80.56 L2946.96,21.04 Z M3017.76,80.56 L3017.76,21.04 L3068.72,21.04 C3085.76,21.04 3090.48,27.6 3090.48,34.64 L3090.48,35.76 C3090.48,43.44 3083.92,46.56 3081.04,47.36 C3085.12,48.4 3093.84,51.92 3093.84,62.32 L3093.84,63.44 C3093.84,72.88 3088.48,80.56 3069.2,80.56 L3017.76,80.56 Z M3065.52,33.6 L3036.4,33.6 L3036.4,43.28 L3065.52,43.28 C3070.72,43.28 3072,40.88 3072,38.48 L3072,38.32 C3072,35.84 3070.72,33.6 3065.52,33.6 Z M3067.12,55.92 L3036.4,55.92 L3036.4,67.6 L3067.12,67.6 C3073.36,67.6 3074.48,64.16 3074.48,61.76 L3074.48,61.44 C3074.48,58.88 3073.28,55.92 3067.12,55.92 Z M3159.44,80.56 L3153.84,69.68 L3117.76,69.68 L3112.4,80.56 L3093.44,80.56 L3123.52,21.04 L3147.68,21.04 L3179.52,80.56 L3159.44,80.56 Z M3124.4,56.24 L3146.96,56.24 L3135.44,33.92 L3124.4,56.24 Z M3245.6,52.4 C3245.6,64.72 3239.76,81.44 3214.4,81.44 L3209.92,81.44 C3185.12,81.44 3178.32,66.96 3178.32,55.68 L3178.32,55.2 L3197.2,55.2 C3197.44,57.84 3198.72,66.64 3211.6,66.64 L3212.56,66.64 C3222.32,66.64 3226.88,60.96 3226.88,51.92 L3226.88,21.04 L3245.6,21.04 L3245.6,52.4 Z M3313.68,80.56 L3308.08,69.68 L3272,69.68 L3266.64,80.56 L3247.68,80.56 L3277.76,21.04 L3301.92,21.04 L3333.76,80.56 L3313.68,80.56 Z M3278.64,56.24 L3301.2,56.24 L3289.68,33.92 L3278.64,56.24 Z M3408.72,61.68 C3408.72,71.52 3403.76,81.6 3373.84,81.6 L3368.32,81.6 C3337.12,81.6 3333.52,68.16 3333.52,60.32 L3333.52,59.44 L3352.96,59.44 C3353.2,62.96 3355.28,68.88 3370.64,68.88 L3371.76,68.88 C3387.44,68.88 3389.2,65.76 3389.2,62.56 C3389.2,59.12 3387.36,56.88 3373.6,56.56 L3363.36,56.32 C3341.12,55.68 3334.32,48.16 3334.32,38.88 L3334.32,38.16 C3334.32,29.28 3339.68,20 3366.72,20 L3372.24,20 C3400.4,20 3406.8,29.84 3406.8,38.8 L3406.8,39.6 L3387.44,39.6 C3387.12,37.28 3385.76,32.48 3370.24,32.48 L3368.96,32.48 C3354.56,32.48 3353.52,35.12 3353.52,37.6 C3353.52,40.08 3355.04,42.56 3367.28,42.72 L3377.28,42.88 C3399.68,43.36 3408.72,48.72 3408.72,60.56 L3408.72,61.68 Z M3457.84,59.44 L3457.84,80.56 L3439.2,80.56 L3439.2,21.04 L3487.2,21.04 C3507.04,21.04 3513.04,27.92 3513.04,36.48 L3513.04,37.44 C3513.04,45.92 3505.92,49.28 3502,50.48 C3508.08,52.08 3513.28,56.56 3513.28,64.16 L3513.28,72.88 C3513.28,77.68 3513.92,79.2 3514.4,80.16 L3514.4,80.56 L3495.44,80.56 C3494.88,79.84 3494.56,78.88 3494.56,76.8 L3494.56,69.92 C3494.56,62.64 3491.36,59.44 3482.16,59.44 L3457.84,59.44 Z M3457.84,34.56 L3457.84,46.24 L3486.08,46.24 C3491.36,46.24 3493.6,43.68 3493.6,40.4 L3493.6,40.32 C3493.6,37.2 3491.52,34.56 3486.08,34.56 L3457.84,34.56 Z M3520.16,21.04 L3582.88,21.04 L3582.88,34.56 L3538.56,34.56 L3538.56,43.36 L3581.84,43.36 L3581.84,56.96 L3538.56,56.96 L3538.56,66.72 L3583.68,66.72 L3583.68,80.56 L3520.16,80.56 L3520.16,21.04 Z M3590.96,80.56 L3590.96,21.04 L3641.92,21.04 C3658.96,21.04 3663.68,27.6 3663.68,34.64 L3663.68,35.76 C3663.68,43.44 3657.12,46.56 3654.24,47.36 C3658.32,48.4 3667.04,51.92 3667.04,62.32 L3667.04,63.44 C3667.04,72.88 3661.68,80.56 3642.4,80.56 L3590.96,80.56 Z M3638.72,33.6 L3609.6,33.6 L3609.6,43.28 L3638.72,43.28 C3643.92,43.28 3645.2,40.88 3645.2,38.48 L3645.2,38.32 C3645.2,35.84 3643.92,33.6 3638.72,33.6 Z M3640.32,55.92 L3609.6,55.92 L3609.6,67.6 L3640.32,67.6 C3646.56,67.6 3647.68,64.16 3647.68,61.76 L3647.68,61.44 C3647.68,58.88 3646.48,55.92 3640.32,55.92 Z M3732.64,80.56 L3727.04,69.68 L3690.96,69.68 L3685.6,80.56 L3666.64,80.56 L3696.72,21.04 L3720.88,21.04 L3752.72,80.56 L3732.64,80.56 Z M3697.6,56.24 L3720.16,56.24 L3708.64,33.92 L3697.6,56.24 Z M3818.8,52.4 C3818.8,64.72 3812.96,81.44 3787.6,81.44 L3783.12,81.44 C3758.32,81.44 3751.52,66.96 3751.52,55.68 L3751.52,55.2 L3770.4,55.2 C3770.64,57.84 3771.92,66.64 3784.8,66.64 L3785.76,66.64 C3795.52,66.64 3800.08,60.96 3800.08,51.92 L3800.08,21.04 L3818.8,21.04 L3818.8,52.4 Z M3886.88,80.56 L3881.28,69.68 L3845.2,69.68 L3839.84,80.56 L3820.88,80.56 L3850.96,21.04 L3875.12,21.04 L3906.96,80.56 L3886.88,80.56 Z M3851.84,56.24 L3874.4,56.24 L3862.88,33.92 L3851.84,56.24 Z M3981.92,61.68 C3981.92,71.52 3976.96,81.6 3947.04,81.6 L3941.52,81.6 C3910.32,81.6 3906.72,68.16 3906.72,60.32 L3906.72,59.44 L3926.16,59.44 C3926.4,62.96 3928.48,68.88 3943.84,68.88 L3944.96,68.88 C3960.64,68.88 3962.4,65.76 3962.4,62.56 C3962.4,59.12 3960.56,56.88 3946.8,56.56 L3936.56,56.32 C3914.32,55.68 3907.52,48.16 3907.52,38.88 L3907.52,38.16 C3907.52,29.28 3912.88,20 3939.92,20 L3945.44,20 C3973.6,20 3980,29.84 3980,38.8 L3980,39.6 L3960.64,39.6 C3960.32,37.28 3958.96,32.48 3943.44,32.48 L3942.16,32.48 C3927.76,32.48 3926.72,35.12 3926.72,37.6 C3926.72,40.08 3928.24,42.56 3940.48,42.72 L3950.48,42.88 C3972.88,43.36 3981.92,48.72 3981.92,60.56 L3981.92,61.68 Z M4031.04,59.44 L4031.04,80.56 L4012.4,80.56 L4012.4,21.04 L4060.4,21.04 C4080.24,21.04 4086.24,27.92 4086.24,36.48 L4086.24,37.44 C4086.24,45.92 4079.12,49.28 4075.2,50.48 C4081.28,52.08 4086.48,56.56 4086.48,64.16 L4086.48,72.88 C4086.48,77.68 4087.12,79.2 4087.6,80.16 L4087.6,80.56 L4068.64,80.56 C4068.08,79.84 4067.76,78.88 4067.76,76.8 L4067.76,69.92 C4067.76,62.64 4064.56,59.44 4055.36,59.44 L4031.04,59.44 Z M4031.04,34.56 L4031.04,46.24 L4059.28,46.24 C4064.56,46.24 4066.8,43.68 4066.8,40.4 L4066.8,40.32 C4066.8,37.2 4064.72,34.56 4059.28,34.56 L4031.04,34.56 Z M4093.36,21.04 L4156.08,21.04 L4156.08,34.56 L4111.76,34.56 L4111.76,43.36 L4155.04,43.36 L4155.04,56.96 L4111.76,56.96 L4111.76,66.72 L4156.88,66.72 L4156.88,80.56 L4093.36,80.56 L4093.36,21.04 Z M4164.16,80.56 L4164.16,21.04 L4215.12,21.04 C4232.16,21.04 4236.88,27.6 4236.88,34.64 L4236.88,35.76 C4236.88,43.44 4230.32,46.56 4227.44,47.36 C4231.52,48.4 4240.24,51.92 4240.24,62.32 L4240.24,63.44 C4240.24,72.88 4234.88,80.56 4215.6,80.56 L4164.16,80.56 Z M4211.92,33.6 L4182.8,33.6 L4182.8,43.28 L4211.92,43.28 C4217.12,43.28 4218.4,40.88 4218.4,38.48 L4218.4,38.32 C4218.4,35.84 4217.12,33.6 4211.92,33.6 Z M4213.52,55.92 L4182.8,55.92 L4182.8,67.6 L4213.52,67.6 C4219.76,67.6 4220.88,64.16 4220.88,61.76 L4220.88,61.44 C4220.88,58.88 4219.68,55.92 4213.52,55.92 Z M4305.84,80.56 L4300.24,69.68 L4264.16,69.68 L4258.8,80.56 L4239.84,80.56 L4269.92,21.04 L4294.08,21.04 L4325.92,80.56 L4305.84,80.56 Z M4270.8,56.24 L4293.36,56.24 L4281.84,33.92 L4270.8,56.24 Z M4392,52.4 C4392,64.72 4386.16,81.44 4360.8,81.44 L4356.32,81.44 C4331.52,81.44 4324.72,66.96 4324.72,55.68 L4324.72,55.2 L4343.6,55.2 C4343.84,57.84 4345.12,66.64 4358,66.64 L4358.96,66.64 C4368.72,66.64 4373.28,60.96 4373.28,51.92 L4373.28,21.04 L4392,21.04 L4392,52.4 Z M4460.08,80.56 L4454.48,69.68 L4418.4,69.68 L4413.04,80.56 L4394.08,80.56 L4424.16,21.04 L4448.32,21.04 L4480.16,80.56 L4460.08,80.56 Z M4425.04,56.24 L4447.6,56.24 L4436.08,33.92 L4425.04,56.24 Z M4555.12,61.68 C4555.12,71.52 4550.16,81.6 4520.24,81.6 L4514.72,81.6 C4483.52,81.6 4479.92,68.16 4479.92,60.32 L4479.92,59.44 L4499.36,59.44 C4499.6,62.96 4501.68,68.88 4517.04,68.88 L4518.16,68.88 C4533.84,68.88 4535.6,65.76 4535.6,62.56 C4535.6,59.12 4533.76,56.88 4520,56.56 L4509.76,56.32 C4487.52,55.68 4480.72,48.16 4480.72,38.88 L4480.72,38.16 C4480.72,29.28 4486.08,20 4513.12,20 L4518.64,20 C4546.8,20 4553.2,29.84 4553.2,38.8 L4553.2,39.6 L4533.84,39.6 C4533.52,37.28 4532.16,32.48 4516.64,32.48 L4515.36,32.48 C4500.96,32.48 4499.92,35.12 4499.92,37.6 C4499.92,40.08 4501.44,42.56 4513.68,42.72 L4523.68,42.88 C4546.08,43.36 4555.12,48.72 4555.12,60.56 L4555.12,61.68 Z M4604.24,59.44 L4604.24,80.56 L4585.6,80.56 L4585.6,21.04 L4633.6,21.04 C4653.44,21.04 4659.44,27.92 4659.44,36.48 L4659.44,37.44 C4659.44,45.92 4652.32,49.28 4648.4,50.48 C4654.48,52.08 4659.68,56.56 4659.68,64.16 L4659.68,72.88 C4659.68,77.68 4660.32,79.2 4660.8,80.16 L4660.8,80.56 L4641.84,80.56 C4641.28,79.84 4640.96,78.88 4640.96,76.8 L4640.96,69.92 C4640.96,62.64 4637.76,59.44 4628.56,59.44 L4604.24,59.44 Z M4604.24,34.56 L4604.24,46.24 L4632.48,46.24 C4637.76,46.24 4640,43.68 4640,40.4 L4640,40.32 C4640,37.2 4637.92,34.56 4632.48,34.56 L4604.24,34.56 Z M4666.56,21.04 L4729.28,21.04 L4729.28,34.56 L4684.96,34.56 L4684.96,43.36 L4728.24,43.36 L4728.24,56.96 L4684.96,56.96 L4684.96,66.72 L4730.08,66.72 L4730.08,80.56 L4666.56,80.56 L4666.56,21.04 Z M4737.36,80.56 L4737.36,21.04 L4788.32,21.04 C4805.36,21.04 4810.08,27.6 4810.08,34.64 L4810.08,35.76 C4810.08,43.44 4803.52,46.56 4800.64,47.36 C4804.72,48.4 4813.44,51.92 4813.44,62.32 L4813.44,63.44 C4813.44,72.88 4808.08,80.56 4788.8,80.56 L4737.36,80.56 Z M4785.12,33.6 L4756,33.6 L4756,43.28 L4785.12,43.28 C4790.32,43.28 4791.6,40.88 4791.6,38.48 L4791.6,38.32 C4791.6,35.84 4790.32,33.6 4785.12,33.6 Z M4786.72,55.92 L4756,55.92 L4756,67.6 L4786.72,67.6 C4792.96,67.6 4794.08,64.16 4794.08,61.76 L4794.08,61.44 C4794.08,58.88 4792.88,55.92 4786.72,55.92 Z M4879.04,80.56 L4873.44,69.68 L4837.36,69.68 L4832,80.56 L4813.04,80.56 L4843.12,21.04 L4867.28,21.04 L4899.12,80.56 L4879.04,80.56 Z M4844,56.24 L4866.56,56.24 L4855.04,33.92 L4844,56.24 Z M4965.2,52.4 C4965.2,64.72 4959.36,81.44 4934,81.44 L4929.52,81.44 C4904.72,81.44 4897.92,66.96 4897.92,55.68 L4897.92,55.2 L4916.8,55.2 C4917.04,57.84 4918.32,66.64 4931.2,66.64 L4932.16,66.64 C4941.92,66.64 4946.48,60.96 4946.48,51.92 L4946.48,21.04 L4965.2,21.04 L4965.2,52.4 Z M5033.28,80.56 L5027.68,69.68 L4991.6,69.68 L4986.24,80.56 L4967.28,80.56 L4997.36,21.04 L5021.52,21.04 L5053.36,80.56 L5033.28,80.56 Z M4998.24,56.24 L5020.8,56.24 L5009.28,33.92 L4998.24,56.24 Z M5128.32,61.68 C5128.32,71.52 5123.36,81.6 5093.44,81.6 L5087.92,81.6 C5056.72,81.6 5053.12,68.16 5053.12,60.32 L5053.12,59.44 L5072.56,59.44 C5072.8,62.96 5074.88,68.88 5090.24,68.88 L5091.36,68.88 C5107.04,68.88 5108.8,65.76 5108.8,62.56 C5108.8,59.12 5106.96,56.88 5093.2,56.56 L5082.96,56.32 C5060.72,55.68 5053.92,48.16 5053.92,38.88 L5053.92,38.16 C5053.92,29.28 5059.28,20 5086.32,20 L5091.84,20 C5120,20 5126.4,29.84 5126.4,38.8 L5126.4,39.6 L5107.04,39.6 C5106.72,37.28 5105.36,32.48 5089.84,32.48 L5088.56,32.48 C5074.16,32.48 5073.12,35.12 5073.12,37.6 C5073.12,40.08 5074.64,42.56 5086.88,42.72 L5096.88,42.88 C5119.28,43.36 5128.32,48.72 5128.32,60.56 L5128.32,61.68 Z"/>
  </g>
</svg>
