<svg xmlns="http://www.w3.org/2000/svg" width="3890" height="102" viewBox="0 0 3890 102">
  <g fill="none" fill-rule="evenodd">
    <rect width="3890" height="102" fill="#000"/>
    <path fill="#FFF" fill-rule="nonzero" d="M75.2,61.68 C75.2,71.52 70.24,81.6 40.32,81.6 L34.8,81.6 C3.6,81.6 -4.54747351e-13,68.16 -4.54747351e-13,60.32 L-4.54747351e-13,59.44 L19.44,59.44 C19.68,62.96 21.76,68.88 37.12,68.88 L38.24,68.88 C53.92,68.88 55.68,65.76 55.68,62.56 C55.68,59.12 53.84,56.88 40.08,56.56 L29.84,56.32 C7.6,55.68 0.8,48.16 0.8,38.88 L0.8,38.16 C0.8,29.28 6.16,20 33.2,20 L38.72,20 C66.88,20 73.28,29.84 73.28,38.8 L73.28,39.6 L53.92,39.6 C53.6,37.28 52.24,32.48 36.72,32.48 L35.44,32.48 C21.04,32.48 20,35.12 20,37.6 C20,40.08 21.52,42.56 33.76,42.72 L43.76,42.88 C66.16,43.36 75.2,48.72 75.2,60.56 L75.2,61.68 Z M141.2,80.56 L135.6,69.68 L99.52,69.68 L94.16,80.56 L75.2,80.56 L105.28,21.04 L129.44,21.04 L161.28,80.56 L141.2,80.56 Z M106.16,56.24 L128.72,56.24 L117.2,33.92 L106.16,56.24 Z M164.08,21.04 L182.72,21.04 L182.72,65.76 L224.08,65.76 L224.08,80.56 L164.08,80.56 L164.08,21.04 Z M230.48,21.04 L293.2,21.04 L293.2,34.56 L248.88,34.56 L248.88,43.36 L292.16,43.36 L292.16,56.96 L248.88,56.96 L248.88,66.72 L294,66.72 L294,80.56 L230.48,80.56 L230.48,21.04 Z M398.08,61.68 C398.08,71.52 393.12,81.6 363.2,81.6 L357.68,81.6 C326.48,81.6 322.88,68.16 322.88,60.32 L322.88,59.44 L342.32,59.44 C342.56,62.96 344.64,68.88 360,68.88 L361.12,68.88 C376.8,68.88 378.56,65.76 378.56,62.56 C378.56,59.12 376.72,56.88 362.96,56.56 L352.72,56.32 C330.48,55.68 323.68,48.16 323.68,38.88 L323.68,38.16 C323.68,29.28 329.04,20 356.08,20 L361.6,20 C389.76,20 396.16,29.84 396.16,38.8 L396.16,39.6 L376.8,39.6 C376.48,37.28 375.12,32.48 359.6,32.48 L358.32,32.48 C343.92,32.48 342.88,35.12 342.88,37.6 C342.88,40.08 344.4,42.56 356.64,42.72 L366.64,42.88 C389.04,43.36 398.08,48.72 398.08,60.56 L398.08,61.68 Z M464.08,80.56 L458.48,69.68 L422.4,69.68 L417.04,80.56 L398.08,80.56 L428.16,21.04 L452.32,21.04 L484.16,80.56 L464.08,80.56 Z M429.04,56.24 L451.6,56.24 L440.08,33.92 L429.04,56.24 Z M486.96,21.04 L505.6,21.04 L505.6,65.76 L546.96,65.76 L546.96,80.56 L486.96,80.56 L486.96,21.04 Z M553.36,21.04 L616.08,21.04 L616.08,34.56 L571.76,34.56 L571.76,43.36 L615.04,43.36 L615.04,56.96 L571.76,56.96 L571.76,66.72 L616.88,66.72 L616.88,80.56 L553.36,80.56 L553.36,21.04 Z M720.96,61.68 C720.96,71.52 716,81.6 686.08,81.6 L680.56,81.6 C649.36,81.6 645.76,68.16 645.76,60.32 L645.76,59.44 L665.2,59.44 C665.44,62.96 667.52,68.88 682.88,68.88 L684,68.88 C699.68,68.88 701.44,65.76 701.44,62.56 C701.44,59.12 699.6,56.88 685.84,56.56 L675.6,56.32 C653.36,55.68 646.56,48.16 646.56,38.88 L646.56,38.16 C646.56,29.28 651.92,20 678.96,20 L684.48,20 C712.64,20 719.04,29.84 719.04,38.8 L719.04,39.6 L699.68,39.6 C699.36,37.28 698,32.48 682.48,32.48 L681.2,32.48 C666.8,32.48 665.76,35.12 665.76,37.6 C665.76,40.08 667.28,42.56 679.52,42.72 L689.52,42.88 C711.92,43.36 720.96,48.72 720.96,60.56 L720.96,61.68 Z M786.96,80.56 L781.36,69.68 L745.28,69.68 L739.92,80.56 L720.96,80.56 L751.04,21.04 L775.2,21.04 L807.04,80.56 L786.96,80.56 Z M751.92,56.24 L774.48,56.24 L762.96,33.92 L751.92,56.24 Z M809.84,21.04 L828.48,21.04 L828.48,65.76 L869.84,65.76 L869.84,80.56 L809.84,80.56 L809.84,21.04 Z M876.24,21.04 L938.96,21.04 L938.96,34.56 L894.64,34.56 L894.64,43.36 L937.92,43.36 L937.92,56.96 L894.64,56.96 L894.64,66.72 L939.76,66.72 L939.76,80.56 L876.24,80.56 L876.24,21.04 Z M1043.84,61.68 C1043.84,71.52 1038.88,81.6 1008.96,81.6 L1003.44,81.6 C972.24,81.6 968.64,68.16 968.64,60.32 L968.64,59.44 L988.08,59.44 C988.32,62.96 990.4,68.88 1005.76,68.88 L1006.88,68.88 C1022.56,68.88 1024.32,65.76 1024.32,62.56 C1024.32,59.12 1022.48,56.88 1008.72,56.56 L998.48,56.32 C976.24,55.68 969.44,48.16 969.44,38.88 L969.44,38.16 C969.44,29.28 974.8,20 1001.84,20 L1007.36,20 C1035.52,20 1041.92,29.84 1041.92,38.8 L1041.92,39.6 L1022.56,39.6 C1022.24,37.28 1020.88,32.48 1005.36,32.48 L1004.08,32.48 C989.68,32.48 988.64,35.12 988.64,37.6 C988.64,40.08 990.16,42.56 1002.4,42.72 L1012.4,42.88 C1034.8,43.36 1043.84,48.72 1043.84,60.56 L1043.84,61.68 Z M1109.84,80.56 L1104.24,69.68 L1068.16,69.68 L1062.8,80.56 L1043.84,80.56 L1073.92,21.04 L1098.08,21.04 L1129.92,80.56 L1109.84,80.56 Z M1074.8,56.24 L1097.36,56.24 L1085.84,33.92 L1074.8,56.24 Z M1132.72,21.04 L1151.36,21.04 L1151.36,65.76 L1192.72,65.76 L1192.72,80.56 L1132.72,80.56 L1132.72,21.04 Z M1199.12,21.04 L1261.84,21.04 L1261.84,34.56 L1217.52,34.56 L1217.52,43.36 L1260.8,43.36 L1260.8,56.96 L1217.52,56.96 L1217.52,66.72 L1262.64,66.72 L1262.64,80.56 L1199.12,80.56 L1199.12,21.04 Z M1366.72,61.68 C1366.72,71.52 1361.76,81.6 1331.84,81.6 L1326.32,81.6 C1295.12,81.6 1291.52,68.16 1291.52,60.32 L1291.52,59.44 L1310.96,59.44 C1311.2,62.96 1313.28,68.88 1328.64,68.88 L1329.76,68.88 C1345.44,68.88 1347.2,65.76 1347.2,62.56 C1347.2,59.12 1345.36,56.88 1331.6,56.56 L1321.36,56.32 C1299.12,55.68 1292.32,48.16 1292.32,38.88 L1292.32,38.16 C1292.32,29.28 1297.68,20 1324.72,20 L1330.24,20 C1358.4,20 1364.8,29.84 1364.8,38.8 L1364.8,39.6 L1345.44,39.6 C1345.12,37.28 1343.76,32.48 1328.24,32.48 L1326.96,32.48 C1312.56,32.48 1311.52,35.12 1311.52,37.6 C1311.52,40.08 1313.04,42.56 1325.28,42.72 L1335.28,42.88 C1357.68,43.36 1366.72,48.72 1366.72,60.56 L1366.72,61.68 Z M1432.72,80.56 L1427.12,69.68 L1391.04,69.68 L1385.68,80.56 L1366.72,80.56 L1396.8,21.04 L1420.96,21.04 L1452.8,80.56 L1432.72,80.56 Z M1397.68,56.24 L1420.24,56.24 L1408.72,33.92 L1397.68,56.24 Z M1455.6,21.04 L1474.24,21.04 L1474.24,65.76 L1515.6,65.76 L1515.6,80.56 L1455.6,80.56 L1455.6,21.04 Z M1522,21.04 L1584.72,21.04 L1584.72,34.56 L1540.4,34.56 L1540.4,43.36 L1583.68,43.36 L1583.68,56.96 L1540.4,56.96 L1540.4,66.72 L1585.52,66.72 L1585.52,80.56 L1522,80.56 L1522,21.04 Z M1689.6,61.68 C1689.6,71.52 1684.64,81.6 1654.72,81.6 L1649.2,81.6 C1618,81.6 1614.4,68.16 1614.4,60.32 L1614.4,59.44 L1633.84,59.44 C1634.08,62.96 1636.16,68.88 1651.52,68.88 L1652.64,68.88 C1668.32,68.88 1670.08,65.76 1670.08,62.56 C1670.08,59.12 1668.24,56.88 1654.48,56.56 L1644.24,56.32 C1622,55.68 1615.2,48.16 1615.2,38.88 L1615.2,38.16 C1615.2,29.28 1620.56,20 1647.6,20 L1653.12,20 C1681.28,20 1687.68,29.84 1687.68,38.8 L1687.68,39.6 L1668.32,39.6 C1668,37.28 1666.64,32.48 1651.12,32.48 L1649.84,32.48 C1635.44,32.48 1634.4,35.12 1634.4,37.6 C1634.4,40.08 1635.92,42.56 1648.16,42.72 L1658.16,42.88 C1680.56,43.36 1689.6,48.72 1689.6,60.56 L1689.6,61.68 Z M1755.6,80.56 L1750,69.68 L1713.92,69.68 L1708.56,80.56 L1689.6,80.56 L1719.68,21.04 L1743.84,21.04 L1775.68,80.56 L1755.6,80.56 Z M1720.56,56.24 L1743.12,56.24 L1731.6,33.92 L1720.56,56.24 Z M1778.48,21.04 L1797.12,21.04 L1797.12,65.76 L1838.48,65.76 L1838.48,80.56 L1778.48,80.56 L1778.48,21.04 Z M1844.88,21.04 L1907.6,21.04 L1907.6,34.56 L1863.28,34.56 L1863.28,43.36 L1906.56,43.36 L1906.56,56.96 L1863.28,56.96 L1863.28,66.72 L1908.4,66.72 L1908.4,80.56 L1844.88,80.56 L1844.88,21.04 Z M2012.48,61.68 C2012.48,71.52 2007.52,81.6 1977.6,81.6 L1972.08,81.6 C1940.88,81.6 1937.28,68.16 1937.28,60.32 L1937.28,59.44 L1956.72,59.44 C1956.96,62.96 1959.04,68.88 1974.4,68.88 L1975.52,68.88 C1991.2,68.88 1992.96,65.76 1992.96,62.56 C1992.96,59.12 1991.12,56.88 1977.36,56.56 L1967.12,56.32 C1944.88,55.68 1938.08,48.16 1938.08,38.88 L1938.08,38.16 C1938.08,29.28 1943.44,20 1970.48,20 L1976,20 C2004.16,20 2010.56,29.84 2010.56,38.8 L2010.56,39.6 L1991.2,39.6 C1990.88,37.28 1989.52,32.48 1974,32.48 L1972.72,32.48 C1958.32,32.48 1957.28,35.12 1957.28,37.6 C1957.28,40.08 1958.8,42.56 1971.04,42.72 L1981.04,42.88 C2003.44,43.36 2012.48,48.72 2012.48,60.56 L2012.48,61.68 Z M2078.48,80.56 L2072.88,69.68 L2036.8,69.68 L2031.44,80.56 L2012.48,80.56 L2042.56,21.04 L2066.72,21.04 L2098.56,80.56 L2078.48,80.56 Z M2043.44,56.24 L2066,56.24 L2054.48,33.92 L2043.44,56.24 Z M2101.36,21.04 L2120,21.04 L2120,65.76 L2161.36,65.76 L2161.36,80.56 L2101.36,80.56 L2101.36,21.04 Z M2167.76,21.04 L2230.48,21.04 L2230.48,34.56 L2186.16,34.56 L2186.16,43.36 L2229.44,43.36 L2229.44,56.96 L2186.16,56.96 L2186.16,66.72 L2231.28,66.72 L2231.28,80.56 L2167.76,80.56 L2167.76,21.04 Z M2335.36,61.68 C2335.36,71.52 2330.4,81.6 2300.48,81.6 L2294.96,81.6 C2263.76,81.6 2260.16,68.16 2260.16,60.32 L2260.16,59.44 L2279.6,59.44 C2279.84,62.96 2281.92,68.88 2297.28,68.88 L2298.4,68.88 C2314.08,68.88 2315.84,65.76 2315.84,62.56 C2315.84,59.12 2314,56.88 2300.24,56.56 L2290,56.32 C2267.76,55.68 2260.96,48.16 2260.96,38.88 L2260.96,38.16 C2260.96,29.28 2266.32,20 2293.36,20 L2298.88,20 C2327.04,20 2333.44,29.84 2333.44,38.8 L2333.44,39.6 L2314.08,39.6 C2313.76,37.28 2312.4,32.48 2296.88,32.48 L2295.6,32.48 C2281.2,32.48 2280.16,35.12 2280.16,37.6 C2280.16,40.08 2281.68,42.56 2293.92,42.72 L2303.92,42.88 C2326.32,43.36 2335.36,48.72 2335.36,60.56 L2335.36,61.68 Z M2401.36,80.56 L2395.76,69.68 L2359.68,69.68 L2354.32,80.56 L2335.36,80.56 L2365.44,21.04 L2389.6,21.04 L2421.44,80.56 L2401.36,80.56 Z M2366.32,56.24 L2388.88,56.24 L2377.36,33.92 L2366.32,56.24 Z M2424.24,21.04 L2442.88,21.04 L2442.88,65.76 L2484.24,65.76 L2484.24,80.56 L2424.24,80.56 L2424.24,21.04 Z M2490.64,21.04 L2553.36,21.04 L2553.36,34.56 L2509.04,34.56 L2509.04,43.36 L2552.32,43.36 L2552.32,56.96 L2509.04,56.96 L2509.04,66.72 L2554.16,66.72 L2554.16,80.56 L2490.64,80.56 L2490.64,21.04 Z M2658.24,61.68 C2658.24,71.52 2653.28,81.6 2623.36,81.6 L2617.84,81.6 C2586.64,81.6 2583.04,68.16 2583.04,60.32 L2583.04,59.44 L2602.48,59.44 C2602.72,62.96 2604.8,68.88 2620.16,68.88 L2621.28,68.88 C2636.96,68.88 2638.72,65.76 2638.72,62.56 C2638.72,59.12 2636.88,56.88 2623.12,56.56 L2612.88,56.32 C2590.64,55.68 2583.84,48.16 2583.84,38.88 L2583.84,38.16 C2583.84,29.28 2589.2,20 2616.24,20 L2621.76,20 C2649.92,20 2656.32,29.84 2656.32,38.8 L2656.32,39.6 L2636.96,39.6 C2636.64,37.28 2635.28,32.48 2619.76,32.48 L2618.48,32.48 C2604.08,32.48 2603.04,35.12 2603.04,37.6 C2603.04,40.08 2604.56,42.56 2616.8,42.72 L2626.8,42.88 C2649.2,43.36 2658.24,48.72 2658.24,60.56 L2658.24,61.68 Z M2724.24,80.56 L2718.64,69.68 L2682.56,69.68 L2677.2,80.56 L2658.24,80.56 L2688.32,21.04 L2712.48,21.04 L2744.32,80.56 L2724.24,80.56 Z M2689.2,56.24 L2711.76,56.24 L2700.24,33.92 L2689.2,56.24 Z M2747.12,21.04 L2765.76,21.04 L2765.76,65.76 L2807.12,65.76 L2807.12,80.56 L2747.12,80.56 L2747.12,21.04 Z M2813.52,21.04 L2876.24,21.04 L2876.24,34.56 L2831.92,34.56 L2831.92,43.36 L2875.2,43.36 L2875.2,56.96 L2831.92,56.96 L2831.92,66.72 L2877.04,66.72 L2877.04,80.56 L2813.52,80.56 L2813.52,21.04 Z M2981.12,61.68 C2981.12,71.52 2976.16,81.6 2946.24,81.6 L2940.72,81.6 C2909.52,81.6 2905.92,68.16 2905.92,60.32 L2905.92,59.44 L2925.36,59.44 C2925.6,62.96 2927.68,68.88 2943.04,68.88 L2944.16,68.88 C2959.84,68.88 2961.6,65.76 2961.6,62.56 C2961.6,59.12 2959.76,56.88 2946,56.56 L2935.76,56.32 C2913.52,55.68 2906.72,48.16 2906.72,38.88 L2906.72,38.16 C2906.72,29.28 2912.08,20 2939.12,20 L2944.64,20 C2972.8,20 2979.2,29.84 2979.2,38.8 L2979.2,39.6 L2959.84,39.6 C2959.52,37.28 2958.16,32.48 2942.64,32.48 L2941.36,32.48 C2926.96,32.48 2925.92,35.12 2925.92,37.6 C2925.92,40.08 2927.44,42.56 2939.68,42.72 L2949.68,42.88 C2972.08,43.36 2981.12,48.72 2981.12,60.56 L2981.12,61.68 Z M3047.12,80.56 L3041.52,69.68 L3005.44,69.68 L3000.08,80.56 L2981.12,80.56 L3011.2,21.04 L3035.36,21.04 L3067.2,80.56 L3047.12,80.56 Z M3012.08,56.24 L3034.64,56.24 L3023.12,33.92 L3012.08,56.24 Z M3070,21.04 L3088.64,21.04 L3088.64,65.76 L3130,65.76 L3130,80.56 L3070,80.56 L3070,21.04 Z M3136.4,21.04 L3199.12,21.04 L3199.12,34.56 L3154.8,34.56 L3154.8,43.36 L3198.08,43.36 L3198.08,56.96 L3154.8,56.96 L3154.8,66.72 L3199.92,66.72 L3199.92,80.56 L3136.4,80.56 L3136.4,21.04 Z M3304,61.68 C3304,71.52 3299.04,81.6 3269.12,81.6 L3263.6,81.6 C3232.4,81.6 3228.8,68.16 3228.8,60.32 L3228.8,59.44 L3248.24,59.44 C3248.48,62.96 3250.56,68.88 3265.92,68.88 L3267.04,68.88 C3282.72,68.88 3284.48,65.76 3284.48,62.56 C3284.48,59.12 3282.64,56.88 3268.88,56.56 L3258.64,56.32 C3236.4,55.68 3229.6,48.16 3229.6,38.88 L3229.6,38.16 C3229.6,29.28 3234.96,20 3262,20 L3267.52,20 C3295.68,20 3302.08,29.84 3302.08,38.8 L3302.08,39.6 L3282.72,39.6 C3282.4,37.28 3281.04,32.48 3265.52,32.48 L3264.24,32.48 C3249.84,32.48 3248.8,35.12 3248.8,37.6 C3248.8,40.08 3250.32,42.56 3262.56,42.72 L3272.56,42.88 C3294.96,43.36 3304,48.72 3304,60.56 L3304,61.68 Z M3370,80.56 L3364.4,69.68 L3328.32,69.68 L3322.96,80.56 L3304,80.56 L3334.08,21.04 L3358.24,21.04 L3390.08,80.56 L3370,80.56 Z M3334.96,56.24 L3357.52,56.24 L3346,33.92 L3334.96,56.24 Z M3392.88,21.04 L3411.52,21.04 L3411.52,65.76 L3452.88,65.76 L3452.88,80.56 L3392.88,80.56 L3392.88,21.04 Z M3459.28,21.04 L3522,21.04 L3522,34.56 L3477.68,34.56 L3477.68,43.36 L3520.96,43.36 L3520.96,56.96 L3477.68,56.96 L3477.68,66.72 L3522.8,66.72 L3522.8,80.56 L3459.28,80.56 L3459.28,21.04 Z M3626.88,61.68 C3626.88,71.52 3621.92,81.6 3592,81.6 L3586.48,81.6 C3555.28,81.6 3551.68,68.16 3551.68,60.32 L3551.68,59.44 L3571.12,59.44 C3571.36,62.96 3573.44,68.88 3588.8,68.88 L3589.92,68.88 C3605.6,68.88 3607.36,65.76 3607.36,62.56 C3607.36,59.12 3605.52,56.88 3591.76,56.56 L3581.52,56.32 C3559.28,55.68 3552.48,48.16 3552.48,38.88 L3552.48,38.16 C3552.48,29.28 3557.84,20 3584.88,20 L3590.4,20 C3618.56,20 3624.96,29.84 3624.96,38.8 L3624.96,39.6 L3605.6,39.6 C3605.28,37.28 3603.92,32.48 3588.4,32.48 L3587.12,32.48 C3572.72,32.48 3571.68,35.12 3571.68,37.6 C3571.68,40.08 3573.2,42.56 3585.44,42.72 L3595.44,42.88 C3617.84,43.36 3626.88,48.72 3626.88,60.56 L3626.88,61.68 Z M3692.88,80.56 L3687.28,69.68 L3651.2,69.68 L3645.84,80.56 L3626.88,80.56 L3656.96,21.04 L3681.12,21.04 L3712.96,80.56 L3692.88,80.56 Z M3657.84,56.24 L3680.4,56.24 L3668.88,33.92 L3657.84,56.24 Z M3715.76,21.04 L3734.4,21.04 L3734.4,65.76 L3775.76,65.76 L3775.76,80.56 L3715.76,80.56 L3715.76,21.04 Z M3782.16,21.04 L3844.88,21.04 L3844.88,34.56 L3800.56,34.56 L3800.56,43.36 L3843.84,43.36 L3843.84,56.96 L3800.56,56.96 L3800.56,66.72 L3845.68,66.72 L3845.68,80.56 L3782.16,80.56 L3782.16,21.04 Z"/>
  </g>
</svg>
