<svg xmlns="http://www.w3.org/2000/svg" width="4010" height="102" viewBox="0 0 4010 102">
  <g fill="none" fill-rule="evenodd">
    <rect width="4010" height="102" fill="#000"/>
    <g fill-rule="nonzero" transform="translate(0 20)">
      <path fill="#FFF" d="M75.2,41.68 C75.2,51.52 70.24,61.6 40.32,61.6 L34.8,61.6 C3.6,61.6 0,48.16 0,40.32 L0,39.44 L19.44,39.44 C19.68,42.96 21.76,48.88 37.12,48.88 L38.24,48.88 C53.92,48.88 55.68,45.76 55.68,42.56 C55.68,39.12 53.84,36.88 40.08,36.56 L29.84,36.32 C7.6,35.68 0.8,28.16 0.8,18.88 L0.8,18.16 C0.8,9.28 6.16,0 33.2,0 L38.72,0 C66.88,0 73.28,9.84 73.28,18.8 L73.28,19.6 L53.92,19.6 C53.6,17.28 52.24,12.48 36.72,12.48 L35.44,12.48 C21.04,12.48 20,15.12 20,17.6 C20,20.08 21.52,22.56 33.76,22.72 L43.76,22.88 C66.16,23.36 75.2,28.72 75.2,40.56 L75.2,41.68 Z M141.2,60.56 L135.6,49.68 L99.52,49.68 L94.16,60.56 L75.2,60.56 L105.28,1.04 L129.44,1.04 L161.28,60.56 L141.2,60.56 Z M106.16,36.24 L128.72,36.24 L117.2,13.92 L106.16,36.24 Z M241.52,1.04 L212.72,60.56 L189.52,60.56 L158.56,1.04 L179.68,1.04 L201.6,44.8 L222.16,1.04 L241.52,1.04 Z M244.64,1.04 L307.36,1.04 L307.36,14.56 L263.04,14.56 L263.04,23.36 L306.32,23.36 L306.32,36.96 L263.04,36.96 L263.04,46.72 L308.16,46.72 L308.16,60.56 L244.64,60.56 L244.64,1.04 Z M415.92,29.92 C415.92,41.12 409.92,61.44 379.36,61.44 L376.48,61.44 C344.56,61.44 339.36,41.12 339.36,29.92 L339.36,1.04 L358.08,1.04 L358.08,28.8 C358.08,36.48 361.52,46 377.76,46 C393.76,46 397.28,36.48 397.28,28.8 L397.28,1.04 L415.92,1.04 L415.92,29.92 Z M468.48,40.72 L442.48,40.72 L442.48,60.56 L423.84,60.56 L423.84,1.04 L468.48,1.04 C489.84,1.04 496.24,9.52 496.24,20.4 L496.24,21.2 C496.24,31.84 489.76,40.72 468.48,40.72 Z M442.48,14.56 L442.48,27.36 L468.16,27.36 C474,27.36 476.8,25.12 476.8,21.12 L476.8,20.88 C476.8,16.88 474.08,14.56 468.16,14.56 L442.48,14.56 Z M524.24,15.12 L524.24,1.04 L594.32,1.04 L594.32,15.12 L568.64,15.12 L568.64,60.56 L549.84,60.56 L549.84,15.12 L524.24,15.12 Z M640.16,0 L643.6,0 C681.04,0 685.44,18.8 685.44,29.44 L685.44,31.84 C685.44,42.32 681.12,61.6 643.6,61.6 L640.16,61.6 C602.48,61.6 598.24,42.32 598.24,31.84 L598.24,29.44 C598.24,18.8 602.48,0 640.16,0 Z M665.92,30 C665.92,23.12 661.92,14.4 641.84,14.4 C621.44,14.4 617.76,23.12 617.76,30 L617.76,30.96 C617.76,37.76 621.76,47.12 641.84,47.12 C661.84,47.12 665.92,38 665.92,31.12 L665.92,30 Z"/>
      <path fill="#FF0226" d="M714.56,1.04 L785.68,1.04 L785.68,13.6 C783.12,16.48 776.96,22.96 770.88,30.96 C761.76,43.12 761.2,50.24 761.2,59.84 L761.2,60.56 L739.84,60.56 L739.84,53.04 C739.84,43.52 743.28,37.92 755.36,26.4 C764.08,18.16 766.64,15.68 767.04,14.48 L733.44,14.48 L733.44,26.72 L714.56,26.72 L714.56,1.04 Z M860.08,40.48 C860.08,50.16 854.32,61.6 827.12,61.6 L823.36,61.6 C793.44,61.6 789.6,48.32 789.6,42.48 L789.6,41.92 L809.28,41.92 C809.52,42.8 810.8,47.84 825.2,47.84 C838.8,47.84 840.56,43.84 840.56,40.56 L840.56,40.08 C840.56,36.8 838.8,32.8 825.2,32.8 C810.8,32.8 809.36,36.96 809.04,37.6 L790.88,37.6 L790.88,1.04 L855.92,1.04 L855.92,14.88 L809.2,14.88 L809.2,25.52 C810.24,24.56 816,20 830.4,20 L831.12,20 C854.72,20 860.08,29.12 860.08,40 L860.08,40.48 Z M886.08,34.88 C866.72,34.88 863.52,24 863.52,18.16 L863.52,16.8 C863.52,10.88 866.72,0.32 886.08,0.32 L888,0.32 C907.36,0.32 910.48,10.88 910.48,16.8 L910.48,18.16 C910.48,24 907.44,34.88 888,34.88 L886.08,34.88 Z M941.76,1.04 L957.6,1.04 L893.44,60.56 L877.68,60.56 L941.76,1.04 Z M886.96,25.04 C894.96,25.04 897.6,21.28 897.6,17.84 L897.6,17.2 C897.6,13.44 895.04,10.16 886.96,10.16 C878.88,10.16 876.48,13.44 876.48,17.2 L876.48,17.68 C876.48,21.28 879.04,25.04 886.96,25.04 Z M949.36,61.2 L947.36,61.2 C928.08,61.2 924.8,50.24 924.8,44.4 L924.8,43.04 C924.8,37.12 928.08,26.56 947.36,26.56 L949.36,26.56 C968.64,26.56 971.84,37.12 971.84,43.04 L971.84,44.4 C971.84,50.24 968.72,61.2 949.36,61.2 Z M948.32,51.28 C956.32,51.28 958.96,47.52 958.96,44.08 L958.96,43.44 C958.96,39.76 956.4,36.4 948.32,36.4 C940.16,36.4 937.76,39.76 937.76,43.44 L937.76,43.92 C937.76,47.52 940.32,51.28 948.32,51.28 Z"/>
      <path fill="#FFF" d="M1074.96,41.68 C1074.96,51.52 1070,61.6 1040.08,61.6 L1034.56,61.6 C1003.36,61.6 999.76,48.16 999.76,40.32 L999.76,39.44 L1019.2,39.44 C1019.44,42.96 1021.52,48.88 1036.88,48.88 L1038,48.88 C1053.68,48.88 1055.44,45.76 1055.44,42.56 C1055.44,39.12 1053.6,36.88 1039.84,36.56 L1029.6,36.32 C1007.36,35.68 1000.56,28.16 1000.56,18.88 L1000.56,18.16 C1000.56,9.28 1005.92,0 1032.96,0 L1038.48,0 C1066.64,0 1073.04,9.84 1073.04,18.8 L1073.04,19.6 L1053.68,19.6 C1053.36,17.28 1052,12.48 1036.48,12.48 L1035.2,12.48 C1020.8,12.48 1019.76,15.12 1019.76,17.6 C1019.76,20.08 1021.28,22.56 1033.52,22.72 L1043.52,22.88 C1065.92,23.36 1074.96,28.72 1074.96,40.56 L1074.96,41.68 Z M1140.96,60.56 L1135.36,49.68 L1099.28,49.68 L1093.92,60.56 L1074.96,60.56 L1105.04,1.04 L1129.2,1.04 L1161.04,60.56 L1140.96,60.56 Z M1105.92,36.24 L1128.48,36.24 L1116.96,13.92 L1105.92,36.24 Z M1241.28,1.04 L1212.48,60.56 L1189.28,60.56 L1158.32,1.04 L1179.44,1.04 L1201.36,44.8 L1221.92,1.04 L1241.28,1.04 Z M1244.4,1.04 L1307.12,1.04 L1307.12,14.56 L1262.8,14.56 L1262.8,23.36 L1306.08,23.36 L1306.08,36.96 L1262.8,36.96 L1262.8,46.72 L1307.92,46.72 L1307.92,60.56 L1244.4,60.56 L1244.4,1.04 Z M1415.68,29.92 C1415.68,41.12 1409.68,61.44 1379.12,61.44 L1376.24,61.44 C1344.32,61.44 1339.12,41.12 1339.12,29.92 L1339.12,1.04 L1357.84,1.04 L1357.84,28.8 C1357.84,36.48 1361.28,46 1377.52,46 C1393.52,46 1397.04,36.48 1397.04,28.8 L1397.04,1.04 L1415.68,1.04 L1415.68,29.92 Z M1468.24,40.72 L1442.24,40.72 L1442.24,60.56 L1423.6,60.56 L1423.6,1.04 L1468.24,1.04 C1489.6,1.04 1496,9.52 1496,20.4 L1496,21.2 C1496,31.84 1489.52,40.72 1468.24,40.72 Z M1442.24,14.56 L1442.24,27.36 L1467.92,27.36 C1473.76,27.36 1476.56,25.12 1476.56,21.12 L1476.56,20.88 C1476.56,16.88 1473.84,14.56 1467.92,14.56 L1442.24,14.56 Z M1524,15.12 L1524,1.04 L1594.08,1.04 L1594.08,15.12 L1568.4,15.12 L1568.4,60.56 L1549.6,60.56 L1549.6,15.12 L1524,15.12 Z M1639.92,0 L1643.36,0 C1680.8,0 1685.2,18.8 1685.2,29.44 L1685.2,31.84 C1685.2,42.32 1680.88,61.6 1643.36,61.6 L1639.92,61.6 C1602.24,61.6 1598,42.32 1598,31.84 L1598,29.44 C1598,18.8 1602.24,0 1639.92,0 Z M1665.68,30 C1665.68,23.12 1661.68,14.4 1641.6,14.4 C1621.2,14.4 1617.52,23.12 1617.52,30 L1617.52,30.96 C1617.52,37.76 1621.52,47.12 1641.6,47.12 C1661.6,47.12 1665.68,38 1665.68,31.12 L1665.68,30 Z"/>
      <path fill="#FF0226" d="M1714.32,1.04 L1785.44,1.04 L1785.44,13.6 C1782.88,16.48 1776.72,22.96 1770.64,30.96 C1761.52,43.12 1760.96,50.24 1760.96,59.84 L1760.96,60.56 L1739.6,60.56 L1739.6,53.04 C1739.6,43.52 1743.04,37.92 1755.12,26.4 C1763.84,18.16 1766.4,15.68 1766.8,14.48 L1733.2,14.48 L1733.2,26.72 L1714.32,26.72 L1714.32,1.04 Z M1859.84,40.48 C1859.84,50.16 1854.08,61.6 1826.88,61.6 L1823.12,61.6 C1793.2,61.6 1789.36,48.32 1789.36,42.48 L1789.36,41.92 L1809.04,41.92 C1809.28,42.8 1810.56,47.84 1824.96,47.84 C1838.56,47.84 1840.32,43.84 1840.32,40.56 L1840.32,40.08 C1840.32,36.8 1838.56,32.8 1824.96,32.8 C1810.56,32.8 1809.12,36.96 1808.8,37.6 L1790.64,37.6 L1790.64,1.04 L1855.68,1.04 L1855.68,14.88 L1808.96,14.88 L1808.96,25.52 C1810,24.56 1815.76,20 1830.16,20 L1830.88,20 C1854.48,20 1859.84,29.12 1859.84,40 L1859.84,40.48 Z M1885.84,34.88 C1866.48,34.88 1863.28,24 1863.28,18.16 L1863.28,16.8 C1863.28,10.88 1866.48,0.32 1885.84,0.32 L1887.76,0.32 C1907.12,0.32 1910.24,10.88 1910.24,16.8 L1910.24,18.16 C1910.24,24 1907.2,34.88 1887.76,34.88 L1885.84,34.88 Z M1941.52,1.04 L1957.36,1.04 L1893.2,60.56 L1877.44,60.56 L1941.52,1.04 Z M1886.72,25.04 C1894.72,25.04 1897.36,21.28 1897.36,17.84 L1897.36,17.2 C1897.36,13.44 1894.8,10.16 1886.72,10.16 C1878.64,10.16 1876.24,13.44 1876.24,17.2 L1876.24,17.68 C1876.24,21.28 1878.8,25.04 1886.72,25.04 Z M1949.12,61.2 L1947.12,61.2 C1927.84,61.2 1924.56,50.24 1924.56,44.4 L1924.56,43.04 C1924.56,37.12 1927.84,26.56 1947.12,26.56 L1949.12,26.56 C1968.4,26.56 1971.6,37.12 1971.6,43.04 L1971.6,44.4 C1971.6,50.24 1968.48,61.2 1949.12,61.2 Z M1948.08,51.28 C1956.08,51.28 1958.72,47.52 1958.72,44.08 L1958.72,43.44 C1958.72,39.76 1956.16,36.4 1948.08,36.4 C1939.92,36.4 1937.52,39.76 1937.52,43.44 L1937.52,43.92 C1937.52,47.52 1940.08,51.28 1948.08,51.28 Z"/>
      <path fill="#FFF" d="M2074.72,41.68 C2074.72,51.52 2069.76,61.6 2039.84,61.6 L2034.32,61.6 C2003.12,61.6 1999.52,48.16 1999.52,40.32 L1999.52,39.44 L2018.96,39.44 C2019.2,42.96 2021.28,48.88 2036.64,48.88 L2037.76,48.88 C2053.44,48.88 2055.2,45.76 2055.2,42.56 C2055.2,39.12 2053.36,36.88 2039.6,36.56 L2029.36,36.32 C2007.12,35.68 2000.32,28.16 2000.32,18.88 L2000.32,18.16 C2000.32,9.28 2005.68,0 2032.72,0 L2038.24,0 C2066.4,0 2072.8,9.84 2072.8,18.8 L2072.8,19.6 L2053.44,19.6 C2053.12,17.28 2051.76,12.48 2036.24,12.48 L2034.96,12.48 C2020.56,12.48 2019.52,15.12 2019.52,17.6 C2019.52,20.08 2021.04,22.56 2033.28,22.72 L2043.28,22.88 C2065.68,23.36 2074.72,28.72 2074.72,40.56 L2074.72,41.68 Z M2140.72,60.56 L2135.12,49.68 L2099.04,49.68 L2093.68,60.56 L2074.72,60.56 L2104.8,1.04 L2128.96,1.04 L2160.8,60.56 L2140.72,60.56 Z M2105.68,36.24 L2128.24,36.24 L2116.72,13.92 L2105.68,36.24 Z M2241.04,1.04 L2212.24,60.56 L2189.04,60.56 L2158.08,1.04 L2179.2,1.04 L2201.12,44.8 L2221.68,1.04 L2241.04,1.04 Z M2244.16,1.04 L2306.88,1.04 L2306.88,14.56 L2262.56,14.56 L2262.56,23.36 L2305.84,23.36 L2305.84,36.96 L2262.56,36.96 L2262.56,46.72 L2307.68,46.72 L2307.68,60.56 L2244.16,60.56 L2244.16,1.04 Z M2415.44,29.92 C2415.44,41.12 2409.44,61.44 2378.88,61.44 L2376,61.44 C2344.08,61.44 2338.88,41.12 2338.88,29.92 L2338.88,1.04 L2357.6,1.04 L2357.6,28.8 C2357.6,36.48 2361.04,46 2377.28,46 C2393.28,46 2396.8,36.48 2396.8,28.8 L2396.8,1.04 L2415.44,1.04 L2415.44,29.92 Z M2468,40.72 L2442,40.72 L2442,60.56 L2423.36,60.56 L2423.36,1.04 L2468,1.04 C2489.36,1.04 2495.76,9.52 2495.76,20.4 L2495.76,21.2 C2495.76,31.84 2489.28,40.72 2468,40.72 Z M2442,14.56 L2442,27.36 L2467.68,27.36 C2473.52,27.36 2476.32,25.12 2476.32,21.12 L2476.32,20.88 C2476.32,16.88 2473.6,14.56 2467.68,14.56 L2442,14.56 Z M2523.76,15.12 L2523.76,1.04 L2593.84,1.04 L2593.84,15.12 L2568.16,15.12 L2568.16,60.56 L2549.36,60.56 L2549.36,15.12 L2523.76,15.12 Z M2639.68,0 L2643.12,0 C2680.56,0 2684.96,18.8 2684.96,29.44 L2684.96,31.84 C2684.96,42.32 2680.64,61.6 2643.12,61.6 L2639.68,61.6 C2602,61.6 2597.76,42.32 2597.76,31.84 L2597.76,29.44 C2597.76,18.8 2602,0 2639.68,0 Z M2665.44,30 C2665.44,23.12 2661.44,14.4 2641.36,14.4 C2620.96,14.4 2617.28,23.12 2617.28,30 L2617.28,30.96 C2617.28,37.76 2621.28,47.12 2641.36,47.12 C2661.36,47.12 2665.44,38 2665.44,31.12 L2665.44,30 Z"/>
      <path fill="#FF0226" d="M2714.08,1.04 L2785.2,1.04 L2785.2,13.6 C2782.64,16.48 2776.48,22.96 2770.4,30.96 C2761.28,43.12 2760.72,50.24 2760.72,59.84 L2760.72,60.56 L2739.36,60.56 L2739.36,53.04 C2739.36,43.52 2742.8,37.92 2754.88,26.4 C2763.6,18.16 2766.16,15.68 2766.56,14.48 L2732.96,14.48 L2732.96,26.72 L2714.08,26.72 L2714.08,1.04 Z M2859.6,40.48 C2859.6,50.16 2853.84,61.6 2826.64,61.6 L2822.88,61.6 C2792.96,61.6 2789.12,48.32 2789.12,42.48 L2789.12,41.92 L2808.8,41.92 C2809.04,42.8 2810.32,47.84 2824.72,47.84 C2838.32,47.84 2840.08,43.84 2840.08,40.56 L2840.08,40.08 C2840.08,36.8 2838.32,32.8 2824.72,32.8 C2810.32,32.8 2808.88,36.96 2808.56,37.6 L2790.4,37.6 L2790.4,1.04 L2855.44,1.04 L2855.44,14.88 L2808.72,14.88 L2808.72,25.52 C2809.76,24.56 2815.52,20 2829.92,20 L2830.64,20 C2854.24,20 2859.6,29.12 2859.6,40 L2859.6,40.48 Z M2885.6,34.88 C2866.24,34.88 2863.04,24 2863.04,18.16 L2863.04,16.8 C2863.04,10.88 2866.24,0.32 2885.6,0.32 L2887.52,0.32 C2906.88,0.32 2910,10.88 2910,16.8 L2910,18.16 C2910,24 2906.96,34.88 2887.52,34.88 L2885.6,34.88 Z M2941.28,1.04 L2957.12,1.04 L2892.96,60.56 L2877.2,60.56 L2941.28,1.04 Z M2886.48,25.04 C2894.48,25.04 2897.12,21.28 2897.12,17.84 L2897.12,17.2 C2897.12,13.44 2894.56,10.16 2886.48,10.16 C2878.4,10.16 2876,13.44 2876,17.2 L2876,17.68 C2876,21.28 2878.56,25.04 2886.48,25.04 Z M2948.88,61.2 L2946.88,61.2 C2927.6,61.2 2924.32,50.24 2924.32,44.4 L2924.32,43.04 C2924.32,37.12 2927.6,26.56 2946.88,26.56 L2948.88,26.56 C2968.16,26.56 2971.36,37.12 2971.36,43.04 L2971.36,44.4 C2971.36,50.24 2968.24,61.2 2948.88,61.2 Z M2947.84,51.28 C2955.84,51.28 2958.48,47.52 2958.48,44.08 L2958.48,43.44 C2958.48,39.76 2955.92,36.4 2947.84,36.4 C2939.68,36.4 2937.28,39.76 2937.28,43.44 L2937.28,43.92 C2937.28,47.52 2939.84,51.28 2947.84,51.28 Z"/>
      <path fill="#FFF" d="M3074.48,41.68 C3074.48,51.52 3069.52,61.6 3039.6,61.6 L3034.08,61.6 C3002.88,61.6 2999.28,48.16 2999.28,40.32 L2999.28,39.44 L3018.72,39.44 C3018.96,42.96 3021.04,48.88 3036.4,48.88 L3037.52,48.88 C3053.2,48.88 3054.96,45.76 3054.96,42.56 C3054.96,39.12 3053.12,36.88 3039.36,36.56 L3029.12,36.32 C3006.88,35.68 3000.08,28.16 3000.08,18.88 L3000.08,18.16 C3000.08,9.28 3005.44,0 3032.48,0 L3038,0 C3066.16,0 3072.56,9.84 3072.56,18.8 L3072.56,19.6 L3053.2,19.6 C3052.88,17.28 3051.52,12.48 3036,12.48 L3034.72,12.48 C3020.32,12.48 3019.28,15.12 3019.28,17.6 C3019.28,20.08 3020.8,22.56 3033.04,22.72 L3043.04,22.88 C3065.44,23.36 3074.48,28.72 3074.48,40.56 L3074.48,41.68 Z M3140.48,60.56 L3134.88,49.68 L3098.8,49.68 L3093.44,60.56 L3074.48,60.56 L3104.56,1.04 L3128.72,1.04 L3160.56,60.56 L3140.48,60.56 Z M3105.44,36.24 L3128,36.24 L3116.48,13.92 L3105.44,36.24 Z M3240.8,1.04 L3212,60.56 L3188.8,60.56 L3157.84,1.04 L3178.96,1.04 L3200.88,44.8 L3221.44,1.04 L3240.8,1.04 Z M3243.92,1.04 L3306.64,1.04 L3306.64,14.56 L3262.32,14.56 L3262.32,23.36 L3305.6,23.36 L3305.6,36.96 L3262.32,36.96 L3262.32,46.72 L3307.44,46.72 L3307.44,60.56 L3243.92,60.56 L3243.92,1.04 Z M3415.2,29.92 C3415.2,41.12 3409.2,61.44 3378.64,61.44 L3375.76,61.44 C3343.84,61.44 3338.64,41.12 3338.64,29.92 L3338.64,1.04 L3357.36,1.04 L3357.36,28.8 C3357.36,36.48 3360.8,46 3377.04,46 C3393.04,46 3396.56,36.48 3396.56,28.8 L3396.56,1.04 L3415.2,1.04 L3415.2,29.92 Z M3467.76,40.72 L3441.76,40.72 L3441.76,60.56 L3423.12,60.56 L3423.12,1.04 L3467.76,1.04 C3489.12,1.04 3495.52,9.52 3495.52,20.4 L3495.52,21.2 C3495.52,31.84 3489.04,40.72 3467.76,40.72 Z M3441.76,14.56 L3441.76,27.36 L3467.44,27.36 C3473.28,27.36 3476.08,25.12 3476.08,21.12 L3476.08,20.88 C3476.08,16.88 3473.36,14.56 3467.44,14.56 L3441.76,14.56 Z M3523.52,15.12 L3523.52,1.04 L3593.6,1.04 L3593.6,15.12 L3567.92,15.12 L3567.92,60.56 L3549.12,60.56 L3549.12,15.12 L3523.52,15.12 Z M3639.44,0 L3642.88,0 C3680.32,0 3684.72,18.8 3684.72,29.44 L3684.72,31.84 C3684.72,42.32 3680.4,61.6 3642.88,61.6 L3639.44,61.6 C3601.76,61.6 3597.52,42.32 3597.52,31.84 L3597.52,29.44 C3597.52,18.8 3601.76,0 3639.44,0 Z M3665.2,30 C3665.2,23.12 3661.2,14.4 3641.12,14.4 C3620.72,14.4 3617.04,23.12 3617.04,30 L3617.04,30.96 C3617.04,37.76 3621.04,47.12 3641.12,47.12 C3661.12,47.12 3665.2,38 3665.2,31.12 L3665.2,30 Z"/>
      <path fill="#FF0226" d="M3713.84,1.04 L3784.96,1.04 L3784.96,13.6 C3782.4,16.48 3776.24,22.96 3770.16,30.96 C3761.04,43.12 3760.48,50.24 3760.48,59.84 L3760.48,60.56 L3739.12,60.56 L3739.12,53.04 C3739.12,43.52 3742.56,37.92 3754.64,26.4 C3763.36,18.16 3765.92,15.68 3766.32,14.48 L3732.72,14.48 L3732.72,26.72 L3713.84,26.72 L3713.84,1.04 Z M3859.36,40.48 C3859.36,50.16 3853.6,61.6 3826.4,61.6 L3822.64,61.6 C3792.72,61.6 3788.88,48.32 3788.88,42.48 L3788.88,41.92 L3808.56,41.92 C3808.8,42.8 3810.08,47.84 3824.48,47.84 C3838.08,47.84 3839.84,43.84 3839.84,40.56 L3839.84,40.08 C3839.84,36.8 3838.08,32.8 3824.48,32.8 C3810.08,32.8 3808.64,36.96 3808.32,37.6 L3790.16,37.6 L3790.16,1.04 L3855.2,1.04 L3855.2,14.88 L3808.48,14.88 L3808.48,25.52 C3809.52,24.56 3815.28,20 3829.68,20 L3830.4,20 C3854,20 3859.36,29.12 3859.36,40 L3859.36,40.48 Z M3885.36,34.88 C3866,34.88 3862.8,24 3862.8,18.16 L3862.8,16.8 C3862.8,10.88 3866,0.32 3885.36,0.32 L3887.28,0.32 C3906.64,0.32 3909.76,10.88 3909.76,16.8 L3909.76,18.16 C3909.76,24 3906.72,34.88 3887.28,34.88 L3885.36,34.88 Z M3941.04,1.04 L3956.88,1.04 L3892.72,60.56 L3876.96,60.56 L3941.04,1.04 Z M3886.24,25.04 C3894.24,25.04 3896.88,21.28 3896.88,17.84 L3896.88,17.2 C3896.88,13.44 3894.32,10.16 3886.24,10.16 C3878.16,10.16 3875.76,13.44 3875.76,17.2 L3875.76,17.68 C3875.76,21.28 3878.32,25.04 3886.24,25.04 Z M3948.64,61.2 L3946.64,61.2 C3927.36,61.2 3924.08,50.24 3924.08,44.4 L3924.08,43.04 C3924.08,37.12 3927.36,26.56 3946.64,26.56 L3948.64,26.56 C3967.92,26.56 3971.12,37.12 3971.12,43.04 L3971.12,44.4 C3971.12,50.24 3968,61.2 3948.64,61.2 Z M3947.6,51.28 C3955.6,51.28 3958.24,47.52 3958.24,44.08 L3958.24,43.44 C3958.24,39.76 3955.68,36.4 3947.6,36.4 C3939.44,36.4 3937.04,39.76 3937.04,43.44 L3937.04,43.92 C3937.04,47.52 3939.6,51.28 3947.6,51.28 Z"/>
    </g>
  </g>
</svg>
