<svg xmlns="http://www.w3.org/2000/svg" width="4000" height="102" viewBox="0 0 4000 102">
  <g fill="none" fill-rule="evenodd">
    <rect width="4000" height="102" fill="#000"/>
    <path fill="#FFF" fill-rule="nonzero" d="M0,80.56 L0,21.04 L19.44,21.04 L19.44,66.16 L44.56,66.16 L44.56,21.04 L64,21.04 L64,66.16 L89.12,66.16 L89.12,21.04 L108.56,21.04 L108.56,80.56 L0,80.56 Z M156.72,20 L160.16,20 C197.6,20 202,38.8 202,49.44 L202,51.84 C202,62.32 197.68,81.6 160.16,81.6 L156.72,81.6 C119.04,81.6 114.8,62.32 114.8,51.84 L114.8,49.44 C114.8,38.8 119.04,20 156.72,20 Z M182.48,50 C182.48,43.12 178.48,34.4 158.4,34.4 C138,34.4 134.32,43.12 134.32,50 L134.32,50.96 C134.32,57.76 138.32,67.12 158.4,67.12 C178.4,67.12 182.48,58 182.48,51.12 L182.48,50 Z M258.32,80.56 L226.88,52.48 L226.88,80.56 L208.24,80.56 L208.24,21.04 L226.88,21.04 L226.88,45.84 L257.36,21.04 L281.04,21.04 L246.8,48.24 L282.64,80.56 L258.32,80.56 Z M375.6,90.56 L375.6,80.56 L309.84,80.56 L309.84,21.04 L328.48,21.04 L328.48,66.16 L365.2,66.16 L365.2,21.04 L383.84,21.04 L383.84,66.16 L393.44,66.16 L393.44,90.56 L375.6,90.56 Z M398.16,21.04 L460.88,21.04 L460.88,34.56 L416.56,34.56 L416.56,43.36 L459.84,43.36 L459.84,56.96 L416.56,56.96 L416.56,66.72 L461.68,66.72 L461.68,80.56 L398.16,80.56 L398.16,21.04 Z M527.6,80.56 L527.6,57.12 L487.6,57.12 L487.6,80.56 L468.96,80.56 L468.96,21.04 L487.6,21.04 L487.6,42.72 L527.6,42.72 L527.6,21.04 L546.24,21.04 L546.24,80.56 L527.6,80.56 Z M615.04,80.56 L609.44,69.68 L573.36,69.68 L568,80.56 L549.04,80.56 L579.12,21.04 L603.28,21.04 L635.12,80.56 L615.04,80.56 Z M580,56.24 L602.56,56.24 L591.04,33.92 L580,56.24 Z M662.56,80.56 L662.56,21.04 L682,21.04 L682,66.16 L707.12,66.16 L707.12,21.04 L726.56,21.04 L726.56,66.16 L751.68,66.16 L751.68,21.04 L771.12,21.04 L771.12,80.56 L662.56,80.56 Z M819.28,20 L822.72,20 C860.16,20 864.56,38.8 864.56,49.44 L864.56,51.84 C864.56,62.32 860.24,81.6 822.72,81.6 L819.28,81.6 C781.6,81.6 777.36,62.32 777.36,51.84 L777.36,49.44 C777.36,38.8 781.6,20 819.28,20 Z M845.04,50 C845.04,43.12 841.04,34.4 820.96,34.4 C800.56,34.4 796.88,43.12 796.88,50 L796.88,50.96 C796.88,57.76 800.88,67.12 820.96,67.12 C840.96,67.12 845.04,58 845.04,51.12 L845.04,50 Z M920.88,80.56 L889.44,52.48 L889.44,80.56 L870.8,80.56 L870.8,21.04 L889.44,21.04 L889.44,45.84 L919.92,21.04 L943.6,21.04 L909.36,48.24 L945.2,80.56 L920.88,80.56 Z M1038.16,90.56 L1038.16,80.56 L972.4,80.56 L972.4,21.04 L991.04,21.04 L991.04,66.16 L1027.76,66.16 L1027.76,21.04 L1046.4,21.04 L1046.4,66.16 L1056,66.16 L1056,90.56 L1038.16,90.56 Z M1060.72,21.04 L1123.44,21.04 L1123.44,34.56 L1079.12,34.56 L1079.12,43.36 L1122.4,43.36 L1122.4,56.96 L1079.12,56.96 L1079.12,66.72 L1124.24,66.72 L1124.24,80.56 L1060.72,80.56 L1060.72,21.04 Z M1190.16,80.56 L1190.16,57.12 L1150.16,57.12 L1150.16,80.56 L1131.52,80.56 L1131.52,21.04 L1150.16,21.04 L1150.16,42.72 L1190.16,42.72 L1190.16,21.04 L1208.8,21.04 L1208.8,80.56 L1190.16,80.56 Z M1277.6,80.56 L1272,69.68 L1235.92,69.68 L1230.56,80.56 L1211.6,80.56 L1241.68,21.04 L1265.84,21.04 L1297.68,80.56 L1277.6,80.56 Z M1242.56,56.24 L1265.12,56.24 L1253.6,33.92 L1242.56,56.24 Z M1325.12,80.56 L1325.12,21.04 L1344.56,21.04 L1344.56,66.16 L1369.68,66.16 L1369.68,21.04 L1389.12,21.04 L1389.12,66.16 L1414.24,66.16 L1414.24,21.04 L1433.68,21.04 L1433.68,80.56 L1325.12,80.56 Z M1481.84,20 L1485.28,20 C1522.72,20 1527.12,38.8 1527.12,49.44 L1527.12,51.84 C1527.12,62.32 1522.8,81.6 1485.28,81.6 L1481.84,81.6 C1444.16,81.6 1439.92,62.32 1439.92,51.84 L1439.92,49.44 C1439.92,38.8 1444.16,20 1481.84,20 Z M1507.6,50 C1507.6,43.12 1503.6,34.4 1483.52,34.4 C1463.12,34.4 1459.44,43.12 1459.44,50 L1459.44,50.96 C1459.44,57.76 1463.44,67.12 1483.52,67.12 C1503.52,67.12 1507.6,58 1507.6,51.12 L1507.6,50 Z M1583.44,80.56 L1552,52.48 L1552,80.56 L1533.36,80.56 L1533.36,21.04 L1552,21.04 L1552,45.84 L1582.48,21.04 L1606.16,21.04 L1571.92,48.24 L1607.76,80.56 L1583.44,80.56 Z M1700.72,90.56 L1700.72,80.56 L1634.96,80.56 L1634.96,21.04 L1653.6,21.04 L1653.6,66.16 L1690.32,66.16 L1690.32,21.04 L1708.96,21.04 L1708.96,66.16 L1718.56,66.16 L1718.56,90.56 L1700.72,90.56 Z M1723.28,21.04 L1786,21.04 L1786,34.56 L1741.68,34.56 L1741.68,43.36 L1784.96,43.36 L1784.96,56.96 L1741.68,56.96 L1741.68,66.72 L1786.8,66.72 L1786.8,80.56 L1723.28,80.56 L1723.28,21.04 Z M1852.72,80.56 L1852.72,57.12 L1812.72,57.12 L1812.72,80.56 L1794.08,80.56 L1794.08,21.04 L1812.72,21.04 L1812.72,42.72 L1852.72,42.72 L1852.72,21.04 L1871.36,21.04 L1871.36,80.56 L1852.72,80.56 Z M1940.16,80.56 L1934.56,69.68 L1898.48,69.68 L1893.12,80.56 L1874.16,80.56 L1904.24,21.04 L1928.4,21.04 L1960.24,80.56 L1940.16,80.56 Z M1905.12,56.24 L1927.68,56.24 L1916.16,33.92 L1905.12,56.24 Z M1987.68,80.56 L1987.68,21.04 L2007.12,21.04 L2007.12,66.16 L2032.24,66.16 L2032.24,21.04 L2051.68,21.04 L2051.68,66.16 L2076.8,66.16 L2076.8,21.04 L2096.24,21.04 L2096.24,80.56 L1987.68,80.56 Z M2144.4,20 L2147.84,20 C2185.28,20 2189.68,38.8 2189.68,49.44 L2189.68,51.84 C2189.68,62.32 2185.36,81.6 2147.84,81.6 L2144.4,81.6 C2106.72,81.6 2102.48,62.32 2102.48,51.84 L2102.48,49.44 C2102.48,38.8 2106.72,20 2144.4,20 Z M2170.16,50 C2170.16,43.12 2166.16,34.4 2146.08,34.4 C2125.68,34.4 2122,43.12 2122,50 L2122,50.96 C2122,57.76 2126,67.12 2146.08,67.12 C2166.08,67.12 2170.16,58 2170.16,51.12 L2170.16,50 Z M2246,80.56 L2214.56,52.48 L2214.56,80.56 L2195.92,80.56 L2195.92,21.04 L2214.56,21.04 L2214.56,45.84 L2245.04,21.04 L2268.72,21.04 L2234.48,48.24 L2270.32,80.56 L2246,80.56 Z M2363.28,90.56 L2363.28,80.56 L2297.52,80.56 L2297.52,21.04 L2316.16,21.04 L2316.16,66.16 L2352.88,66.16 L2352.88,21.04 L2371.52,21.04 L2371.52,66.16 L2381.12,66.16 L2381.12,90.56 L2363.28,90.56 Z M2385.84,21.04 L2448.56,21.04 L2448.56,34.56 L2404.24,34.56 L2404.24,43.36 L2447.52,43.36 L2447.52,56.96 L2404.24,56.96 L2404.24,66.72 L2449.36,66.72 L2449.36,80.56 L2385.84,80.56 L2385.84,21.04 Z M2515.28,80.56 L2515.28,57.12 L2475.28,57.12 L2475.28,80.56 L2456.64,80.56 L2456.64,21.04 L2475.28,21.04 L2475.28,42.72 L2515.28,42.72 L2515.28,21.04 L2533.92,21.04 L2533.92,80.56 L2515.28,80.56 Z M2602.72,80.56 L2597.12,69.68 L2561.04,69.68 L2555.68,80.56 L2536.72,80.56 L2566.8,21.04 L2590.96,21.04 L2622.8,80.56 L2602.72,80.56 Z M2567.68,56.24 L2590.24,56.24 L2578.72,33.92 L2567.68,56.24 Z M2650.24,80.56 L2650.24,21.04 L2669.68,21.04 L2669.68,66.16 L2694.8,66.16 L2694.8,21.04 L2714.24,21.04 L2714.24,66.16 L2739.36,66.16 L2739.36,21.04 L2758.8,21.04 L2758.8,80.56 L2650.24,80.56 Z M2806.96,20 L2810.4,20 C2847.84,20 2852.24,38.8 2852.24,49.44 L2852.24,51.84 C2852.24,62.32 2847.92,81.6 2810.4,81.6 L2806.96,81.6 C2769.28,81.6 2765.04,62.32 2765.04,51.84 L2765.04,49.44 C2765.04,38.8 2769.28,20 2806.96,20 Z M2832.72,50 C2832.72,43.12 2828.72,34.4 2808.64,34.4 C2788.24,34.4 2784.56,43.12 2784.56,50 L2784.56,50.96 C2784.56,57.76 2788.56,67.12 2808.64,67.12 C2828.64,67.12 2832.72,58 2832.72,51.12 L2832.72,50 Z M2908.56,80.56 L2877.12,52.48 L2877.12,80.56 L2858.48,80.56 L2858.48,21.04 L2877.12,21.04 L2877.12,45.84 L2907.6,21.04 L2931.28,21.04 L2897.04,48.24 L2932.88,80.56 L2908.56,80.56 Z M3025.84,90.56 L3025.84,80.56 L2960.08,80.56 L2960.08,21.04 L2978.72,21.04 L2978.72,66.16 L3015.44,66.16 L3015.44,21.04 L3034.08,21.04 L3034.08,66.16 L3043.68,66.16 L3043.68,90.56 L3025.84,90.56 Z M3048.4,21.04 L3111.12,21.04 L3111.12,34.56 L3066.8,34.56 L3066.8,43.36 L3110.08,43.36 L3110.08,56.96 L3066.8,56.96 L3066.8,66.72 L3111.92,66.72 L3111.92,80.56 L3048.4,80.56 L3048.4,21.04 Z M3177.84,80.56 L3177.84,57.12 L3137.84,57.12 L3137.84,80.56 L3119.2,80.56 L3119.2,21.04 L3137.84,21.04 L3137.84,42.72 L3177.84,42.72 L3177.84,21.04 L3196.48,21.04 L3196.48,80.56 L3177.84,80.56 Z M3265.28,80.56 L3259.68,69.68 L3223.6,69.68 L3218.24,80.56 L3199.28,80.56 L3229.36,21.04 L3253.52,21.04 L3285.36,80.56 L3265.28,80.56 Z M3230.24,56.24 L3252.8,56.24 L3241.28,33.92 L3230.24,56.24 Z M3312.8,80.56 L3312.8,21.04 L3332.24,21.04 L3332.24,66.16 L3357.36,66.16 L3357.36,21.04 L3376.8,21.04 L3376.8,66.16 L3401.92,66.16 L3401.92,21.04 L3421.36,21.04 L3421.36,80.56 L3312.8,80.56 Z M3469.52,20 L3472.96,20 C3510.4,20 3514.8,38.8 3514.8,49.44 L3514.8,51.84 C3514.8,62.32 3510.48,81.6 3472.96,81.6 L3469.52,81.6 C3431.84,81.6 3427.6,62.32 3427.6,51.84 L3427.6,49.44 C3427.6,38.8 3431.84,20 3469.52,20 Z M3495.28,50 C3495.28,43.12 3491.28,34.4 3471.2,34.4 C3450.8,34.4 3447.12,43.12 3447.12,50 L3447.12,50.96 C3447.12,57.76 3451.12,67.12 3471.2,67.12 C3491.2,67.12 3495.28,58 3495.28,51.12 L3495.28,50 Z M3571.12,80.56 L3539.68,52.48 L3539.68,80.56 L3521.04,80.56 L3521.04,21.04 L3539.68,21.04 L3539.68,45.84 L3570.16,21.04 L3593.84,21.04 L3559.6,48.24 L3595.44,80.56 L3571.12,80.56 Z M3688.4,90.56 L3688.4,80.56 L3622.64,80.56 L3622.64,21.04 L3641.28,21.04 L3641.28,66.16 L3678,66.16 L3678,21.04 L3696.64,21.04 L3696.64,66.16 L3706.24,66.16 L3706.24,90.56 L3688.4,90.56 Z M3710.96,21.04 L3773.68,21.04 L3773.68,34.56 L3729.36,34.56 L3729.36,43.36 L3772.64,43.36 L3772.64,56.96 L3729.36,56.96 L3729.36,66.72 L3774.48,66.72 L3774.48,80.56 L3710.96,80.56 L3710.96,21.04 Z M3840.4,80.56 L3840.4,57.12 L3800.4,57.12 L3800.4,80.56 L3781.76,80.56 L3781.76,21.04 L3800.4,21.04 L3800.4,42.72 L3840.4,42.72 L3840.4,21.04 L3859.04,21.04 L3859.04,80.56 L3840.4,80.56 Z M3927.84,80.56 L3922.24,69.68 L3886.16,69.68 L3880.8,80.56 L3861.84,80.56 L3891.92,21.04 L3916.08,21.04 L3947.92,80.56 L3927.84,80.56 Z M3892.8,56.24 L3915.36,56.24 L3903.84,33.92 L3892.8,56.24 Z"/>
  </g>
</svg>
