<svg xmlns="http://www.w3.org/2000/svg" width="4215" height="102" viewBox="0 0 4215 102">
  <g fill="none" fill-rule="evenodd">
    <rect width="4215" height="102" fill="#000"/>
    <path fill="#FFF" fill-rule="nonzero" d="M75.2,61.68 C75.2,71.52 70.24,81.6 40.32,81.6 L34.8,81.6 C3.6,81.6 0,68.16 0,60.32 L0,59.44 L19.44,59.44 C19.68,62.96 21.76,68.88 37.12,68.88 L38.24,68.88 C53.92,68.88 55.68,65.76 55.68,62.56 C55.68,59.12 53.84,56.88 40.08,56.56 L29.84,56.32 C7.6,55.68 0.8,48.16 0.8,38.88 L0.8,38.16 C0.8,29.28 6.16,20 33.2,20 L38.72,20 C66.88,20 73.28,29.84 73.28,38.8 L73.28,39.6 L53.92,39.6 C53.6,37.28 52.24,32.48 36.72,32.48 L35.44,32.48 C21.04,32.48 20,35.12 20,37.6 C20,40.08 21.52,42.56 33.76,42.72 L43.76,42.88 C66.16,43.36 75.2,48.72 75.2,60.56 L75.2,61.68 Z M125.68,60.72 L99.68,60.72 L99.68,80.56 L81.04,80.56 L81.04,21.04 L125.68,21.04 C147.04,21.04 153.44,29.52 153.44,40.4 L153.44,41.2 C153.44,51.84 146.96,60.72 125.68,60.72 Z M99.68,34.56 L99.68,47.36 L125.36,47.36 C131.2,47.36 134,45.12 134,41.12 L134,40.88 C134,36.88 131.28,34.56 125.36,34.56 L99.68,34.56 Z M159.12,21.04 L221.84,21.04 L221.84,34.56 L177.52,34.56 L177.52,43.36 L220.8,43.36 L220.8,56.96 L177.52,56.96 L177.52,66.72 L222.64,66.72 L222.64,80.56 L159.12,80.56 L159.12,21.04 Z M310.56,57.44 C310.56,64.96 304.72,81.6 270.64,81.6 L267.36,81.6 C232.88,81.6 227.52,62.4 227.52,51.76 L227.52,49.44 C227.52,38.64 232.24,20 267.36,20 L270.64,20 C305.2,20 310.4,36.48 310.48,43.44 L310.48,44.32 L290.72,44.32 C290.24,42.72 287.92,34.4 268.96,34.4 C251.12,34.4 247.04,42.4 247.04,49.84 L247.04,50.8 C247.04,57.76 251.76,67.12 269.12,67.12 C288.4,67.12 290.4,57.92 290.8,56.56 L310.56,56.56 L310.56,57.44 Z M335.2,21.04 L335.2,80.56 L316.56,80.56 L316.56,21.04 L335.2,21.04 Z M404,80.56 L398.4,69.68 L362.32,69.68 L356.96,80.56 L338,80.56 L368.08,21.04 L392.24,21.04 L424.08,80.56 L404,80.56 Z M368.96,56.24 L391.52,56.24 L380,33.92 L368.96,56.24 Z M426.88,21.04 L445.52,21.04 L445.52,65.76 L486.88,65.76 L486.88,80.56 L426.88,80.56 L426.88,21.04 Z M557.44,20 L560.88,20 C598.32,20 602.72,38.8 602.72,49.44 L602.72,51.84 C602.72,62.32 598.4,81.6 560.88,81.6 L557.44,81.6 C519.76,81.6 515.52,62.32 515.52,51.84 L515.52,49.44 C515.52,38.8 519.76,20 557.44,20 Z M583.2,50 C583.2,43.12 579.2,34.4 559.12,34.4 C538.72,34.4 535.04,43.12 535.04,50 L535.04,50.96 C535.04,57.76 539.04,67.12 559.12,67.12 C579.12,67.12 583.2,58 583.2,51.12 L583.2,50 Z M608.96,21.04 L670.48,21.04 L670.48,34.56 L627.52,34.56 L627.52,43.36 L669.44,43.36 L669.44,56.96 L627.52,56.96 L627.52,80.56 L608.96,80.56 L608.96,21.04 Z M677.84,21.04 L739.36,21.04 L739.36,34.56 L696.4,34.56 L696.4,43.36 L738.32,43.36 L738.32,56.96 L696.4,56.96 L696.4,80.56 L677.84,80.56 L677.84,21.04 Z M746.72,21.04 L809.44,21.04 L809.44,34.56 L765.12,34.56 L765.12,43.36 L808.4,43.36 L808.4,56.96 L765.12,56.96 L765.12,66.72 L810.24,66.72 L810.24,80.56 L746.72,80.56 L746.72,21.04 Z M836.16,59.44 L836.16,80.56 L817.52,80.56 L817.52,21.04 L865.52,21.04 C885.36,21.04 891.36,27.92 891.36,36.48 L891.36,37.44 C891.36,45.92 884.24,49.28 880.32,50.48 C886.4,52.08 891.6,56.56 891.6,64.16 L891.6,72.88 C891.6,77.68 892.24,79.2 892.72,80.16 L892.72,80.56 L873.76,80.56 C873.2,79.84 872.88,78.88 872.88,76.8 L872.88,69.92 C872.88,62.64 869.68,59.44 860.48,59.44 L836.16,59.44 Z M836.16,34.56 L836.16,46.24 L864.4,46.24 C869.68,46.24 871.92,43.68 871.92,40.4 L871.92,40.32 C871.92,37.2 869.84,34.56 864.4,34.56 L836.16,34.56 Z M995.28,61.68 C995.28,71.52 990.32,81.6 960.4,81.6 L954.88,81.6 C923.68,81.6 920.08,68.16 920.08,60.32 L920.08,59.44 L939.52,59.44 C939.76,62.96 941.84,68.88 957.2,68.88 L958.32,68.88 C974,68.88 975.76,65.76 975.76,62.56 C975.76,59.12 973.92,56.88 960.16,56.56 L949.92,56.32 C927.68,55.68 920.88,48.16 920.88,38.88 L920.88,38.16 C920.88,29.28 926.24,20 953.28,20 L958.8,20 C986.96,20 993.36,29.84 993.36,38.8 L993.36,39.6 L974,39.6 C973.68,37.28 972.32,32.48 956.8,32.48 L955.52,32.48 C941.12,32.48 940.08,35.12 940.08,37.6 C940.08,40.08 941.6,42.56 953.84,42.72 L963.84,42.88 C986.24,43.36 995.28,48.72 995.28,60.56 L995.28,61.68 Z M1045.76,60.72 L1019.76,60.72 L1019.76,80.56 L1001.12,80.56 L1001.12,21.04 L1045.76,21.04 C1067.12,21.04 1073.52,29.52 1073.52,40.4 L1073.52,41.2 C1073.52,51.84 1067.04,60.72 1045.76,60.72 Z M1019.76,34.56 L1019.76,47.36 L1045.44,47.36 C1051.28,47.36 1054.08,45.12 1054.08,41.12 L1054.08,40.88 C1054.08,36.88 1051.36,34.56 1045.44,34.56 L1019.76,34.56 Z M1079.2,21.04 L1141.92,21.04 L1141.92,34.56 L1097.6,34.56 L1097.6,43.36 L1140.88,43.36 L1140.88,56.96 L1097.6,56.96 L1097.6,66.72 L1142.72,66.72 L1142.72,80.56 L1079.2,80.56 L1079.2,21.04 Z M1230.64,57.44 C1230.64,64.96 1224.8,81.6 1190.72,81.6 L1187.44,81.6 C1152.96,81.6 1147.6,62.4 1147.6,51.76 L1147.6,49.44 C1147.6,38.64 1152.32,20 1187.44,20 L1190.72,20 C1225.28,20 1230.48,36.48 1230.56,43.44 L1230.56,44.32 L1210.8,44.32 C1210.32,42.72 1208,34.4 1189.04,34.4 C1171.2,34.4 1167.12,42.4 1167.12,49.84 L1167.12,50.8 C1167.12,57.76 1171.84,67.12 1189.2,67.12 C1208.48,67.12 1210.48,57.92 1210.88,56.56 L1230.64,56.56 L1230.64,57.44 Z M1255.28,21.04 L1255.28,80.56 L1236.64,80.56 L1236.64,21.04 L1255.28,21.04 Z M1324.08,80.56 L1318.48,69.68 L1282.4,69.68 L1277.04,80.56 L1258.08,80.56 L1288.16,21.04 L1312.32,21.04 L1344.16,80.56 L1324.08,80.56 Z M1289.04,56.24 L1311.6,56.24 L1300.08,33.92 L1289.04,56.24 Z M1346.96,21.04 L1365.6,21.04 L1365.6,65.76 L1406.96,65.76 L1406.96,80.56 L1346.96,80.56 L1346.96,21.04 Z M1477.52,20 L1480.96,20 C1518.4,20 1522.8,38.8 1522.8,49.44 L1522.8,51.84 C1522.8,62.32 1518.48,81.6 1480.96,81.6 L1477.52,81.6 C1439.84,81.6 1435.6,62.32 1435.6,51.84 L1435.6,49.44 C1435.6,38.8 1439.84,20 1477.52,20 Z M1503.28,50 C1503.28,43.12 1499.28,34.4 1479.2,34.4 C1458.8,34.4 1455.12,43.12 1455.12,50 L1455.12,50.96 C1455.12,57.76 1459.12,67.12 1479.2,67.12 C1499.2,67.12 1503.28,58 1503.28,51.12 L1503.28,50 Z M1529.04,21.04 L1590.56,21.04 L1590.56,34.56 L1547.6,34.56 L1547.6,43.36 L1589.52,43.36 L1589.52,56.96 L1547.6,56.96 L1547.6,80.56 L1529.04,80.56 L1529.04,21.04 Z M1597.92,21.04 L1659.44,21.04 L1659.44,34.56 L1616.48,34.56 L1616.48,43.36 L1658.4,43.36 L1658.4,56.96 L1616.48,56.96 L1616.48,80.56 L1597.92,80.56 L1597.92,21.04 Z M1666.8,21.04 L1729.52,21.04 L1729.52,34.56 L1685.2,34.56 L1685.2,43.36 L1728.48,43.36 L1728.48,56.96 L1685.2,56.96 L1685.2,66.72 L1730.32,66.72 L1730.32,80.56 L1666.8,80.56 L1666.8,21.04 Z M1756.24,59.44 L1756.24,80.56 L1737.6,80.56 L1737.6,21.04 L1785.6,21.04 C1805.44,21.04 1811.44,27.92 1811.44,36.48 L1811.44,37.44 C1811.44,45.92 1804.32,49.28 1800.4,50.48 C1806.48,52.08 1811.68,56.56 1811.68,64.16 L1811.68,72.88 C1811.68,77.68 1812.32,79.2 1812.8,80.16 L1812.8,80.56 L1793.84,80.56 C1793.28,79.84 1792.96,78.88 1792.96,76.8 L1792.96,69.92 C1792.96,62.64 1789.76,59.44 1780.56,59.44 L1756.24,59.44 Z M1756.24,34.56 L1756.24,46.24 L1784.48,46.24 C1789.76,46.24 1792,43.68 1792,40.4 L1792,40.32 C1792,37.2 1789.92,34.56 1784.48,34.56 L1756.24,34.56 Z M1915.36,61.68 C1915.36,71.52 1910.4,81.6 1880.48,81.6 L1874.96,81.6 C1843.76,81.6 1840.16,68.16 1840.16,60.32 L1840.16,59.44 L1859.6,59.44 C1859.84,62.96 1861.92,68.88 1877.28,68.88 L1878.4,68.88 C1894.08,68.88 1895.84,65.76 1895.84,62.56 C1895.84,59.12 1894,56.88 1880.24,56.56 L1870,56.32 C1847.76,55.68 1840.96,48.16 1840.96,38.88 L1840.96,38.16 C1840.96,29.28 1846.32,20 1873.36,20 L1878.88,20 C1907.04,20 1913.44,29.84 1913.44,38.8 L1913.44,39.6 L1894.08,39.6 C1893.76,37.28 1892.4,32.48 1876.88,32.48 L1875.6,32.48 C1861.2,32.48 1860.16,35.12 1860.16,37.6 C1860.16,40.08 1861.68,42.56 1873.92,42.72 L1883.92,42.88 C1906.32,43.36 1915.36,48.72 1915.36,60.56 L1915.36,61.68 Z M1965.84,60.72 L1939.84,60.72 L1939.84,80.56 L1921.2,80.56 L1921.2,21.04 L1965.84,21.04 C1987.2,21.04 1993.6,29.52 1993.6,40.4 L1993.6,41.2 C1993.6,51.84 1987.12,60.72 1965.84,60.72 Z M1939.84,34.56 L1939.84,47.36 L1965.52,47.36 C1971.36,47.36 1974.16,45.12 1974.16,41.12 L1974.16,40.88 C1974.16,36.88 1971.44,34.56 1965.52,34.56 L1939.84,34.56 Z M1999.28,21.04 L2062,21.04 L2062,34.56 L2017.68,34.56 L2017.68,43.36 L2060.96,43.36 L2060.96,56.96 L2017.68,56.96 L2017.68,66.72 L2062.8,66.72 L2062.8,80.56 L1999.28,80.56 L1999.28,21.04 Z M2150.72,57.44 C2150.72,64.96 2144.88,81.6 2110.8,81.6 L2107.52,81.6 C2073.04,81.6 2067.68,62.4 2067.68,51.76 L2067.68,49.44 C2067.68,38.64 2072.4,20 2107.52,20 L2110.8,20 C2145.36,20 2150.56,36.48 2150.64,43.44 L2150.64,44.32 L2130.88,44.32 C2130.4,42.72 2128.08,34.4 2109.12,34.4 C2091.28,34.4 2087.2,42.4 2087.2,49.84 L2087.2,50.8 C2087.2,57.76 2091.92,67.12 2109.28,67.12 C2128.56,67.12 2130.56,57.92 2130.96,56.56 L2150.72,56.56 L2150.72,57.44 Z M2175.36,21.04 L2175.36,80.56 L2156.72,80.56 L2156.72,21.04 L2175.36,21.04 Z M2244.16,80.56 L2238.56,69.68 L2202.48,69.68 L2197.12,80.56 L2178.16,80.56 L2208.24,21.04 L2232.4,21.04 L2264.24,80.56 L2244.16,80.56 Z M2209.12,56.24 L2231.68,56.24 L2220.16,33.92 L2209.12,56.24 Z M2267.04,21.04 L2285.68,21.04 L2285.68,65.76 L2327.04,65.76 L2327.04,80.56 L2267.04,80.56 L2267.04,21.04 Z M2397.6,20 L2401.04,20 C2438.48,20 2442.88,38.8 2442.88,49.44 L2442.88,51.84 C2442.88,62.32 2438.56,81.6 2401.04,81.6 L2397.6,81.6 C2359.92,81.6 2355.68,62.32 2355.68,51.84 L2355.68,49.44 C2355.68,38.8 2359.92,20 2397.6,20 Z M2423.36,50 C2423.36,43.12 2419.36,34.4 2399.28,34.4 C2378.88,34.4 2375.2,43.12 2375.2,50 L2375.2,50.96 C2375.2,57.76 2379.2,67.12 2399.28,67.12 C2419.28,67.12 2423.36,58 2423.36,51.12 L2423.36,50 Z M2449.12,21.04 L2510.64,21.04 L2510.64,34.56 L2467.68,34.56 L2467.68,43.36 L2509.6,43.36 L2509.6,56.96 L2467.68,56.96 L2467.68,80.56 L2449.12,80.56 L2449.12,21.04 Z M2518,21.04 L2579.52,21.04 L2579.52,34.56 L2536.56,34.56 L2536.56,43.36 L2578.48,43.36 L2578.48,56.96 L2536.56,56.96 L2536.56,80.56 L2518,80.56 L2518,21.04 Z M2586.88,21.04 L2649.6,21.04 L2649.6,34.56 L2605.28,34.56 L2605.28,43.36 L2648.56,43.36 L2648.56,56.96 L2605.28,56.96 L2605.28,66.72 L2650.4,66.72 L2650.4,80.56 L2586.88,80.56 L2586.88,21.04 Z M2676.32,59.44 L2676.32,80.56 L2657.68,80.56 L2657.68,21.04 L2705.68,21.04 C2725.52,21.04 2731.52,27.92 2731.52,36.48 L2731.52,37.44 C2731.52,45.92 2724.4,49.28 2720.48,50.48 C2726.56,52.08 2731.76,56.56 2731.76,64.16 L2731.76,72.88 C2731.76,77.68 2732.4,79.2 2732.88,80.16 L2732.88,80.56 L2713.92,80.56 C2713.36,79.84 2713.04,78.88 2713.04,76.8 L2713.04,69.92 C2713.04,62.64 2709.84,59.44 2700.64,59.44 L2676.32,59.44 Z M2676.32,34.56 L2676.32,46.24 L2704.56,46.24 C2709.84,46.24 2712.08,43.68 2712.08,40.4 L2712.08,40.32 C2712.08,37.2 2710,34.56 2704.56,34.56 L2676.32,34.56 Z M2835.44,61.68 C2835.44,71.52 2830.48,81.6 2800.56,81.6 L2795.04,81.6 C2763.84,81.6 2760.24,68.16 2760.24,60.32 L2760.24,59.44 L2779.68,59.44 C2779.92,62.96 2782,68.88 2797.36,68.88 L2798.48,68.88 C2814.16,68.88 2815.92,65.76 2815.92,62.56 C2815.92,59.12 2814.08,56.88 2800.32,56.56 L2790.08,56.32 C2767.84,55.68 2761.04,48.16 2761.04,38.88 L2761.04,38.16 C2761.04,29.28 2766.4,20 2793.44,20 L2798.96,20 C2827.12,20 2833.52,29.84 2833.52,38.8 L2833.52,39.6 L2814.16,39.6 C2813.84,37.28 2812.48,32.48 2796.96,32.48 L2795.68,32.48 C2781.28,32.48 2780.24,35.12 2780.24,37.6 C2780.24,40.08 2781.76,42.56 2794,42.72 L2804,42.88 C2826.4,43.36 2835.44,48.72 2835.44,60.56 L2835.44,61.68 Z M2885.92,60.72 L2859.92,60.72 L2859.92,80.56 L2841.28,80.56 L2841.28,21.04 L2885.92,21.04 C2907.28,21.04 2913.68,29.52 2913.68,40.4 L2913.68,41.2 C2913.68,51.84 2907.2,60.72 2885.92,60.72 Z M2859.92,34.56 L2859.92,47.36 L2885.6,47.36 C2891.44,47.36 2894.24,45.12 2894.24,41.12 L2894.24,40.88 C2894.24,36.88 2891.52,34.56 2885.6,34.56 L2859.92,34.56 Z M2919.36,21.04 L2982.08,21.04 L2982.08,34.56 L2937.76,34.56 L2937.76,43.36 L2981.04,43.36 L2981.04,56.96 L2937.76,56.96 L2937.76,66.72 L2982.88,66.72 L2982.88,80.56 L2919.36,80.56 L2919.36,21.04 Z M3070.8,57.44 C3070.8,64.96 3064.96,81.6 3030.88,81.6 L3027.6,81.6 C2993.12,81.6 2987.76,62.4 2987.76,51.76 L2987.76,49.44 C2987.76,38.64 2992.48,20 3027.6,20 L3030.88,20 C3065.44,20 3070.64,36.48 3070.72,43.44 L3070.72,44.32 L3050.96,44.32 C3050.48,42.72 3048.16,34.4 3029.2,34.4 C3011.36,34.4 3007.28,42.4 3007.28,49.84 L3007.28,50.8 C3007.28,57.76 3012,67.12 3029.36,67.12 C3048.64,67.12 3050.64,57.92 3051.04,56.56 L3070.8,56.56 L3070.8,57.44 Z M3095.44,21.04 L3095.44,80.56 L3076.8,80.56 L3076.8,21.04 L3095.44,21.04 Z M3164.24,80.56 L3158.64,69.68 L3122.56,69.68 L3117.2,80.56 L3098.24,80.56 L3128.32,21.04 L3152.48,21.04 L3184.32,80.56 L3164.24,80.56 Z M3129.2,56.24 L3151.76,56.24 L3140.24,33.92 L3129.2,56.24 Z M3187.12,21.04 L3205.76,21.04 L3205.76,65.76 L3247.12,65.76 L3247.12,80.56 L3187.12,80.56 L3187.12,21.04 Z M3350.32,61.68 C3350.32,71.52 3345.36,81.6 3315.44,81.6 L3309.92,81.6 C3278.72,81.6 3275.12,68.16 3275.12,60.32 L3275.12,59.44 L3294.56,59.44 C3294.8,62.96 3296.88,68.88 3312.24,68.88 L3313.36,68.88 C3329.04,68.88 3330.8,65.76 3330.8,62.56 C3330.8,59.12 3328.96,56.88 3315.2,56.56 L3304.96,56.32 C3282.72,55.68 3275.92,48.16 3275.92,38.88 L3275.92,38.16 C3275.92,29.28 3281.28,20 3308.32,20 L3313.84,20 C3342,20 3348.4,29.84 3348.4,38.8 L3348.4,39.6 L3329.04,39.6 C3328.72,37.28 3327.36,32.48 3311.84,32.48 L3310.56,32.48 C3296.16,32.48 3295.12,35.12 3295.12,37.6 C3295.12,40.08 3296.64,42.56 3308.88,42.72 L3318.88,42.88 C3341.28,43.36 3350.32,48.72 3350.32,60.56 L3350.32,61.68 Z M3400.8,60.72 L3374.8,60.72 L3374.8,80.56 L3356.16,80.56 L3356.16,21.04 L3400.8,21.04 C3422.16,21.04 3428.56,29.52 3428.56,40.4 L3428.56,41.2 C3428.56,51.84 3422.08,60.72 3400.8,60.72 Z M3374.8,34.56 L3374.8,47.36 L3400.48,47.36 C3406.32,47.36 3409.12,45.12 3409.12,41.12 L3409.12,40.88 C3409.12,36.88 3406.4,34.56 3400.48,34.56 L3374.8,34.56 Z M3434.24,21.04 L3496.96,21.04 L3496.96,34.56 L3452.64,34.56 L3452.64,43.36 L3495.92,43.36 L3495.92,56.96 L3452.64,56.96 L3452.64,66.72 L3497.76,66.72 L3497.76,80.56 L3434.24,80.56 L3434.24,21.04 Z M3585.68,57.44 C3585.68,64.96 3579.84,81.6 3545.76,81.6 L3542.48,81.6 C3508,81.6 3502.64,62.4 3502.64,51.76 L3502.64,49.44 C3502.64,38.64 3507.36,20 3542.48,20 L3545.76,20 C3580.32,20 3585.52,36.48 3585.6,43.44 L3585.6,44.32 L3565.84,44.32 C3565.36,42.72 3563.04,34.4 3544.08,34.4 C3526.24,34.4 3522.16,42.4 3522.16,49.84 L3522.16,50.8 C3522.16,57.76 3526.88,67.12 3544.24,67.12 C3563.52,67.12 3565.52,57.92 3565.92,56.56 L3585.68,56.56 L3585.68,57.44 Z M3610.32,21.04 L3610.32,80.56 L3591.68,80.56 L3591.68,21.04 L3610.32,21.04 Z M3679.12,80.56 L3673.52,69.68 L3637.44,69.68 L3632.08,80.56 L3613.12,80.56 L3643.2,21.04 L3667.36,21.04 L3699.2,80.56 L3679.12,80.56 Z M3644.08,56.24 L3666.64,56.24 L3655.12,33.92 L3644.08,56.24 Z M3702,21.04 L3720.64,21.04 L3720.64,65.76 L3762,65.76 L3762,80.56 L3702,80.56 L3702,21.04 Z M3832.56,20 L3836,20 C3873.44,20 3877.84,38.8 3877.84,49.44 L3877.84,51.84 C3877.84,62.32 3873.52,81.6 3836,81.6 L3832.56,81.6 C3794.88,81.6 3790.64,62.32 3790.64,51.84 L3790.64,49.44 C3790.64,38.8 3794.88,20 3832.56,20 Z M3858.32,50 C3858.32,43.12 3854.32,34.4 3834.24,34.4 C3813.84,34.4 3810.16,43.12 3810.16,50 L3810.16,50.96 C3810.16,57.76 3814.16,67.12 3834.24,67.12 C3854.24,67.12 3858.32,58 3858.32,51.12 L3858.32,50 Z M3884.08,21.04 L3945.6,21.04 L3945.6,34.56 L3902.64,34.56 L3902.64,43.36 L3944.56,43.36 L3944.56,56.96 L3902.64,56.96 L3902.64,80.56 L3884.08,80.56 L3884.08,21.04 Z M3952.96,21.04 L4014.48,21.04 L4014.48,34.56 L3971.52,34.56 L3971.52,43.36 L4013.44,43.36 L4013.44,56.96 L3971.52,56.96 L3971.52,80.56 L3952.96,80.56 L3952.96,21.04 Z M4021.84,21.04 L4084.56,21.04 L4084.56,34.56 L4040.24,34.56 L4040.24,43.36 L4083.52,43.36 L4083.52,56.96 L4040.24,56.96 L4040.24,66.72 L4085.36,66.72 L4085.36,80.56 L4021.84,80.56 L4021.84,21.04 Z M4111.28,59.44 L4111.28,80.56 L4092.64,80.56 L4092.64,21.04 L4140.64,21.04 C4160.48,21.04 4166.48,27.92 4166.48,36.48 L4166.48,37.44 C4166.48,45.92 4159.36,49.28 4155.44,50.48 C4161.52,52.08 4166.72,56.56 4166.72,64.16 L4166.72,72.88 C4166.72,77.68 4167.36,79.2 4167.84,80.16 L4167.84,80.56 L4148.88,80.56 C4148.32,79.84 4148,78.88 4148,76.8 L4148,69.92 C4148,62.64 4144.8,59.44 4135.6,59.44 L4111.28,59.44 Z M4111.28,34.56 L4111.28,46.24 L4139.52,46.24 C4144.8,46.24 4147.04,43.68 4147.04,40.4 L4147.04,40.32 C4147.04,37.2 4144.96,34.56 4139.52,34.56 L4111.28,34.56 Z"/>
  </g>
</svg>
