<svg xmlns="http://www.w3.org/2000/svg" width="3890" height="102" viewBox="0 0 3890 102">
  <g fill="none" fill-rule="evenodd">
    <rect width="3890" height="102" fill="#000"/>
    <g fill-rule="nonzero" transform="translate(0 20)">
      <path fill="#FF0226" d="M70.48,40.48 C70.48,50.16 64.72,61.6 37.52,61.6 L33.76,61.6 C3.84,61.6 -9.09494702e-13,48.32 -9.09494702e-13,42.48 L-9.09494702e-13,41.92 L19.68,41.92 C19.92,42.8 21.2,47.84 35.6,47.84 C49.2,47.84 50.96,43.84 50.96,40.56 L50.96,40.08 C50.96,36.8 49.2,32.8 35.6,32.8 C21.2,32.8 19.76,36.96 19.44,37.6 L1.28,37.6 L1.28,1.04 L66.32,1.04 L66.32,14.88 L19.6,14.88 L19.6,25.52 C20.64,24.56 26.4,20 40.8,20 L41.52,20 C65.12,20 70.48,29.12 70.48,40 L70.48,40.48 Z M157.68,29.44 L157.68,31.84 C157.68,42.24 152.88,61.6 117.52,61.6 L114,61.6 C78.8,61.6 73.84,42.24 73.84,31.84 L73.84,29.44 C73.84,18.88 78.8,0 114,0 L117.52,0 C152.8,0 157.68,18.88 157.68,29.44 Z M138.16,31.12 L138.16,30 C138.16,23.2 134,14.48 115.76,14.48 C97.2,14.48 93.36,23.2 93.36,30 L93.36,30.96 C93.36,37.68 97.6,47.04 115.76,47.04 C133.92,47.04 138.16,37.92 138.16,31.12 Z M184.16,34.88 C164.8,34.88 161.6,24 161.6,18.16 L161.6,16.8 C161.6,10.88 164.8,0.32 184.16,0.32 L186.08,0.32 C205.44,0.32 208.56,10.88 208.56,16.8 L208.56,18.16 C208.56,24 205.52,34.88 186.08,34.88 L184.16,34.88 Z M239.84,1.04 L255.68,1.04 L191.52,60.56 L175.76,60.56 L239.84,1.04 Z M185.04,25.04 C193.04,25.04 195.68,21.28 195.68,17.84 L195.68,17.2 C195.68,13.44 193.12,10.16 185.04,10.16 C176.96,10.16 174.56,13.44 174.56,17.2 L174.56,17.68 C174.56,21.28 177.12,25.04 185.04,25.04 Z M247.44,61.2 L245.44,61.2 C226.16,61.2 222.88,50.24 222.88,44.4 L222.88,43.04 C222.88,37.12 226.16,26.56 245.44,26.56 L247.44,26.56 C266.72,26.56 269.92,37.12 269.92,43.04 L269.92,44.4 C269.92,50.24 266.8,61.2 247.44,61.2 Z M246.4,51.28 C254.4,51.28 257.04,47.52 257.04,44.08 L257.04,43.44 C257.04,39.76 254.48,36.4 246.4,36.4 C238.24,36.4 235.84,39.76 235.84,43.44 L235.84,43.92 C235.84,47.52 238.4,51.28 246.4,51.28 Z"/>
      <path fill="#FFF" d="M340.4,0 L343.84,0 C381.28,0 385.68,18.8 385.68,29.44 L385.68,31.84 C385.68,42.32 381.36,61.6 343.84,61.6 L340.4,61.6 C302.72,61.6 298.48,42.32 298.48,31.84 L298.48,29.44 C298.48,18.8 302.72,0 340.4,0 Z M366.16,30 C366.16,23.12 362.16,14.4 342.08,14.4 C321.68,14.4 318,23.12 318,30 L318,30.96 C318,37.76 322,47.12 342.08,47.12 C362.08,47.12 366.16,38 366.16,31.12 L366.16,30 Z M391.92,1.04 L453.44,1.04 L453.44,14.56 L410.48,14.56 L410.48,23.36 L452.4,23.36 L452.4,36.96 L410.48,36.96 L410.48,60.56 L391.92,60.56 L391.92,1.04 Z M460.8,1.04 L522.32,1.04 L522.32,14.56 L479.36,14.56 L479.36,23.36 L521.28,23.36 L521.28,36.96 L479.36,36.96 L479.36,60.56 L460.8,60.56 L460.8,1.04 Z"/>
      <path fill="#FF0226" d="M622.96,40.48 C622.96,50.16 617.2,61.6 590,61.6 L586.24,61.6 C556.32,61.6 552.48,48.32 552.48,42.48 L552.48,41.92 L572.16,41.92 C572.4,42.8 573.68,47.84 588.08,47.84 C601.68,47.84 603.44,43.84 603.44,40.56 L603.44,40.08 C603.44,36.8 601.68,32.8 588.08,32.8 C573.68,32.8 572.24,36.96 571.92,37.6 L553.76,37.6 L553.76,1.04 L618.8,1.04 L618.8,14.88 L572.08,14.88 L572.08,25.52 C573.12,24.56 578.88,20 593.28,20 L594,20 C617.6,20 622.96,29.12 622.96,40 L622.96,40.48 Z M710.16,29.44 L710.16,31.84 C710.16,42.24 705.36,61.6 670,61.6 L666.48,61.6 C631.28,61.6 626.32,42.24 626.32,31.84 L626.32,29.44 C626.32,18.88 631.28,0 666.48,0 L670,0 C705.28,0 710.16,18.88 710.16,29.44 Z M690.64,31.12 L690.64,30 C690.64,23.2 686.48,14.48 668.24,14.48 C649.68,14.48 645.84,23.2 645.84,30 L645.84,30.96 C645.84,37.68 650.08,47.04 668.24,47.04 C686.4,47.04 690.64,37.92 690.64,31.12 Z M736.64,34.88 C717.28,34.88 714.08,24 714.08,18.16 L714.08,16.8 C714.08,10.88 717.28,0.32 736.64,0.32 L738.56,0.32 C757.92,0.32 761.04,10.88 761.04,16.8 L761.04,18.16 C761.04,24 758,34.88 738.56,34.88 L736.64,34.88 Z M792.32,1.04 L808.16,1.04 L744,60.56 L728.24,60.56 L792.32,1.04 Z M737.52,25.04 C745.52,25.04 748.16,21.28 748.16,17.84 L748.16,17.2 C748.16,13.44 745.6,10.16 737.52,10.16 C729.44,10.16 727.04,13.44 727.04,17.2 L727.04,17.68 C727.04,21.28 729.6,25.04 737.52,25.04 Z M799.92,61.2 L797.92,61.2 C778.64,61.2 775.36,50.24 775.36,44.4 L775.36,43.04 C775.36,37.12 778.64,26.56 797.92,26.56 L799.92,26.56 C819.2,26.56 822.4,37.12 822.4,43.04 L822.4,44.4 C822.4,50.24 819.28,61.2 799.92,61.2 Z M798.88,51.28 C806.88,51.28 809.52,47.52 809.52,44.08 L809.52,43.44 C809.52,39.76 806.96,36.4 798.88,36.4 C790.72,36.4 788.32,39.76 788.32,43.44 L788.32,43.92 C788.32,47.52 790.88,51.28 798.88,51.28 Z"/>
      <path fill="#FFF" d="M892.88,0 L896.32,0 C933.76,0 938.16,18.8 938.16,29.44 L938.16,31.84 C938.16,42.32 933.84,61.6 896.32,61.6 L892.88,61.6 C855.2,61.6 850.96,42.32 850.96,31.84 L850.96,29.44 C850.96,18.8 855.2,0 892.88,0 Z M918.64,30 C918.64,23.12 914.64,14.4 894.56,14.4 C874.16,14.4 870.48,23.12 870.48,30 L870.48,30.96 C870.48,37.76 874.48,47.12 894.56,47.12 C914.56,47.12 918.64,38 918.64,31.12 L918.64,30 Z M944.4,1.04 L1005.92,1.04 L1005.92,14.56 L962.96,14.56 L962.96,23.36 L1004.88,23.36 L1004.88,36.96 L962.96,36.96 L962.96,60.56 L944.4,60.56 L944.4,1.04 Z M1013.28,1.04 L1074.8,1.04 L1074.8,14.56 L1031.84,14.56 L1031.84,23.36 L1073.76,23.36 L1073.76,36.96 L1031.84,36.96 L1031.84,60.56 L1013.28,60.56 L1013.28,1.04 Z"/>
      <path fill="#FF0226" d="M1175.44,40.48 C1175.44,50.16 1169.68,61.6 1142.48,61.6 L1138.72,61.6 C1108.8,61.6 1104.96,48.32 1104.96,42.48 L1104.96,41.92 L1124.64,41.92 C1124.88,42.8 1126.16,47.84 1140.56,47.84 C1154.16,47.84 1155.92,43.84 1155.92,40.56 L1155.92,40.08 C1155.92,36.8 1154.16,32.8 1140.56,32.8 C1126.16,32.8 1124.72,36.96 1124.4,37.6 L1106.24,37.6 L1106.24,1.04 L1171.28,1.04 L1171.28,14.88 L1124.56,14.88 L1124.56,25.52 C1125.6,24.56 1131.36,20 1145.76,20 L1146.48,20 C1170.08,20 1175.44,29.12 1175.44,40 L1175.44,40.48 Z M1262.64,29.44 L1262.64,31.84 C1262.64,42.24 1257.84,61.6 1222.48,61.6 L1218.96,61.6 C1183.76,61.6 1178.8,42.24 1178.8,31.84 L1178.8,29.44 C1178.8,18.88 1183.76,0 1218.96,0 L1222.48,0 C1257.76,0 1262.64,18.88 1262.64,29.44 Z M1243.12,31.12 L1243.12,30 C1243.12,23.2 1238.96,14.48 1220.72,14.48 C1202.16,14.48 1198.32,23.2 1198.32,30 L1198.32,30.96 C1198.32,37.68 1202.56,47.04 1220.72,47.04 C1238.88,47.04 1243.12,37.92 1243.12,31.12 Z M1289.12,34.88 C1269.76,34.88 1266.56,24 1266.56,18.16 L1266.56,16.8 C1266.56,10.88 1269.76,0.32 1289.12,0.32 L1291.04,0.32 C1310.4,0.32 1313.52,10.88 1313.52,16.8 L1313.52,18.16 C1313.52,24 1310.48,34.88 1291.04,34.88 L1289.12,34.88 Z M1344.8,1.04 L1360.64,1.04 L1296.48,60.56 L1280.72,60.56 L1344.8,1.04 Z M1290,25.04 C1298,25.04 1300.64,21.28 1300.64,17.84 L1300.64,17.2 C1300.64,13.44 1298.08,10.16 1290,10.16 C1281.92,10.16 1279.52,13.44 1279.52,17.2 L1279.52,17.68 C1279.52,21.28 1282.08,25.04 1290,25.04 Z M1352.4,61.2 L1350.4,61.2 C1331.12,61.2 1327.84,50.24 1327.84,44.4 L1327.84,43.04 C1327.84,37.12 1331.12,26.56 1350.4,26.56 L1352.4,26.56 C1371.68,26.56 1374.88,37.12 1374.88,43.04 L1374.88,44.4 C1374.88,50.24 1371.76,61.2 1352.4,61.2 Z M1351.36,51.28 C1359.36,51.28 1362,47.52 1362,44.08 L1362,43.44 C1362,39.76 1359.44,36.4 1351.36,36.4 C1343.2,36.4 1340.8,39.76 1340.8,43.44 L1340.8,43.92 C1340.8,47.52 1343.36,51.28 1351.36,51.28 Z"/>
      <path fill="#FFF" d="M1445.36,0 L1448.8,0 C1486.24,0 1490.64,18.8 1490.64,29.44 L1490.64,31.84 C1490.64,42.32 1486.32,61.6 1448.8,61.6 L1445.36,61.6 C1407.68,61.6 1403.44,42.32 1403.44,31.84 L1403.44,29.44 C1403.44,18.8 1407.68,0 1445.36,0 Z M1471.12,30 C1471.12,23.12 1467.12,14.4 1447.04,14.4 C1426.64,14.4 1422.96,23.12 1422.96,30 L1422.96,30.96 C1422.96,37.76 1426.96,47.12 1447.04,47.12 C1467.04,47.12 1471.12,38 1471.12,31.12 L1471.12,30 Z M1496.88,1.04 L1558.4,1.04 L1558.4,14.56 L1515.44,14.56 L1515.44,23.36 L1557.36,23.36 L1557.36,36.96 L1515.44,36.96 L1515.44,60.56 L1496.88,60.56 L1496.88,1.04 Z M1565.76,1.04 L1627.28,1.04 L1627.28,14.56 L1584.32,14.56 L1584.32,23.36 L1626.24,23.36 L1626.24,36.96 L1584.32,36.96 L1584.32,60.56 L1565.76,60.56 L1565.76,1.04 Z"/>
      <path fill="#FF0226" d="M1727.92,40.48 C1727.92,50.16 1722.16,61.6 1694.96,61.6 L1691.2,61.6 C1661.28,61.6 1657.44,48.32 1657.44,42.48 L1657.44,41.92 L1677.12,41.92 C1677.36,42.8 1678.64,47.84 1693.04,47.84 C1706.64,47.84 1708.4,43.84 1708.4,40.56 L1708.4,40.08 C1708.4,36.8 1706.64,32.8 1693.04,32.8 C1678.64,32.8 1677.2,36.96 1676.88,37.6 L1658.72,37.6 L1658.72,1.04 L1723.76,1.04 L1723.76,14.88 L1677.04,14.88 L1677.04,25.52 C1678.08,24.56 1683.84,20 1698.24,20 L1698.96,20 C1722.56,20 1727.92,29.12 1727.92,40 L1727.92,40.48 Z M1815.12,29.44 L1815.12,31.84 C1815.12,42.24 1810.32,61.6 1774.96,61.6 L1771.44,61.6 C1736.24,61.6 1731.28,42.24 1731.28,31.84 L1731.28,29.44 C1731.28,18.88 1736.24,0 1771.44,0 L1774.96,0 C1810.24,0 1815.12,18.88 1815.12,29.44 Z M1795.6,31.12 L1795.6,30 C1795.6,23.2 1791.44,14.48 1773.2,14.48 C1754.64,14.48 1750.8,23.2 1750.8,30 L1750.8,30.96 C1750.8,37.68 1755.04,47.04 1773.2,47.04 C1791.36,47.04 1795.6,37.92 1795.6,31.12 Z M1841.6,34.88 C1822.24,34.88 1819.04,24 1819.04,18.16 L1819.04,16.8 C1819.04,10.88 1822.24,0.32 1841.6,0.32 L1843.52,0.32 C1862.88,0.32 1866,10.88 1866,16.8 L1866,18.16 C1866,24 1862.96,34.88 1843.52,34.88 L1841.6,34.88 Z M1897.28,1.04 L1913.12,1.04 L1848.96,60.56 L1833.2,60.56 L1897.28,1.04 Z M1842.48,25.04 C1850.48,25.04 1853.12,21.28 1853.12,17.84 L1853.12,17.2 C1853.12,13.44 1850.56,10.16 1842.48,10.16 C1834.4,10.16 1832,13.44 1832,17.2 L1832,17.68 C1832,21.28 1834.56,25.04 1842.48,25.04 Z M1904.88,61.2 L1902.88,61.2 C1883.6,61.2 1880.32,50.24 1880.32,44.4 L1880.32,43.04 C1880.32,37.12 1883.6,26.56 1902.88,26.56 L1904.88,26.56 C1924.16,26.56 1927.36,37.12 1927.36,43.04 L1927.36,44.4 C1927.36,50.24 1924.24,61.2 1904.88,61.2 Z M1903.84,51.28 C1911.84,51.28 1914.48,47.52 1914.48,44.08 L1914.48,43.44 C1914.48,39.76 1911.92,36.4 1903.84,36.4 C1895.68,36.4 1893.28,39.76 1893.28,43.44 L1893.28,43.92 C1893.28,47.52 1895.84,51.28 1903.84,51.28 Z"/>
      <path fill="#FFF" d="M1997.84,0 L2001.28,0 C2038.72,0 2043.12,18.8 2043.12,29.44 L2043.12,31.84 C2043.12,42.32 2038.8,61.6 2001.28,61.6 L1997.84,61.6 C1960.16,61.6 1955.92,42.32 1955.92,31.84 L1955.92,29.44 C1955.92,18.8 1960.16,0 1997.84,0 Z M2023.6,30 C2023.6,23.12 2019.6,14.4 1999.52,14.4 C1979.12,14.4 1975.44,23.12 1975.44,30 L1975.44,30.96 C1975.44,37.76 1979.44,47.12 1999.52,47.12 C2019.52,47.12 2023.6,38 2023.6,31.12 L2023.6,30 Z M2049.36,1.04 L2110.88,1.04 L2110.88,14.56 L2067.92,14.56 L2067.92,23.36 L2109.84,23.36 L2109.84,36.96 L2067.92,36.96 L2067.92,60.56 L2049.36,60.56 L2049.36,1.04 Z M2118.24,1.04 L2179.76,1.04 L2179.76,14.56 L2136.8,14.56 L2136.8,23.36 L2178.72,23.36 L2178.72,36.96 L2136.8,36.96 L2136.8,60.56 L2118.24,60.56 L2118.24,1.04 Z"/>
      <path fill="#FF0226" d="M2280.4,40.48 C2280.4,50.16 2274.64,61.6 2247.44,61.6 L2243.68,61.6 C2213.76,61.6 2209.92,48.32 2209.92,42.48 L2209.92,41.92 L2229.6,41.92 C2229.84,42.8 2231.12,47.84 2245.52,47.84 C2259.12,47.84 2260.88,43.84 2260.88,40.56 L2260.88,40.08 C2260.88,36.8 2259.12,32.8 2245.52,32.8 C2231.12,32.8 2229.68,36.96 2229.36,37.6 L2211.2,37.6 L2211.2,1.04 L2276.24,1.04 L2276.24,14.88 L2229.52,14.88 L2229.52,25.52 C2230.56,24.56 2236.32,20 2250.72,20 L2251.44,20 C2275.04,20 2280.4,29.12 2280.4,40 L2280.4,40.48 Z M2367.6,29.44 L2367.6,31.84 C2367.6,42.24 2362.8,61.6 2327.44,61.6 L2323.92,61.6 C2288.72,61.6 2283.76,42.24 2283.76,31.84 L2283.76,29.44 C2283.76,18.88 2288.72,0 2323.92,0 L2327.44,0 C2362.72,0 2367.6,18.88 2367.6,29.44 Z M2348.08,31.12 L2348.08,30 C2348.08,23.2 2343.92,14.48 2325.68,14.48 C2307.12,14.48 2303.28,23.2 2303.28,30 L2303.28,30.96 C2303.28,37.68 2307.52,47.04 2325.68,47.04 C2343.84,47.04 2348.08,37.92 2348.08,31.12 Z M2394.08,34.88 C2374.72,34.88 2371.52,24 2371.52,18.16 L2371.52,16.8 C2371.52,10.88 2374.72,0.32 2394.08,0.32 L2396,0.32 C2415.36,0.32 2418.48,10.88 2418.48,16.8 L2418.48,18.16 C2418.48,24 2415.44,34.88 2396,34.88 L2394.08,34.88 Z M2449.76,1.04 L2465.6,1.04 L2401.44,60.56 L2385.68,60.56 L2449.76,1.04 Z M2394.96,25.04 C2402.96,25.04 2405.6,21.28 2405.6,17.84 L2405.6,17.2 C2405.6,13.44 2403.04,10.16 2394.96,10.16 C2386.88,10.16 2384.48,13.44 2384.48,17.2 L2384.48,17.68 C2384.48,21.28 2387.04,25.04 2394.96,25.04 Z M2457.36,61.2 L2455.36,61.2 C2436.08,61.2 2432.8,50.24 2432.8,44.4 L2432.8,43.04 C2432.8,37.12 2436.08,26.56 2455.36,26.56 L2457.36,26.56 C2476.64,26.56 2479.84,37.12 2479.84,43.04 L2479.84,44.4 C2479.84,50.24 2476.72,61.2 2457.36,61.2 Z M2456.32,51.28 C2464.32,51.28 2466.96,47.52 2466.96,44.08 L2466.96,43.44 C2466.96,39.76 2464.4,36.4 2456.32,36.4 C2448.16,36.4 2445.76,39.76 2445.76,43.44 L2445.76,43.92 C2445.76,47.52 2448.32,51.28 2456.32,51.28 Z"/>
      <path fill="#FFF" d="M2550.32,0 L2553.76,0 C2591.2,0 2595.6,18.8 2595.6,29.44 L2595.6,31.84 C2595.6,42.32 2591.28,61.6 2553.76,61.6 L2550.32,61.6 C2512.64,61.6 2508.4,42.32 2508.4,31.84 L2508.4,29.44 C2508.4,18.8 2512.64,0 2550.32,0 Z M2576.08,30 C2576.08,23.12 2572.08,14.4 2552,14.4 C2531.6,14.4 2527.92,23.12 2527.92,30 L2527.92,30.96 C2527.92,37.76 2531.92,47.12 2552,47.12 C2572,47.12 2576.08,38 2576.08,31.12 L2576.08,30 Z M2601.84,1.04 L2663.36,1.04 L2663.36,14.56 L2620.4,14.56 L2620.4,23.36 L2662.32,23.36 L2662.32,36.96 L2620.4,36.96 L2620.4,60.56 L2601.84,60.56 L2601.84,1.04 Z M2670.72,1.04 L2732.24,1.04 L2732.24,14.56 L2689.28,14.56 L2689.28,23.36 L2731.2,23.36 L2731.2,36.96 L2689.28,36.96 L2689.28,60.56 L2670.72,60.56 L2670.72,1.04 Z"/>
      <path fill="#FF0226" d="M2832.88,40.48 C2832.88,50.16 2827.12,61.6 2799.92,61.6 L2796.16,61.6 C2766.24,61.6 2762.4,48.32 2762.4,42.48 L2762.4,41.92 L2782.08,41.92 C2782.32,42.8 2783.6,47.84 2798,47.84 C2811.6,47.84 2813.36,43.84 2813.36,40.56 L2813.36,40.08 C2813.36,36.8 2811.6,32.8 2798,32.8 C2783.6,32.8 2782.16,36.96 2781.84,37.6 L2763.68,37.6 L2763.68,1.04 L2828.72,1.04 L2828.72,14.88 L2782,14.88 L2782,25.52 C2783.04,24.56 2788.8,20 2803.2,20 L2803.92,20 C2827.52,20 2832.88,29.12 2832.88,40 L2832.88,40.48 Z M2920.08,29.44 L2920.08,31.84 C2920.08,42.24 2915.28,61.6 2879.92,61.6 L2876.4,61.6 C2841.2,61.6 2836.24,42.24 2836.24,31.84 L2836.24,29.44 C2836.24,18.88 2841.2,0 2876.4,0 L2879.92,0 C2915.2,0 2920.08,18.88 2920.08,29.44 Z M2900.56,31.12 L2900.56,30 C2900.56,23.2 2896.4,14.48 2878.16,14.48 C2859.6,14.48 2855.76,23.2 2855.76,30 L2855.76,30.96 C2855.76,37.68 2860,47.04 2878.16,47.04 C2896.32,47.04 2900.56,37.92 2900.56,31.12 Z M2946.56,34.88 C2927.2,34.88 2924,24 2924,18.16 L2924,16.8 C2924,10.88 2927.2,0.32 2946.56,0.32 L2948.48,0.32 C2967.84,0.32 2970.96,10.88 2970.96,16.8 L2970.96,18.16 C2970.96,24 2967.92,34.88 2948.48,34.88 L2946.56,34.88 Z M3002.24,1.04 L3018.08,1.04 L2953.92,60.56 L2938.16,60.56 L3002.24,1.04 Z M2947.44,25.04 C2955.44,25.04 2958.08,21.28 2958.08,17.84 L2958.08,17.2 C2958.08,13.44 2955.52,10.16 2947.44,10.16 C2939.36,10.16 2936.96,13.44 2936.96,17.2 L2936.96,17.68 C2936.96,21.28 2939.52,25.04 2947.44,25.04 Z M3009.84,61.2 L3007.84,61.2 C2988.56,61.2 2985.28,50.24 2985.28,44.4 L2985.28,43.04 C2985.28,37.12 2988.56,26.56 3007.84,26.56 L3009.84,26.56 C3029.12,26.56 3032.32,37.12 3032.32,43.04 L3032.32,44.4 C3032.32,50.24 3029.2,61.2 3009.84,61.2 Z M3008.8,51.28 C3016.8,51.28 3019.44,47.52 3019.44,44.08 L3019.44,43.44 C3019.44,39.76 3016.88,36.4 3008.8,36.4 C3000.64,36.4 2998.24,39.76 2998.24,43.44 L2998.24,43.92 C2998.24,47.52 3000.8,51.28 3008.8,51.28 Z"/>
      <path fill="#FFF" d="M3102.8,0 L3106.24,0 C3143.68,0 3148.08,18.8 3148.08,29.44 L3148.08,31.84 C3148.08,42.32 3143.76,61.6 3106.24,61.6 L3102.8,61.6 C3065.12,61.6 3060.88,42.32 3060.88,31.84 L3060.88,29.44 C3060.88,18.8 3065.12,0 3102.8,0 Z M3128.56,30 C3128.56,23.12 3124.56,14.4 3104.48,14.4 C3084.08,14.4 3080.4,23.12 3080.4,30 L3080.4,30.96 C3080.4,37.76 3084.4,47.12 3104.48,47.12 C3124.48,47.12 3128.56,38 3128.56,31.12 L3128.56,30 Z M3154.32,1.04 L3215.84,1.04 L3215.84,14.56 L3172.88,14.56 L3172.88,23.36 L3214.8,23.36 L3214.8,36.96 L3172.88,36.96 L3172.88,60.56 L3154.32,60.56 L3154.32,1.04 Z M3223.2,1.04 L3284.72,1.04 L3284.72,14.56 L3241.76,14.56 L3241.76,23.36 L3283.68,23.36 L3283.68,36.96 L3241.76,36.96 L3241.76,60.56 L3223.2,60.56 L3223.2,1.04 Z"/>
      <path fill="#FF0226" d="M3385.36,40.48 C3385.36,50.16 3379.6,61.6 3352.4,61.6 L3348.64,61.6 C3318.72,61.6 3314.88,48.32 3314.88,42.48 L3314.88,41.92 L3334.56,41.92 C3334.8,42.8 3336.08,47.84 3350.48,47.84 C3364.08,47.84 3365.84,43.84 3365.84,40.56 L3365.84,40.08 C3365.84,36.8 3364.08,32.8 3350.48,32.8 C3336.08,32.8 3334.64,36.96 3334.32,37.6 L3316.16,37.6 L3316.16,1.04 L3381.2,1.04 L3381.2,14.88 L3334.48,14.88 L3334.48,25.52 C3335.52,24.56 3341.28,20 3355.68,20 L3356.4,20 C3380,20 3385.36,29.12 3385.36,40 L3385.36,40.48 Z M3472.56,29.44 L3472.56,31.84 C3472.56,42.24 3467.76,61.6 3432.4,61.6 L3428.88,61.6 C3393.68,61.6 3388.72,42.24 3388.72,31.84 L3388.72,29.44 C3388.72,18.88 3393.68,0 3428.88,0 L3432.4,0 C3467.68,0 3472.56,18.88 3472.56,29.44 Z M3453.04,31.12 L3453.04,30 C3453.04,23.2 3448.88,14.48 3430.64,14.48 C3412.08,14.48 3408.24,23.2 3408.24,30 L3408.24,30.96 C3408.24,37.68 3412.48,47.04 3430.64,47.04 C3448.8,47.04 3453.04,37.92 3453.04,31.12 Z M3499.04,34.88 C3479.68,34.88 3476.48,24 3476.48,18.16 L3476.48,16.8 C3476.48,10.88 3479.68,0.32 3499.04,0.32 L3500.96,0.32 C3520.32,0.32 3523.44,10.88 3523.44,16.8 L3523.44,18.16 C3523.44,24 3520.4,34.88 3500.96,34.88 L3499.04,34.88 Z M3554.72,1.04 L3570.56,1.04 L3506.4,60.56 L3490.64,60.56 L3554.72,1.04 Z M3499.92,25.04 C3507.92,25.04 3510.56,21.28 3510.56,17.84 L3510.56,17.2 C3510.56,13.44 3508,10.16 3499.92,10.16 C3491.84,10.16 3489.44,13.44 3489.44,17.2 L3489.44,17.68 C3489.44,21.28 3492,25.04 3499.92,25.04 Z M3562.32,61.2 L3560.32,61.2 C3541.04,61.2 3537.76,50.24 3537.76,44.4 L3537.76,43.04 C3537.76,37.12 3541.04,26.56 3560.32,26.56 L3562.32,26.56 C3581.6,26.56 3584.8,37.12 3584.8,43.04 L3584.8,44.4 C3584.8,50.24 3581.68,61.2 3562.32,61.2 Z M3561.28,51.28 C3569.28,51.28 3571.92,47.52 3571.92,44.08 L3571.92,43.44 C3571.92,39.76 3569.36,36.4 3561.28,36.4 C3553.12,36.4 3550.72,39.76 3550.72,43.44 L3550.72,43.92 C3550.72,47.52 3553.28,51.28 3561.28,51.28 Z"/>
      <path fill="#FFF" d="M3655.28,0 L3658.72,0 C3696.16,0 3700.56,18.8 3700.56,29.44 L3700.56,31.84 C3700.56,42.32 3696.24,61.6 3658.72,61.6 L3655.28,61.6 C3617.6,61.6 3613.36,42.32 3613.36,31.84 L3613.36,29.44 C3613.36,18.8 3617.6,0 3655.28,0 Z M3681.04,30 C3681.04,23.12 3677.04,14.4 3656.96,14.4 C3636.56,14.4 3632.88,23.12 3632.88,30 L3632.88,30.96 C3632.88,37.76 3636.88,47.12 3656.96,47.12 C3676.96,47.12 3681.04,38 3681.04,31.12 L3681.04,30 Z M3706.8,1.04 L3768.32,1.04 L3768.32,14.56 L3725.36,14.56 L3725.36,23.36 L3767.28,23.36 L3767.28,36.96 L3725.36,36.96 L3725.36,60.56 L3706.8,60.56 L3706.8,1.04 Z M3775.68,1.04 L3837.2,1.04 L3837.2,14.56 L3794.24,14.56 L3794.24,23.36 L3836.16,23.36 L3836.16,36.96 L3794.24,36.96 L3794.24,60.56 L3775.68,60.56 L3775.68,1.04 Z"/>
    </g>
  </g>
</svg>
