<svg xmlns="http://www.w3.org/2000/svg" width="4055" height="102" viewBox="0 0 4055 102">
  <g fill="none" fill-rule="evenodd">
    <rect width="4055" height="102" fill="#000"/>
    <path fill="#FFF" fill-rule="nonzero" d="M7.6,66.16 C10.64,60 11.04,46.72 11.04,21.04 L75.36,21.04 L75.36,66.16 L84.96,66.16 L84.96,90.56 L67.12,90.56 L67.12,80.56 L17.84,80.56 L17.84,90.56 L0,90.56 L0,66.16 L7.6,66.16 Z M24.4,66.16 L56.72,66.16 L56.72,35.44 L27.52,35.44 C27.52,47.68 26.88,60.4 24.4,66.16 Z M89.68,80.56 L89.68,21.04 L140.64,21.04 C157.68,21.04 162.4,27.6 162.4,34.64 L162.4,35.76 C162.4,43.44 155.84,46.56 152.96,47.36 C157.04,48.4 165.76,51.92 165.76,62.32 L165.76,63.44 C165.76,72.88 160.4,80.56 141.12,80.56 L89.68,80.56 Z M137.44,33.6 L108.32,33.6 L108.32,43.28 L137.44,43.28 C142.64,43.28 143.92,40.88 143.92,38.48 L143.92,38.32 C143.92,35.84 142.64,33.6 137.44,33.6 Z M139.04,55.92 L108.32,55.92 L108.32,67.6 L139.04,67.6 C145.28,67.6 146.4,64.16 146.4,61.76 L146.4,61.44 C146.4,58.88 145.2,55.92 139.04,55.92 Z M231.36,80.56 L225.76,69.68 L189.68,69.68 L184.32,80.56 L165.36,80.56 L195.44,21.04 L219.6,21.04 L251.44,80.56 L231.36,80.56 Z M196.32,56.24 L218.88,56.24 L207.36,33.92 L196.32,56.24 Z M278.88,80.56 L278.88,21.04 L352.88,21.04 L352.88,80.56 L334.24,80.56 L334.24,35.44 L297.52,35.44 L297.52,80.56 L278.88,80.56 Z M401.04,20 L404.48,20 C441.92,20 446.32,38.8 446.32,49.44 L446.32,51.84 C446.32,62.32 442,81.6 404.48,81.6 L401.04,81.6 C363.36,81.6 359.12,62.32 359.12,51.84 L359.12,49.44 C359.12,38.8 363.36,20 401.04,20 Z M426.8,50 C426.8,43.12 422.8,34.4 402.72,34.4 C382.32,34.4 378.64,43.12 378.64,50 L378.64,50.96 C378.64,57.76 382.64,67.12 402.72,67.12 C422.72,67.12 426.8,58 426.8,51.12 L426.8,50 Z M542.96,90.56 L542.96,80.56 L477.2,80.56 L477.2,21.04 L495.84,21.04 L495.84,66.16 L532.56,66.16 L532.56,21.04 L551.2,21.04 L551.2,66.16 L560.8,66.16 L560.8,90.56 L542.96,90.56 Z M565.52,21.04 L628.24,21.04 L628.24,34.56 L583.92,34.56 L583.92,43.36 L627.2,43.36 L627.2,56.96 L583.92,56.96 L583.92,66.72 L629.04,66.72 L629.04,80.56 L565.52,80.56 L565.52,21.04 Z M694.96,80.56 L694.96,57.12 L654.96,57.12 L654.96,80.56 L636.32,80.56 L636.32,21.04 L654.96,21.04 L654.96,42.72 L694.96,42.72 L694.96,21.04 L713.6,21.04 L713.6,80.56 L694.96,80.56 Z M722.24,21.04 L784.96,21.04 L784.96,34.56 L740.64,34.56 L740.64,43.36 L783.92,43.36 L783.92,56.96 L740.64,56.96 L740.64,66.72 L785.76,66.72 L785.76,80.56 L722.24,80.56 L722.24,21.04 Z M857.2,20 L860.64,20 C898.08,20 902.48,38.8 902.48,49.44 L902.48,51.84 C902.48,62.32 898.16,81.6 860.64,81.6 L857.2,81.6 C819.52,81.6 815.28,62.32 815.28,51.84 L815.28,49.44 C815.28,38.8 819.52,20 857.2,20 Z M882.96,50 C882.96,43.12 878.96,34.4 858.88,34.4 C838.48,34.4 834.8,43.12 834.8,50 L834.8,50.96 C834.8,57.76 838.8,67.12 858.88,67.12 C878.88,67.12 882.96,58 882.96,51.12 L882.96,50 Z M912.4,66.16 C915.44,60 915.84,46.72 915.84,21.04 L980.16,21.04 L980.16,66.16 L989.76,66.16 L989.76,90.56 L971.92,90.56 L971.92,80.56 L922.64,80.56 L922.64,90.56 L904.8,90.56 L904.8,66.16 L912.4,66.16 Z M929.2,66.16 L961.52,66.16 L961.52,35.44 L932.32,35.44 C932.32,47.68 931.68,60.4 929.2,66.16 Z M1053.12,80.56 L1053.12,57.12 L1013.12,57.12 L1013.12,80.56 L994.48,80.56 L994.48,21.04 L1013.12,21.04 L1013.12,42.72 L1053.12,42.72 L1053.12,21.04 L1071.76,21.04 L1071.76,80.56 L1053.12,80.56 Z M1119.92,20 L1123.36,20 C1160.8,20 1165.2,38.8 1165.2,49.44 L1165.2,51.84 C1165.2,62.32 1160.88,81.6 1123.36,81.6 L1119.92,81.6 C1082.24,81.6 1078,62.32 1078,51.84 L1078,49.44 C1078,38.8 1082.24,20 1119.92,20 Z M1145.68,50 C1145.68,43.12 1141.68,34.4 1121.6,34.4 C1101.2,34.4 1097.52,43.12 1097.52,50 L1097.52,50.96 C1097.52,57.76 1101.52,67.12 1121.6,67.12 C1141.6,67.12 1145.68,58 1145.68,51.12 L1145.68,50 Z M1171.44,80.56 L1171.44,21.04 L1231.2,21.04 L1231.2,35.44 L1190.08,35.44 L1190.08,80.56 L1171.44,80.56 Z M1277.04,20 L1280.48,20 C1317.92,20 1322.32,38.8 1322.32,49.44 L1322.32,51.84 C1322.32,62.32 1318,81.6 1280.48,81.6 L1277.04,81.6 C1239.36,81.6 1235.12,62.32 1235.12,51.84 L1235.12,49.44 C1235.12,38.8 1239.36,20 1277.04,20 Z M1302.8,50 C1302.8,43.12 1298.8,34.4 1278.72,34.4 C1258.32,34.4 1254.64,43.12 1254.64,50 L1254.64,50.96 C1254.64,57.76 1258.64,67.12 1278.72,67.12 C1298.72,67.12 1302.8,58 1302.8,51.12 L1302.8,50 Z M1356.88,66.16 C1359.92,60 1360.32,46.72 1360.32,21.04 L1424.64,21.04 L1424.64,66.16 L1434.24,66.16 L1434.24,90.56 L1416.4,90.56 L1416.4,80.56 L1367.12,80.56 L1367.12,90.56 L1349.28,90.56 L1349.28,66.16 L1356.88,66.16 Z M1373.68,66.16 L1406,66.16 L1406,35.44 L1376.8,35.44 C1376.8,47.68 1376.16,60.4 1373.68,66.16 Z M1438.96,80.56 L1438.96,21.04 L1489.92,21.04 C1506.96,21.04 1511.68,27.6 1511.68,34.64 L1511.68,35.76 C1511.68,43.44 1505.12,46.56 1502.24,47.36 C1506.32,48.4 1515.04,51.92 1515.04,62.32 L1515.04,63.44 C1515.04,72.88 1509.68,80.56 1490.4,80.56 L1438.96,80.56 Z M1486.72,33.6 L1457.6,33.6 L1457.6,43.28 L1486.72,43.28 C1491.92,43.28 1493.2,40.88 1493.2,38.48 L1493.2,38.32 C1493.2,35.84 1491.92,33.6 1486.72,33.6 Z M1488.32,55.92 L1457.6,55.92 L1457.6,67.6 L1488.32,67.6 C1494.56,67.6 1495.68,64.16 1495.68,61.76 L1495.68,61.44 C1495.68,58.88 1494.48,55.92 1488.32,55.92 Z M1580.64,80.56 L1575.04,69.68 L1538.96,69.68 L1533.6,80.56 L1514.64,80.56 L1544.72,21.04 L1568.88,21.04 L1600.72,80.56 L1580.64,80.56 Z M1545.6,56.24 L1568.16,56.24 L1556.64,33.92 L1545.6,56.24 Z M1628.16,80.56 L1628.16,21.04 L1702.16,21.04 L1702.16,80.56 L1683.52,80.56 L1683.52,35.44 L1646.8,35.44 L1646.8,80.56 L1628.16,80.56 Z M1750.32,20 L1753.76,20 C1791.2,20 1795.6,38.8 1795.6,49.44 L1795.6,51.84 C1795.6,62.32 1791.28,81.6 1753.76,81.6 L1750.32,81.6 C1712.64,81.6 1708.4,62.32 1708.4,51.84 L1708.4,49.44 C1708.4,38.8 1712.64,20 1750.32,20 Z M1776.08,50 C1776.08,43.12 1772.08,34.4 1752,34.4 C1731.6,34.4 1727.92,43.12 1727.92,50 L1727.92,50.96 C1727.92,57.76 1731.92,67.12 1752,67.12 C1772,67.12 1776.08,58 1776.08,51.12 L1776.08,50 Z M1892.24,90.56 L1892.24,80.56 L1826.48,80.56 L1826.48,21.04 L1845.12,21.04 L1845.12,66.16 L1881.84,66.16 L1881.84,21.04 L1900.48,21.04 L1900.48,66.16 L1910.08,66.16 L1910.08,90.56 L1892.24,90.56 Z M1914.8,21.04 L1977.52,21.04 L1977.52,34.56 L1933.2,34.56 L1933.2,43.36 L1976.48,43.36 L1976.48,56.96 L1933.2,56.96 L1933.2,66.72 L1978.32,66.72 L1978.32,80.56 L1914.8,80.56 L1914.8,21.04 Z M2044.24,80.56 L2044.24,57.12 L2004.24,57.12 L2004.24,80.56 L1985.6,80.56 L1985.6,21.04 L2004.24,21.04 L2004.24,42.72 L2044.24,42.72 L2044.24,21.04 L2062.88,21.04 L2062.88,80.56 L2044.24,80.56 Z M2071.52,21.04 L2134.24,21.04 L2134.24,34.56 L2089.92,34.56 L2089.92,43.36 L2133.2,43.36 L2133.2,56.96 L2089.92,56.96 L2089.92,66.72 L2135.04,66.72 L2135.04,80.56 L2071.52,80.56 L2071.52,21.04 Z M2206.48,20 L2209.92,20 C2247.36,20 2251.76,38.8 2251.76,49.44 L2251.76,51.84 C2251.76,62.32 2247.44,81.6 2209.92,81.6 L2206.48,81.6 C2168.8,81.6 2164.56,62.32 2164.56,51.84 L2164.56,49.44 C2164.56,38.8 2168.8,20 2206.48,20 Z M2232.24,50 C2232.24,43.12 2228.24,34.4 2208.16,34.4 C2187.76,34.4 2184.08,43.12 2184.08,50 L2184.08,50.96 C2184.08,57.76 2188.08,67.12 2208.16,67.12 C2228.16,67.12 2232.24,58 2232.24,51.12 L2232.24,50 Z M2261.68,66.16 C2264.72,60 2265.12,46.72 2265.12,21.04 L2329.44,21.04 L2329.44,66.16 L2339.04,66.16 L2339.04,90.56 L2321.2,90.56 L2321.2,80.56 L2271.92,80.56 L2271.92,90.56 L2254.08,90.56 L2254.08,66.16 L2261.68,66.16 Z M2278.48,66.16 L2310.8,66.16 L2310.8,35.44 L2281.6,35.44 C2281.6,47.68 2280.96,60.4 2278.48,66.16 Z M2402.4,80.56 L2402.4,57.12 L2362.4,57.12 L2362.4,80.56 L2343.76,80.56 L2343.76,21.04 L2362.4,21.04 L2362.4,42.72 L2402.4,42.72 L2402.4,21.04 L2421.04,21.04 L2421.04,80.56 L2402.4,80.56 Z M2469.2,20 L2472.64,20 C2510.08,20 2514.48,38.8 2514.48,49.44 L2514.48,51.84 C2514.48,62.32 2510.16,81.6 2472.64,81.6 L2469.2,81.6 C2431.52,81.6 2427.28,62.32 2427.28,51.84 L2427.28,49.44 C2427.28,38.8 2431.52,20 2469.2,20 Z M2494.96,50 C2494.96,43.12 2490.96,34.4 2470.88,34.4 C2450.48,34.4 2446.8,43.12 2446.8,50 L2446.8,50.96 C2446.8,57.76 2450.8,67.12 2470.88,67.12 C2490.88,67.12 2494.96,58 2494.96,51.12 L2494.96,50 Z M2520.72,80.56 L2520.72,21.04 L2580.48,21.04 L2580.48,35.44 L2539.36,35.44 L2539.36,80.56 L2520.72,80.56 Z M2626.32,20 L2629.76,20 C2667.2,20 2671.6,38.8 2671.6,49.44 L2671.6,51.84 C2671.6,62.32 2667.28,81.6 2629.76,81.6 L2626.32,81.6 C2588.64,81.6 2584.4,62.32 2584.4,51.84 L2584.4,49.44 C2584.4,38.8 2588.64,20 2626.32,20 Z M2652.08,50 C2652.08,43.12 2648.08,34.4 2628,34.4 C2607.6,34.4 2603.92,43.12 2603.92,50 L2603.92,50.96 C2603.92,57.76 2607.92,67.12 2628,67.12 C2648,67.12 2652.08,58 2652.08,51.12 L2652.08,50 Z M2706.16,66.16 C2709.2,60 2709.6,46.72 2709.6,21.04 L2773.92,21.04 L2773.92,66.16 L2783.52,66.16 L2783.52,90.56 L2765.68,90.56 L2765.68,80.56 L2716.4,80.56 L2716.4,90.56 L2698.56,90.56 L2698.56,66.16 L2706.16,66.16 Z M2722.96,66.16 L2755.28,66.16 L2755.28,35.44 L2726.08,35.44 C2726.08,47.68 2725.44,60.4 2722.96,66.16 Z M2788.24,80.56 L2788.24,21.04 L2839.2,21.04 C2856.24,21.04 2860.96,27.6 2860.96,34.64 L2860.96,35.76 C2860.96,43.44 2854.4,46.56 2851.52,47.36 C2855.6,48.4 2864.32,51.92 2864.32,62.32 L2864.32,63.44 C2864.32,72.88 2858.96,80.56 2839.68,80.56 L2788.24,80.56 Z M2836,33.6 L2806.88,33.6 L2806.88,43.28 L2836,43.28 C2841.2,43.28 2842.48,40.88 2842.48,38.48 L2842.48,38.32 C2842.48,35.84 2841.2,33.6 2836,33.6 Z M2837.6,55.92 L2806.88,55.92 L2806.88,67.6 L2837.6,67.6 C2843.84,67.6 2844.96,64.16 2844.96,61.76 L2844.96,61.44 C2844.96,58.88 2843.76,55.92 2837.6,55.92 Z M2929.92,80.56 L2924.32,69.68 L2888.24,69.68 L2882.88,80.56 L2863.92,80.56 L2894,21.04 L2918.16,21.04 L2950,80.56 L2929.92,80.56 Z M2894.88,56.24 L2917.44,56.24 L2905.92,33.92 L2894.88,56.24 Z M2977.44,80.56 L2977.44,21.04 L3051.44,21.04 L3051.44,80.56 L3032.8,80.56 L3032.8,35.44 L2996.08,35.44 L2996.08,80.56 L2977.44,80.56 Z M3099.6,20 L3103.04,20 C3140.48,20 3144.88,38.8 3144.88,49.44 L3144.88,51.84 C3144.88,62.32 3140.56,81.6 3103.04,81.6 L3099.6,81.6 C3061.92,81.6 3057.68,62.32 3057.68,51.84 L3057.68,49.44 C3057.68,38.8 3061.92,20 3099.6,20 Z M3125.36,50 C3125.36,43.12 3121.36,34.4 3101.28,34.4 C3080.88,34.4 3077.2,43.12 3077.2,50 L3077.2,50.96 C3077.2,57.76 3081.2,67.12 3101.28,67.12 C3121.28,67.12 3125.36,58 3125.36,51.12 L3125.36,50 Z M3241.52,90.56 L3241.52,80.56 L3175.76,80.56 L3175.76,21.04 L3194.4,21.04 L3194.4,66.16 L3231.12,66.16 L3231.12,21.04 L3249.76,21.04 L3249.76,66.16 L3259.36,66.16 L3259.36,90.56 L3241.52,90.56 Z M3264.08,21.04 L3326.8,21.04 L3326.8,34.56 L3282.48,34.56 L3282.48,43.36 L3325.76,43.36 L3325.76,56.96 L3282.48,56.96 L3282.48,66.72 L3327.6,66.72 L3327.6,80.56 L3264.08,80.56 L3264.08,21.04 Z M3393.52,80.56 L3393.52,57.12 L3353.52,57.12 L3353.52,80.56 L3334.88,80.56 L3334.88,21.04 L3353.52,21.04 L3353.52,42.72 L3393.52,42.72 L3393.52,21.04 L3412.16,21.04 L3412.16,80.56 L3393.52,80.56 Z M3420.8,21.04 L3483.52,21.04 L3483.52,34.56 L3439.2,34.56 L3439.2,43.36 L3482.48,43.36 L3482.48,56.96 L3439.2,56.96 L3439.2,66.72 L3484.32,66.72 L3484.32,80.56 L3420.8,80.56 L3420.8,21.04 Z M3555.76,20 L3559.2,20 C3596.64,20 3601.04,38.8 3601.04,49.44 L3601.04,51.84 C3601.04,62.32 3596.72,81.6 3559.2,81.6 L3555.76,81.6 C3518.08,81.6 3513.84,62.32 3513.84,51.84 L3513.84,49.44 C3513.84,38.8 3518.08,20 3555.76,20 Z M3581.52,50 C3581.52,43.12 3577.52,34.4 3557.44,34.4 C3537.04,34.4 3533.36,43.12 3533.36,50 L3533.36,50.96 C3533.36,57.76 3537.36,67.12 3557.44,67.12 C3577.44,67.12 3581.52,58 3581.52,51.12 L3581.52,50 Z M3610.96,66.16 C3614,60 3614.4,46.72 3614.4,21.04 L3678.72,21.04 L3678.72,66.16 L3688.32,66.16 L3688.32,90.56 L3670.48,90.56 L3670.48,80.56 L3621.2,80.56 L3621.2,90.56 L3603.36,90.56 L3603.36,66.16 L3610.96,66.16 Z M3627.76,66.16 L3660.08,66.16 L3660.08,35.44 L3630.88,35.44 C3630.88,47.68 3630.24,60.4 3627.76,66.16 Z M3751.68,80.56 L3751.68,57.12 L3711.68,57.12 L3711.68,80.56 L3693.04,80.56 L3693.04,21.04 L3711.68,21.04 L3711.68,42.72 L3751.68,42.72 L3751.68,21.04 L3770.32,21.04 L3770.32,80.56 L3751.68,80.56 Z M3818.48,20 L3821.92,20 C3859.36,20 3863.76,38.8 3863.76,49.44 L3863.76,51.84 C3863.76,62.32 3859.44,81.6 3821.92,81.6 L3818.48,81.6 C3780.8,81.6 3776.56,62.32 3776.56,51.84 L3776.56,49.44 C3776.56,38.8 3780.8,20 3818.48,20 Z M3844.24,50 C3844.24,43.12 3840.24,34.4 3820.16,34.4 C3799.76,34.4 3796.08,43.12 3796.08,50 L3796.08,50.96 C3796.08,57.76 3800.08,67.12 3820.16,67.12 C3840.16,67.12 3844.24,58 3844.24,51.12 L3844.24,50 Z M3870,80.56 L3870,21.04 L3929.76,21.04 L3929.76,35.44 L3888.64,35.44 L3888.64,80.56 L3870,80.56 Z M3975.6,20 L3979.04,20 C4016.48,20 4020.88,38.8 4020.88,49.44 L4020.88,51.84 C4020.88,62.32 4016.56,81.6 3979.04,81.6 L3975.6,81.6 C3937.92,81.6 3933.68,62.32 3933.68,51.84 L3933.68,49.44 C3933.68,38.8 3937.92,20 3975.6,20 Z M4001.36,50 C4001.36,43.12 3997.36,34.4 3977.28,34.4 C3956.88,34.4 3953.2,43.12 3953.2,50 L3953.2,50.96 C3953.2,57.76 3957.2,67.12 3977.28,67.12 C3997.28,67.12 4001.36,58 4001.36,51.12 L4001.36,50 Z"/>
  </g>
</svg>
