<svg xmlns="http://www.w3.org/2000/svg" width="4125" height="102" viewBox="0 0 4125 102">
  <g fill="none" fill-rule="evenodd">
    <rect width="4125" height="102" fill="#000"/>
    <path fill="#FFF" fill-rule="nonzero" d="M70,71.28 C67.52,74.32 59.76,81.6 41.36,81.6 L39.68,81.6 C7.44,81.6 2.27373675e-13,63.6 2.27373675e-13,51.68 L2.27373675e-13,49.44 C2.27373675e-13,37.84 6.08,20 40.32,20 L43.76,20 C77.12,20 82.8,34.48 83.2,42.56 L83.2,42.64 L63.36,42.64 C62.88,41.28 60.8,34.16 42.16,34.16 C24,34.16 19.52,42 19.52,50.24 L19.52,51.12 C19.52,58.88 25.6,67.12 42,67.12 C59.76,67.12 65.04,60.24 65.04,58.64 L65.04,58.48 L41.68,58.48 L41.68,47.2 L83.6,47.2 L83.6,80.56 L72.4,80.56 C72.16,78.4 71.04,73.76 70,71.28 Z M110.24,59.44 L110.24,80.56 L91.6,80.56 L91.6,21.04 L139.6,21.04 C159.44,21.04 165.44,27.92 165.44,36.48 L165.44,37.44 C165.44,45.92 158.32,49.28 154.4,50.48 C160.48,52.08 165.68,56.56 165.68,64.16 L165.68,72.88 C165.68,77.68 166.32,79.2 166.8,80.16 L166.8,80.56 L147.84,80.56 C147.28,79.84 146.96,78.88 146.96,76.8 L146.96,69.92 C146.96,62.64 143.76,59.44 134.56,59.44 L110.24,59.44 Z M110.24,34.56 L110.24,46.24 L138.48,46.24 C143.76,46.24 146,43.68 146,40.4 L146,40.32 C146,37.2 143.92,34.56 138.48,34.56 L110.24,34.56 Z M232.72,80.56 L227.12,69.68 L191.04,69.68 L185.68,80.56 L166.72,80.56 L196.8,21.04 L220.96,21.04 L252.8,80.56 L232.72,80.56 Z M197.68,56.24 L220.24,56.24 L208.72,33.92 L197.68,56.24 Z M253.28,35.12 L253.28,21.04 L323.36,21.04 L323.36,35.12 L297.68,35.12 L297.68,80.56 L278.88,80.56 L278.88,35.12 L253.28,35.12 Z M348.32,21.04 L348.32,80.56 L329.68,80.56 L329.68,21.04 L348.32,21.04 Z M429.12,61.68 C429.12,71.52 424.16,81.6 394.24,81.6 L388.72,81.6 C357.52,81.6 353.92,68.16 353.92,60.32 L353.92,59.44 L373.36,59.44 C373.6,62.96 375.68,68.88 391.04,68.88 L392.16,68.88 C407.84,68.88 409.6,65.76 409.6,62.56 C409.6,59.12 407.76,56.88 394,56.56 L383.76,56.32 C361.52,55.68 354.72,48.16 354.72,38.88 L354.72,38.16 C354.72,29.28 360.08,20 387.12,20 L392.64,20 C420.8,20 427.2,29.84 427.2,38.8 L427.2,39.6 L407.84,39.6 C407.52,37.28 406.16,32.48 390.64,32.48 L389.36,32.48 C374.96,32.48 373.92,35.12 373.92,37.6 C373.92,40.08 375.44,42.56 387.68,42.72 L397.68,42.88 C420.08,43.36 429.12,48.72 429.12,60.56 L429.12,61.68 Z M527.2,71.28 C524.72,74.32 516.96,81.6 498.56,81.6 L496.88,81.6 C464.64,81.6 457.2,63.6 457.2,51.68 L457.2,49.44 C457.2,37.84 463.28,20 497.52,20 L500.96,20 C534.32,20 540,34.48 540.4,42.56 L540.4,42.64 L520.56,42.64 C520.08,41.28 518,34.16 499.36,34.16 C481.2,34.16 476.72,42 476.72,50.24 L476.72,51.12 C476.72,58.88 482.8,67.12 499.2,67.12 C516.96,67.12 522.24,60.24 522.24,58.64 L522.24,58.48 L498.88,58.48 L498.88,47.2 L540.8,47.2 L540.8,80.56 L529.6,80.56 C529.36,78.4 528.24,73.76 527.2,71.28 Z M567.44,59.44 L567.44,80.56 L548.8,80.56 L548.8,21.04 L596.8,21.04 C616.64,21.04 622.64,27.92 622.64,36.48 L622.64,37.44 C622.64,45.92 615.52,49.28 611.6,50.48 C617.68,52.08 622.88,56.56 622.88,64.16 L622.88,72.88 C622.88,77.68 623.52,79.2 624,80.16 L624,80.56 L605.04,80.56 C604.48,79.84 604.16,78.88 604.16,76.8 L604.16,69.92 C604.16,62.64 600.96,59.44 591.76,59.44 L567.44,59.44 Z M567.44,34.56 L567.44,46.24 L595.68,46.24 C600.96,46.24 603.2,43.68 603.2,40.4 L603.2,40.32 C603.2,37.2 601.12,34.56 595.68,34.56 L567.44,34.56 Z M689.92,80.56 L684.32,69.68 L648.24,69.68 L642.88,80.56 L623.92,80.56 L654,21.04 L678.16,21.04 L710,80.56 L689.92,80.56 Z M654.88,56.24 L677.44,56.24 L665.92,33.92 L654.88,56.24 Z M710.48,35.12 L710.48,21.04 L780.56,21.04 L780.56,35.12 L754.88,35.12 L754.88,80.56 L736.08,80.56 L736.08,35.12 L710.48,35.12 Z M805.52,21.04 L805.52,80.56 L786.88,80.56 L786.88,21.04 L805.52,21.04 Z M886.32,61.68 C886.32,71.52 881.36,81.6 851.44,81.6 L845.92,81.6 C814.72,81.6 811.12,68.16 811.12,60.32 L811.12,59.44 L830.56,59.44 C830.8,62.96 832.88,68.88 848.24,68.88 L849.36,68.88 C865.04,68.88 866.8,65.76 866.8,62.56 C866.8,59.12 864.96,56.88 851.2,56.56 L840.96,56.32 C818.72,55.68 811.92,48.16 811.92,38.88 L811.92,38.16 C811.92,29.28 817.28,20 844.32,20 L849.84,20 C878,20 884.4,29.84 884.4,38.8 L884.4,39.6 L865.04,39.6 C864.72,37.28 863.36,32.48 847.84,32.48 L846.56,32.48 C832.16,32.48 831.12,35.12 831.12,37.6 C831.12,40.08 832.64,42.56 844.88,42.72 L854.88,42.88 C877.28,43.36 886.32,48.72 886.32,60.56 L886.32,61.68 Z M984.4,71.28 C981.92,74.32 974.16,81.6 955.76,81.6 L954.08,81.6 C921.84,81.6 914.4,63.6 914.4,51.68 L914.4,49.44 C914.4,37.84 920.48,20 954.72,20 L958.16,20 C991.52,20 997.2,34.48 997.6,42.56 L997.6,42.64 L977.76,42.64 C977.28,41.28 975.2,34.16 956.56,34.16 C938.4,34.16 933.92,42 933.92,50.24 L933.92,51.12 C933.92,58.88 940,67.12 956.4,67.12 C974.16,67.12 979.44,60.24 979.44,58.64 L979.44,58.48 L956.08,58.48 L956.08,47.2 L998,47.2 L998,80.56 L986.8,80.56 C986.56,78.4 985.44,73.76 984.4,71.28 Z M1024.64,59.44 L1024.64,80.56 L1006,80.56 L1006,21.04 L1054,21.04 C1073.84,21.04 1079.84,27.92 1079.84,36.48 L1079.84,37.44 C1079.84,45.92 1072.72,49.28 1068.8,50.48 C1074.88,52.08 1080.08,56.56 1080.08,64.16 L1080.08,72.88 C1080.08,77.68 1080.72,79.2 1081.2,80.16 L1081.2,80.56 L1062.24,80.56 C1061.68,79.84 1061.36,78.88 1061.36,76.8 L1061.36,69.92 C1061.36,62.64 1058.16,59.44 1048.96,59.44 L1024.64,59.44 Z M1024.64,34.56 L1024.64,46.24 L1052.88,46.24 C1058.16,46.24 1060.4,43.68 1060.4,40.4 L1060.4,40.32 C1060.4,37.2 1058.32,34.56 1052.88,34.56 L1024.64,34.56 Z M1147.12,80.56 L1141.52,69.68 L1105.44,69.68 L1100.08,80.56 L1081.12,80.56 L1111.2,21.04 L1135.36,21.04 L1167.2,80.56 L1147.12,80.56 Z M1112.08,56.24 L1134.64,56.24 L1123.12,33.92 L1112.08,56.24 Z M1167.68,35.12 L1167.68,21.04 L1237.76,21.04 L1237.76,35.12 L1212.08,35.12 L1212.08,80.56 L1193.28,80.56 L1193.28,35.12 L1167.68,35.12 Z M1262.72,21.04 L1262.72,80.56 L1244.08,80.56 L1244.08,21.04 L1262.72,21.04 Z M1343.52,61.68 C1343.52,71.52 1338.56,81.6 1308.64,81.6 L1303.12,81.6 C1271.92,81.6 1268.32,68.16 1268.32,60.32 L1268.32,59.44 L1287.76,59.44 C1288,62.96 1290.08,68.88 1305.44,68.88 L1306.56,68.88 C1322.24,68.88 1324,65.76 1324,62.56 C1324,59.12 1322.16,56.88 1308.4,56.56 L1298.16,56.32 C1275.92,55.68 1269.12,48.16 1269.12,38.88 L1269.12,38.16 C1269.12,29.28 1274.48,20 1301.52,20 L1307.04,20 C1335.2,20 1341.6,29.84 1341.6,38.8 L1341.6,39.6 L1322.24,39.6 C1321.92,37.28 1320.56,32.48 1305.04,32.48 L1303.76,32.48 C1289.36,32.48 1288.32,35.12 1288.32,37.6 C1288.32,40.08 1289.84,42.56 1302.08,42.72 L1312.08,42.88 C1334.48,43.36 1343.52,48.72 1343.52,60.56 L1343.52,61.68 Z M1441.6,71.28 C1439.12,74.32 1431.36,81.6 1412.96,81.6 L1411.28,81.6 C1379.04,81.6 1371.6,63.6 1371.6,51.68 L1371.6,49.44 C1371.6,37.84 1377.68,20 1411.92,20 L1415.36,20 C1448.72,20 1454.4,34.48 1454.8,42.56 L1454.8,42.64 L1434.96,42.64 C1434.48,41.28 1432.4,34.16 1413.76,34.16 C1395.6,34.16 1391.12,42 1391.12,50.24 L1391.12,51.12 C1391.12,58.88 1397.2,67.12 1413.6,67.12 C1431.36,67.12 1436.64,60.24 1436.64,58.64 L1436.64,58.48 L1413.28,58.48 L1413.28,47.2 L1455.2,47.2 L1455.2,80.56 L1444,80.56 C1443.76,78.4 1442.64,73.76 1441.6,71.28 Z M1481.84,59.44 L1481.84,80.56 L1463.2,80.56 L1463.2,21.04 L1511.2,21.04 C1531.04,21.04 1537.04,27.92 1537.04,36.48 L1537.04,37.44 C1537.04,45.92 1529.92,49.28 1526,50.48 C1532.08,52.08 1537.28,56.56 1537.28,64.16 L1537.28,72.88 C1537.28,77.68 1537.92,79.2 1538.4,80.16 L1538.4,80.56 L1519.44,80.56 C1518.88,79.84 1518.56,78.88 1518.56,76.8 L1518.56,69.92 C1518.56,62.64 1515.36,59.44 1506.16,59.44 L1481.84,59.44 Z M1481.84,34.56 L1481.84,46.24 L1510.08,46.24 C1515.36,46.24 1517.6,43.68 1517.6,40.4 L1517.6,40.32 C1517.6,37.2 1515.52,34.56 1510.08,34.56 L1481.84,34.56 Z M1604.32,80.56 L1598.72,69.68 L1562.64,69.68 L1557.28,80.56 L1538.32,80.56 L1568.4,21.04 L1592.56,21.04 L1624.4,80.56 L1604.32,80.56 Z M1569.28,56.24 L1591.84,56.24 L1580.32,33.92 L1569.28,56.24 Z M1624.88,35.12 L1624.88,21.04 L1694.96,21.04 L1694.96,35.12 L1669.28,35.12 L1669.28,80.56 L1650.48,80.56 L1650.48,35.12 L1624.88,35.12 Z M1719.92,21.04 L1719.92,80.56 L1701.28,80.56 L1701.28,21.04 L1719.92,21.04 Z M1800.72,61.68 C1800.72,71.52 1795.76,81.6 1765.84,81.6 L1760.32,81.6 C1729.12,81.6 1725.52,68.16 1725.52,60.32 L1725.52,59.44 L1744.96,59.44 C1745.2,62.96 1747.28,68.88 1762.64,68.88 L1763.76,68.88 C1779.44,68.88 1781.2,65.76 1781.2,62.56 C1781.2,59.12 1779.36,56.88 1765.6,56.56 L1755.36,56.32 C1733.12,55.68 1726.32,48.16 1726.32,38.88 L1726.32,38.16 C1726.32,29.28 1731.68,20 1758.72,20 L1764.24,20 C1792.4,20 1798.8,29.84 1798.8,38.8 L1798.8,39.6 L1779.44,39.6 C1779.12,37.28 1777.76,32.48 1762.24,32.48 L1760.96,32.48 C1746.56,32.48 1745.52,35.12 1745.52,37.6 C1745.52,40.08 1747.04,42.56 1759.28,42.72 L1769.28,42.88 C1791.68,43.36 1800.72,48.72 1800.72,60.56 L1800.72,61.68 Z M1898.8,71.28 C1896.32,74.32 1888.56,81.6 1870.16,81.6 L1868.48,81.6 C1836.24,81.6 1828.8,63.6 1828.8,51.68 L1828.8,49.44 C1828.8,37.84 1834.88,20 1869.12,20 L1872.56,20 C1905.92,20 1911.6,34.48 1912,42.56 L1912,42.64 L1892.16,42.64 C1891.68,41.28 1889.6,34.16 1870.96,34.16 C1852.8,34.16 1848.32,42 1848.32,50.24 L1848.32,51.12 C1848.32,58.88 1854.4,67.12 1870.8,67.12 C1888.56,67.12 1893.84,60.24 1893.84,58.64 L1893.84,58.48 L1870.48,58.48 L1870.48,47.2 L1912.4,47.2 L1912.4,80.56 L1901.2,80.56 C1900.96,78.4 1899.84,73.76 1898.8,71.28 Z M1939.04,59.44 L1939.04,80.56 L1920.4,80.56 L1920.4,21.04 L1968.4,21.04 C1988.24,21.04 1994.24,27.92 1994.24,36.48 L1994.24,37.44 C1994.24,45.92 1987.12,49.28 1983.2,50.48 C1989.28,52.08 1994.48,56.56 1994.48,64.16 L1994.48,72.88 C1994.48,77.68 1995.12,79.2 1995.6,80.16 L1995.6,80.56 L1976.64,80.56 C1976.08,79.84 1975.76,78.88 1975.76,76.8 L1975.76,69.92 C1975.76,62.64 1972.56,59.44 1963.36,59.44 L1939.04,59.44 Z M1939.04,34.56 L1939.04,46.24 L1967.28,46.24 C1972.56,46.24 1974.8,43.68 1974.8,40.4 L1974.8,40.32 C1974.8,37.2 1972.72,34.56 1967.28,34.56 L1939.04,34.56 Z M2061.52,80.56 L2055.92,69.68 L2019.84,69.68 L2014.48,80.56 L1995.52,80.56 L2025.6,21.04 L2049.76,21.04 L2081.6,80.56 L2061.52,80.56 Z M2026.48,56.24 L2049.04,56.24 L2037.52,33.92 L2026.48,56.24 Z M2082.08,35.12 L2082.08,21.04 L2152.16,21.04 L2152.16,35.12 L2126.48,35.12 L2126.48,80.56 L2107.68,80.56 L2107.68,35.12 L2082.08,35.12 Z M2177.12,21.04 L2177.12,80.56 L2158.48,80.56 L2158.48,21.04 L2177.12,21.04 Z M2257.92,61.68 C2257.92,71.52 2252.96,81.6 2223.04,81.6 L2217.52,81.6 C2186.32,81.6 2182.72,68.16 2182.72,60.32 L2182.72,59.44 L2202.16,59.44 C2202.4,62.96 2204.48,68.88 2219.84,68.88 L2220.96,68.88 C2236.64,68.88 2238.4,65.76 2238.4,62.56 C2238.4,59.12 2236.56,56.88 2222.8,56.56 L2212.56,56.32 C2190.32,55.68 2183.52,48.16 2183.52,38.88 L2183.52,38.16 C2183.52,29.28 2188.88,20 2215.92,20 L2221.44,20 C2249.6,20 2256,29.84 2256,38.8 L2256,39.6 L2236.64,39.6 C2236.32,37.28 2234.96,32.48 2219.44,32.48 L2218.16,32.48 C2203.76,32.48 2202.72,35.12 2202.72,37.6 C2202.72,40.08 2204.24,42.56 2216.48,42.72 L2226.48,42.88 C2248.88,43.36 2257.92,48.72 2257.92,60.56 L2257.92,61.68 Z M2356,71.28 C2353.52,74.32 2345.76,81.6 2327.36,81.6 L2325.68,81.6 C2293.44,81.6 2286,63.6 2286,51.68 L2286,49.44 C2286,37.84 2292.08,20 2326.32,20 L2329.76,20 C2363.12,20 2368.8,34.48 2369.2,42.56 L2369.2,42.64 L2349.36,42.64 C2348.88,41.28 2346.8,34.16 2328.16,34.16 C2310,34.16 2305.52,42 2305.52,50.24 L2305.52,51.12 C2305.52,58.88 2311.6,67.12 2328,67.12 C2345.76,67.12 2351.04,60.24 2351.04,58.64 L2351.04,58.48 L2327.68,58.48 L2327.68,47.2 L2369.6,47.2 L2369.6,80.56 L2358.4,80.56 C2358.16,78.4 2357.04,73.76 2356,71.28 Z M2396.24,59.44 L2396.24,80.56 L2377.6,80.56 L2377.6,21.04 L2425.6,21.04 C2445.44,21.04 2451.44,27.92 2451.44,36.48 L2451.44,37.44 C2451.44,45.92 2444.32,49.28 2440.4,50.48 C2446.48,52.08 2451.68,56.56 2451.68,64.16 L2451.68,72.88 C2451.68,77.68 2452.32,79.2 2452.8,80.16 L2452.8,80.56 L2433.84,80.56 C2433.28,79.84 2432.96,78.88 2432.96,76.8 L2432.96,69.92 C2432.96,62.64 2429.76,59.44 2420.56,59.44 L2396.24,59.44 Z M2396.24,34.56 L2396.24,46.24 L2424.48,46.24 C2429.76,46.24 2432,43.68 2432,40.4 L2432,40.32 C2432,37.2 2429.92,34.56 2424.48,34.56 L2396.24,34.56 Z M2518.72,80.56 L2513.12,69.68 L2477.04,69.68 L2471.68,80.56 L2452.72,80.56 L2482.8,21.04 L2506.96,21.04 L2538.8,80.56 L2518.72,80.56 Z M2483.68,56.24 L2506.24,56.24 L2494.72,33.92 L2483.68,56.24 Z M2539.28,35.12 L2539.28,21.04 L2609.36,21.04 L2609.36,35.12 L2583.68,35.12 L2583.68,80.56 L2564.88,80.56 L2564.88,35.12 L2539.28,35.12 Z M2634.32,21.04 L2634.32,80.56 L2615.68,80.56 L2615.68,21.04 L2634.32,21.04 Z M2715.12,61.68 C2715.12,71.52 2710.16,81.6 2680.24,81.6 L2674.72,81.6 C2643.52,81.6 2639.92,68.16 2639.92,60.32 L2639.92,59.44 L2659.36,59.44 C2659.6,62.96 2661.68,68.88 2677.04,68.88 L2678.16,68.88 C2693.84,68.88 2695.6,65.76 2695.6,62.56 C2695.6,59.12 2693.76,56.88 2680,56.56 L2669.76,56.32 C2647.52,55.68 2640.72,48.16 2640.72,38.88 L2640.72,38.16 C2640.72,29.28 2646.08,20 2673.12,20 L2678.64,20 C2706.8,20 2713.2,29.84 2713.2,38.8 L2713.2,39.6 L2693.84,39.6 C2693.52,37.28 2692.16,32.48 2676.64,32.48 L2675.36,32.48 C2660.96,32.48 2659.92,35.12 2659.92,37.6 C2659.92,40.08 2661.44,42.56 2673.68,42.72 L2683.68,42.88 C2706.08,43.36 2715.12,48.72 2715.12,60.56 L2715.12,61.68 Z M2813.2,71.28 C2810.72,74.32 2802.96,81.6 2784.56,81.6 L2782.88,81.6 C2750.64,81.6 2743.2,63.6 2743.2,51.68 L2743.2,49.44 C2743.2,37.84 2749.28,20 2783.52,20 L2786.96,20 C2820.32,20 2826,34.48 2826.4,42.56 L2826.4,42.64 L2806.56,42.64 C2806.08,41.28 2804,34.16 2785.36,34.16 C2767.2,34.16 2762.72,42 2762.72,50.24 L2762.72,51.12 C2762.72,58.88 2768.8,67.12 2785.2,67.12 C2802.96,67.12 2808.24,60.24 2808.24,58.64 L2808.24,58.48 L2784.88,58.48 L2784.88,47.2 L2826.8,47.2 L2826.8,80.56 L2815.6,80.56 C2815.36,78.4 2814.24,73.76 2813.2,71.28 Z M2853.44,59.44 L2853.44,80.56 L2834.8,80.56 L2834.8,21.04 L2882.8,21.04 C2902.64,21.04 2908.64,27.92 2908.64,36.48 L2908.64,37.44 C2908.64,45.92 2901.52,49.28 2897.6,50.48 C2903.68,52.08 2908.88,56.56 2908.88,64.16 L2908.88,72.88 C2908.88,77.68 2909.52,79.2 2910,80.16 L2910,80.56 L2891.04,80.56 C2890.48,79.84 2890.16,78.88 2890.16,76.8 L2890.16,69.92 C2890.16,62.64 2886.96,59.44 2877.76,59.44 L2853.44,59.44 Z M2853.44,34.56 L2853.44,46.24 L2881.68,46.24 C2886.96,46.24 2889.2,43.68 2889.2,40.4 L2889.2,40.32 C2889.2,37.2 2887.12,34.56 2881.68,34.56 L2853.44,34.56 Z M2975.92,80.56 L2970.32,69.68 L2934.24,69.68 L2928.88,80.56 L2909.92,80.56 L2940,21.04 L2964.16,21.04 L2996,80.56 L2975.92,80.56 Z M2940.88,56.24 L2963.44,56.24 L2951.92,33.92 L2940.88,56.24 Z M2996.48,35.12 L2996.48,21.04 L3066.56,21.04 L3066.56,35.12 L3040.88,35.12 L3040.88,80.56 L3022.08,80.56 L3022.08,35.12 L2996.48,35.12 Z M3091.52,21.04 L3091.52,80.56 L3072.88,80.56 L3072.88,21.04 L3091.52,21.04 Z M3172.32,61.68 C3172.32,71.52 3167.36,81.6 3137.44,81.6 L3131.92,81.6 C3100.72,81.6 3097.12,68.16 3097.12,60.32 L3097.12,59.44 L3116.56,59.44 C3116.8,62.96 3118.88,68.88 3134.24,68.88 L3135.36,68.88 C3151.04,68.88 3152.8,65.76 3152.8,62.56 C3152.8,59.12 3150.96,56.88 3137.2,56.56 L3126.96,56.32 C3104.72,55.68 3097.92,48.16 3097.92,38.88 L3097.92,38.16 C3097.92,29.28 3103.28,20 3130.32,20 L3135.84,20 C3164,20 3170.4,29.84 3170.4,38.8 L3170.4,39.6 L3151.04,39.6 C3150.72,37.28 3149.36,32.48 3133.84,32.48 L3132.56,32.48 C3118.16,32.48 3117.12,35.12 3117.12,37.6 C3117.12,40.08 3118.64,42.56 3130.88,42.72 L3140.88,42.88 C3163.28,43.36 3172.32,48.72 3172.32,60.56 L3172.32,61.68 Z M3270.4,71.28 C3267.92,74.32 3260.16,81.6 3241.76,81.6 L3240.08,81.6 C3207.84,81.6 3200.4,63.6 3200.4,51.68 L3200.4,49.44 C3200.4,37.84 3206.48,20 3240.72,20 L3244.16,20 C3277.52,20 3283.2,34.48 3283.6,42.56 L3283.6,42.64 L3263.76,42.64 C3263.28,41.28 3261.2,34.16 3242.56,34.16 C3224.4,34.16 3219.92,42 3219.92,50.24 L3219.92,51.12 C3219.92,58.88 3226,67.12 3242.4,67.12 C3260.16,67.12 3265.44,60.24 3265.44,58.64 L3265.44,58.48 L3242.08,58.48 L3242.08,47.2 L3284,47.2 L3284,80.56 L3272.8,80.56 C3272.56,78.4 3271.44,73.76 3270.4,71.28 Z M3310.64,59.44 L3310.64,80.56 L3292,80.56 L3292,21.04 L3340,21.04 C3359.84,21.04 3365.84,27.92 3365.84,36.48 L3365.84,37.44 C3365.84,45.92 3358.72,49.28 3354.8,50.48 C3360.88,52.08 3366.08,56.56 3366.08,64.16 L3366.08,72.88 C3366.08,77.68 3366.72,79.2 3367.2,80.16 L3367.2,80.56 L3348.24,80.56 C3347.68,79.84 3347.36,78.88 3347.36,76.8 L3347.36,69.92 C3347.36,62.64 3344.16,59.44 3334.96,59.44 L3310.64,59.44 Z M3310.64,34.56 L3310.64,46.24 L3338.88,46.24 C3344.16,46.24 3346.4,43.68 3346.4,40.4 L3346.4,40.32 C3346.4,37.2 3344.32,34.56 3338.88,34.56 L3310.64,34.56 Z M3433.12,80.56 L3427.52,69.68 L3391.44,69.68 L3386.08,80.56 L3367.12,80.56 L3397.2,21.04 L3421.36,21.04 L3453.2,80.56 L3433.12,80.56 Z M3398.08,56.24 L3420.64,56.24 L3409.12,33.92 L3398.08,56.24 Z M3453.68,35.12 L3453.68,21.04 L3523.76,21.04 L3523.76,35.12 L3498.08,35.12 L3498.08,80.56 L3479.28,80.56 L3479.28,35.12 L3453.68,35.12 Z M3548.72,21.04 L3548.72,80.56 L3530.08,80.56 L3530.08,21.04 L3548.72,21.04 Z M3629.52,61.68 C3629.52,71.52 3624.56,81.6 3594.64,81.6 L3589.12,81.6 C3557.92,81.6 3554.32,68.16 3554.32,60.32 L3554.32,59.44 L3573.76,59.44 C3574,62.96 3576.08,68.88 3591.44,68.88 L3592.56,68.88 C3608.24,68.88 3610,65.76 3610,62.56 C3610,59.12 3608.16,56.88 3594.4,56.56 L3584.16,56.32 C3561.92,55.68 3555.12,48.16 3555.12,38.88 L3555.12,38.16 C3555.12,29.28 3560.48,20 3587.52,20 L3593.04,20 C3621.2,20 3627.6,29.84 3627.6,38.8 L3627.6,39.6 L3608.24,39.6 C3607.92,37.28 3606.56,32.48 3591.04,32.48 L3589.76,32.48 C3575.36,32.48 3574.32,35.12 3574.32,37.6 C3574.32,40.08 3575.84,42.56 3588.08,42.72 L3598.08,42.88 C3620.48,43.36 3629.52,48.72 3629.52,60.56 L3629.52,61.68 Z M3727.6,71.28 C3725.12,74.32 3717.36,81.6 3698.96,81.6 L3697.28,81.6 C3665.04,81.6 3657.6,63.6 3657.6,51.68 L3657.6,49.44 C3657.6,37.84 3663.68,20 3697.92,20 L3701.36,20 C3734.72,20 3740.4,34.48 3740.8,42.56 L3740.8,42.64 L3720.96,42.64 C3720.48,41.28 3718.4,34.16 3699.76,34.16 C3681.6,34.16 3677.12,42 3677.12,50.24 L3677.12,51.12 C3677.12,58.88 3683.2,67.12 3699.6,67.12 C3717.36,67.12 3722.64,60.24 3722.64,58.64 L3722.64,58.48 L3699.28,58.48 L3699.28,47.2 L3741.2,47.2 L3741.2,80.56 L3730,80.56 C3729.76,78.4 3728.64,73.76 3727.6,71.28 Z M3767.84,59.44 L3767.84,80.56 L3749.2,80.56 L3749.2,21.04 L3797.2,21.04 C3817.04,21.04 3823.04,27.92 3823.04,36.48 L3823.04,37.44 C3823.04,45.92 3815.92,49.28 3812,50.48 C3818.08,52.08 3823.28,56.56 3823.28,64.16 L3823.28,72.88 C3823.28,77.68 3823.92,79.2 3824.4,80.16 L3824.4,80.56 L3805.44,80.56 C3804.88,79.84 3804.56,78.88 3804.56,76.8 L3804.56,69.92 C3804.56,62.64 3801.36,59.44 3792.16,59.44 L3767.84,59.44 Z M3767.84,34.56 L3767.84,46.24 L3796.08,46.24 C3801.36,46.24 3803.6,43.68 3803.6,40.4 L3803.6,40.32 C3803.6,37.2 3801.52,34.56 3796.08,34.56 L3767.84,34.56 Z M3890.32,80.56 L3884.72,69.68 L3848.64,69.68 L3843.28,80.56 L3824.32,80.56 L3854.4,21.04 L3878.56,21.04 L3910.4,80.56 L3890.32,80.56 Z M3855.28,56.24 L3877.84,56.24 L3866.32,33.92 L3855.28,56.24 Z M3910.88,35.12 L3910.88,21.04 L3980.96,21.04 L3980.96,35.12 L3955.28,35.12 L3955.28,80.56 L3936.48,80.56 L3936.48,35.12 L3910.88,35.12 Z M4005.92,21.04 L4005.92,80.56 L3987.28,80.56 L3987.28,21.04 L4005.92,21.04 Z M4086.72,61.68 C4086.72,71.52 4081.76,81.6 4051.84,81.6 L4046.32,81.6 C4015.12,81.6 4011.52,68.16 4011.52,60.32 L4011.52,59.44 L4030.96,59.44 C4031.2,62.96 4033.28,68.88 4048.64,68.88 L4049.76,68.88 C4065.44,68.88 4067.2,65.76 4067.2,62.56 C4067.2,59.12 4065.36,56.88 4051.6,56.56 L4041.36,56.32 C4019.12,55.68 4012.32,48.16 4012.32,38.88 L4012.32,38.16 C4012.32,29.28 4017.68,20 4044.72,20 L4050.24,20 C4078.4,20 4084.8,29.84 4084.8,38.8 L4084.8,39.6 L4065.44,39.6 C4065.12,37.28 4063.76,32.48 4048.24,32.48 L4046.96,32.48 C4032.56,32.48 4031.52,35.12 4031.52,37.6 C4031.52,40.08 4033.04,42.56 4045.28,42.72 L4055.28,42.88 C4077.68,43.36 4086.72,48.72 4086.72,60.56 L4086.72,61.68 Z"/>
  </g>
</svg>
