<svg xmlns="http://www.w3.org/2000/svg" width="4525" height="102" viewBox="0 0 4525 102">
  <g fill="none" fill-rule="evenodd">
    <rect width="4525" height="102" fill="#000"/>
    <g fill-rule="nonzero" transform="translate(0 20)">
      <path fill="#FFF" d="M83.04,37.68 C83.04,45.2 77.2,61.84 43.12,61.84 L39.84,61.84 C5.36,61.84 0,42.64 0,32 L0,29.68 C0,18.88 4.72,0.24 39.84,0.24 L43.12,0.24 C77.68,0.24 82.88,16.72 82.96,23.68 L82.96,24.56 L63.2,24.56 C62.72,22.96 60.4,14.64 41.44,14.64 C23.6,14.64 19.52,22.64 19.52,30.08 L19.52,31.04 C19.52,38 24.24,47.36 41.6,47.36 C60.88,47.36 62.88,38.16 63.28,36.8 L83.04,36.8 L83.04,37.68 Z M149.2,60.8 L143.6,49.92 L107.52,49.92 L102.16,60.8 L83.2,60.8 L113.28,1.28 L137.44,1.28 L169.28,60.8 L149.2,60.8 Z M114.16,36.48 L136.72,36.48 L125.2,14.16 L114.16,36.48 Z M244.24,41.92 C244.24,51.76 239.28,61.84 209.36,61.84 L203.84,61.84 C172.64,61.84 169.04,48.4 169.04,40.56 L169.04,39.68 L188.48,39.68 C188.72,43.2 190.8,49.12 206.16,49.12 L207.28,49.12 C222.96,49.12 224.72,46 224.72,42.8 C224.72,39.36 222.88,37.12 209.12,36.8 L198.88,36.56 C176.64,35.92 169.84,28.4 169.84,19.12 L169.84,18.4 C169.84,9.52 175.2,0.24 202.24,0.24 L207.76,0.24 C235.92,0.24 242.32,10.08 242.32,19.04 L242.32,19.84 L222.96,19.84 C222.64,17.52 221.28,12.72 205.76,12.72 L204.48,12.72 C190.08,12.72 189.04,15.36 189.04,17.84 C189.04,20.32 190.56,22.8 202.8,22.96 L212.8,23.12 C235.2,23.6 244.24,28.96 244.24,40.8 L244.24,41.92 Z M308.72,60.8 L308.72,37.36 L268.72,37.36 L268.72,60.8 L250.08,60.8 L250.08,1.28 L268.72,1.28 L268.72,22.96 L308.72,22.96 L308.72,1.28 L327.36,1.28 L327.36,60.8 L308.72,60.8 Z"/>
      <path fill="#FF0226" d="M439.36,61.68 C430.4,61.68 424.8,59.84 419.6,56.96 C413.2,59.92 404.88,61.84 394.24,61.84 C364.16,61.84 357.36,52.88 357.36,43.84 L357.36,42.96 C357.36,35.12 363.76,30.32 375.76,28.56 C370.64,24.72 367.84,19.92 367.84,15.2 L367.84,14.56 C367.84,7.68 371.28,-1.13686838e-13 393.04,-1.13686838e-13 L397.28,-1.13686838e-13 C419.12,-1.13686838e-13 421.92,8.48 421.92,14.16 L421.92,14.56 C421.92,20.88 417.44,26.32 402.48,29.2 L418.72,40.16 C422.08,34.72 422.72,28.48 422.72,24.72 L440.24,24.72 C440.08,31.12 438.16,39.84 431.92,47.28 C435.28,48.24 439.12,48.64 444.32,48.64 L439.36,61.68 Z M385.68,14.64 C385.68,17.6 388.8,19.84 394.72,23.92 C400.96,22 405.6,19.68 405.6,15.92 C405.6,12.48 403.68,10.08 394.88,10.08 C387.36,10.08 385.68,12 385.68,14.64 Z M376.4,41.04 C376.4,45.52 381.04,50.24 393.68,50.24 C398.8,50.24 403.2,49.76 406.8,48.8 L382.8,33.2 C379.36,34.48 376.4,36.8 376.4,40.8 L376.4,41.04 Z"/>
      <path fill="#FFF" d="M553.12,37.68 C553.12,45.2 547.28,61.84 513.2,61.84 L509.92,61.84 C475.44,61.84 470.08,42.64 470.08,32 L470.08,29.68 C470.08,18.88 474.8,0.24 509.92,0.24 L513.2,0.24 C547.76,0.24 552.96,16.72 553.04,23.68 L553.04,24.56 L533.28,24.56 C532.8,22.96 530.48,14.64 511.52,14.64 C493.68,14.64 489.6,22.64 489.6,30.08 L489.6,31.04 C489.6,38 494.32,47.36 511.68,47.36 C530.96,47.36 532.96,38.16 533.36,36.8 L553.12,36.8 L553.12,37.68 Z M619.28,60.8 L613.68,49.92 L577.6,49.92 L572.24,60.8 L553.28,60.8 L583.36,1.28 L607.52,1.28 L639.36,60.8 L619.28,60.8 Z M584.24,36.48 L606.8,36.48 L595.28,14.16 L584.24,36.48 Z M660.8,39.68 L660.8,60.8 L642.16,60.8 L642.16,1.28 L690.16,1.28 C710,1.28 716,8.16 716,16.72 L716,17.68 C716,26.16 708.88,29.52 704.96,30.72 C711.04,32.32 716.24,36.8 716.24,44.4 L716.24,53.12 C716.24,57.92 716.88,59.44 717.36,60.4 L717.36,60.8 L698.4,60.8 C697.84,60.08 697.52,59.12 697.52,57.04 L697.52,50.16 C697.52,42.88 694.32,39.68 685.12,39.68 L660.8,39.68 Z M660.8,14.8 L660.8,26.48 L689.04,26.48 C694.32,26.48 696.56,23.92 696.56,20.64 L696.56,20.56 C696.56,17.44 694.48,14.8 689.04,14.8 L660.8,14.8 Z M741.76,39.68 L741.76,60.8 L723.12,60.8 L723.12,1.28 L771.12,1.28 C790.96,1.28 796.96,8.16 796.96,16.72 L796.96,17.68 C796.96,26.16 789.84,29.52 785.92,30.72 C792,32.32 797.2,36.8 797.2,44.4 L797.2,53.12 C797.2,57.92 797.84,59.44 798.32,60.4 L798.32,60.8 L779.36,60.8 C778.8,60.08 778.48,59.12 778.48,57.04 L778.48,50.16 C778.48,42.88 775.28,39.68 766.08,39.68 L741.76,39.68 Z M741.76,14.8 L741.76,26.48 L770,26.48 C775.28,26.48 777.52,23.92 777.52,20.64 L777.52,20.56 C777.52,17.44 775.44,14.8 770,14.8 L741.76,14.8 Z M848.24,37.76 L848.24,60.8 L829.6,60.8 L829.6,37.76 L797.76,1.28 L820.88,1.28 L839.36,23.2 L858.16,1.28 L879.2,1.28 L848.24,37.76 Z M986.8,37.68 C986.8,45.2 980.96,61.84 946.88,61.84 L943.6,61.84 C909.12,61.84 903.76,42.64 903.76,32 L903.76,29.68 C903.76,18.88 908.48,0.24 943.6,0.24 L946.88,0.24 C981.44,0.24 986.64,16.72 986.72,23.68 L986.72,24.56 L966.96,24.56 C966.48,22.96 964.16,14.64 945.2,14.64 C927.36,14.64 923.28,22.64 923.28,30.08 L923.28,31.04 C923.28,38 928,47.36 945.36,47.36 C964.64,47.36 966.64,38.16 967.04,36.8 L986.8,36.8 L986.8,37.68 Z M1052.96,60.8 L1047.36,49.92 L1011.28,49.92 L1005.92,60.8 L986.96,60.8 L1017.04,1.28 L1041.2,1.28 L1073.04,60.8 L1052.96,60.8 Z M1017.92,36.48 L1040.48,36.48 L1028.96,14.16 L1017.92,36.48 Z M1148,41.92 C1148,51.76 1143.04,61.84 1113.12,61.84 L1107.6,61.84 C1076.4,61.84 1072.8,48.4 1072.8,40.56 L1072.8,39.68 L1092.24,39.68 C1092.48,43.2 1094.56,49.12 1109.92,49.12 L1111.04,49.12 C1126.72,49.12 1128.48,46 1128.48,42.8 C1128.48,39.36 1126.64,37.12 1112.88,36.8 L1102.64,36.56 C1080.4,35.92 1073.6,28.4 1073.6,19.12 L1073.6,18.4 C1073.6,9.52 1078.96,0.24 1106,0.24 L1111.52,0.24 C1139.68,0.24 1146.08,10.08 1146.08,19.04 L1146.08,19.84 L1126.72,19.84 C1126.4,17.52 1125.04,12.72 1109.52,12.72 L1108.24,12.72 C1093.84,12.72 1092.8,15.36 1092.8,17.84 C1092.8,20.32 1094.32,22.8 1106.56,22.96 L1116.56,23.12 C1138.96,23.6 1148,28.96 1148,40.8 L1148,41.92 Z M1212.48,60.8 L1212.48,37.36 L1172.48,37.36 L1172.48,60.8 L1153.84,60.8 L1153.84,1.28 L1172.48,1.28 L1172.48,22.96 L1212.48,22.96 L1212.48,1.28 L1231.12,1.28 L1231.12,60.8 L1212.48,60.8 Z"/>
      <path fill="#FF0226" d="M1343.12,61.68 C1334.16,61.68 1328.56,59.84 1323.36,56.96 C1316.96,59.92 1308.64,61.84 1298,61.84 C1267.92,61.84 1261.12,52.88 1261.12,43.84 L1261.12,42.96 C1261.12,35.12 1267.52,30.32 1279.52,28.56 C1274.4,24.72 1271.6,19.92 1271.6,15.2 L1271.6,14.56 C1271.6,7.68 1275.04,-1.13686838e-13 1296.8,-1.13686838e-13 L1301.04,-1.13686838e-13 C1322.88,-1.13686838e-13 1325.68,8.48 1325.68,14.16 L1325.68,14.56 C1325.68,20.88 1321.2,26.32 1306.24,29.2 L1322.48,40.16 C1325.84,34.72 1326.48,28.48 1326.48,24.72 L1344,24.72 C1343.84,31.12 1341.92,39.84 1335.68,47.28 C1339.04,48.24 1342.88,48.64 1348.08,48.64 L1343.12,61.68 Z M1289.44,14.64 C1289.44,17.6 1292.56,19.84 1298.48,23.92 C1304.72,22 1309.36,19.68 1309.36,15.92 C1309.36,12.48 1307.44,10.08 1298.64,10.08 C1291.12,10.08 1289.44,12 1289.44,14.64 Z M1280.16,41.04 C1280.16,45.52 1284.8,50.24 1297.44,50.24 C1302.56,50.24 1306.96,49.76 1310.56,48.8 L1286.56,33.2 C1283.12,34.48 1280.16,36.8 1280.16,40.8 L1280.16,41.04 Z"/>
      <path fill="#FFF" d="M1456.88,37.68 C1456.88,45.2 1451.04,61.84 1416.96,61.84 L1413.68,61.84 C1379.2,61.84 1373.84,42.64 1373.84,32 L1373.84,29.68 C1373.84,18.88 1378.56,0.24 1413.68,0.24 L1416.96,0.24 C1451.52,0.24 1456.72,16.72 1456.8,23.68 L1456.8,24.56 L1437.04,24.56 C1436.56,22.96 1434.24,14.64 1415.28,14.64 C1397.44,14.64 1393.36,22.64 1393.36,30.08 L1393.36,31.04 C1393.36,38 1398.08,47.36 1415.44,47.36 C1434.72,47.36 1436.72,38.16 1437.12,36.8 L1456.88,36.8 L1456.88,37.68 Z M1523.04,60.8 L1517.44,49.92 L1481.36,49.92 L1476,60.8 L1457.04,60.8 L1487.12,1.28 L1511.28,1.28 L1543.12,60.8 L1523.04,60.8 Z M1488,36.48 L1510.56,36.48 L1499.04,14.16 L1488,36.48 Z M1564.56,39.68 L1564.56,60.8 L1545.92,60.8 L1545.92,1.28 L1593.92,1.28 C1613.76,1.28 1619.76,8.16 1619.76,16.72 L1619.76,17.68 C1619.76,26.16 1612.64,29.52 1608.72,30.72 C1614.8,32.32 1620,36.8 1620,44.4 L1620,53.12 C1620,57.92 1620.64,59.44 1621.12,60.4 L1621.12,60.8 L1602.16,60.8 C1601.6,60.08 1601.28,59.12 1601.28,57.04 L1601.28,50.16 C1601.28,42.88 1598.08,39.68 1588.88,39.68 L1564.56,39.68 Z M1564.56,14.8 L1564.56,26.48 L1592.8,26.48 C1598.08,26.48 1600.32,23.92 1600.32,20.64 L1600.32,20.56 C1600.32,17.44 1598.24,14.8 1592.8,14.8 L1564.56,14.8 Z M1645.52,39.68 L1645.52,60.8 L1626.88,60.8 L1626.88,1.28 L1674.88,1.28 C1694.72,1.28 1700.72,8.16 1700.72,16.72 L1700.72,17.68 C1700.72,26.16 1693.6,29.52 1689.68,30.72 C1695.76,32.32 1700.96,36.8 1700.96,44.4 L1700.96,53.12 C1700.96,57.92 1701.6,59.44 1702.08,60.4 L1702.08,60.8 L1683.12,60.8 C1682.56,60.08 1682.24,59.12 1682.24,57.04 L1682.24,50.16 C1682.24,42.88 1679.04,39.68 1669.84,39.68 L1645.52,39.68 Z M1645.52,14.8 L1645.52,26.48 L1673.76,26.48 C1679.04,26.48 1681.28,23.92 1681.28,20.64 L1681.28,20.56 C1681.28,17.44 1679.2,14.8 1673.76,14.8 L1645.52,14.8 Z M1752,37.76 L1752,60.8 L1733.36,60.8 L1733.36,37.76 L1701.52,1.28 L1724.64,1.28 L1743.12,23.2 L1761.92,1.28 L1782.96,1.28 L1752,37.76 Z M1890.56,37.68 C1890.56,45.2 1884.72,61.84 1850.64,61.84 L1847.36,61.84 C1812.88,61.84 1807.52,42.64 1807.52,32 L1807.52,29.68 C1807.52,18.88 1812.24,0.24 1847.36,0.24 L1850.64,0.24 C1885.2,0.24 1890.4,16.72 1890.48,23.68 L1890.48,24.56 L1870.72,24.56 C1870.24,22.96 1867.92,14.64 1848.96,14.64 C1831.12,14.64 1827.04,22.64 1827.04,30.08 L1827.04,31.04 C1827.04,38 1831.76,47.36 1849.12,47.36 C1868.4,47.36 1870.4,38.16 1870.8,36.8 L1890.56,36.8 L1890.56,37.68 Z M1956.72,60.8 L1951.12,49.92 L1915.04,49.92 L1909.68,60.8 L1890.72,60.8 L1920.8,1.28 L1944.96,1.28 L1976.8,60.8 L1956.72,60.8 Z M1921.68,36.48 L1944.24,36.48 L1932.72,14.16 L1921.68,36.48 Z M2051.76,41.92 C2051.76,51.76 2046.8,61.84 2016.88,61.84 L2011.36,61.84 C1980.16,61.84 1976.56,48.4 1976.56,40.56 L1976.56,39.68 L1996,39.68 C1996.24,43.2 1998.32,49.12 2013.68,49.12 L2014.8,49.12 C2030.48,49.12 2032.24,46 2032.24,42.8 C2032.24,39.36 2030.4,37.12 2016.64,36.8 L2006.4,36.56 C1984.16,35.92 1977.36,28.4 1977.36,19.12 L1977.36,18.4 C1977.36,9.52 1982.72,0.24 2009.76,0.24 L2015.28,0.24 C2043.44,0.24 2049.84,10.08 2049.84,19.04 L2049.84,19.84 L2030.48,19.84 C2030.16,17.52 2028.8,12.72 2013.28,12.72 L2012,12.72 C1997.6,12.72 1996.56,15.36 1996.56,17.84 C1996.56,20.32 1998.08,22.8 2010.32,22.96 L2020.32,23.12 C2042.72,23.6 2051.76,28.96 2051.76,40.8 L2051.76,41.92 Z M2116.24,60.8 L2116.24,37.36 L2076.24,37.36 L2076.24,60.8 L2057.6,60.8 L2057.6,1.28 L2076.24,1.28 L2076.24,22.96 L2116.24,22.96 L2116.24,1.28 L2134.88,1.28 L2134.88,60.8 L2116.24,60.8 Z"/>
      <path fill="#FF0226" d="M2246.88,61.68 C2237.92,61.68 2232.32,59.84 2227.12,56.96 C2220.72,59.92 2212.4,61.84 2201.76,61.84 C2171.68,61.84 2164.88,52.88 2164.88,43.84 L2164.88,42.96 C2164.88,35.12 2171.28,30.32 2183.28,28.56 C2178.16,24.72 2175.36,19.92 2175.36,15.2 L2175.36,14.56 C2175.36,7.68 2178.8,-1.13686838e-13 2200.56,-1.13686838e-13 L2204.8,-1.13686838e-13 C2226.64,-1.13686838e-13 2229.44,8.48 2229.44,14.16 L2229.44,14.56 C2229.44,20.88 2224.96,26.32 2210,29.2 L2226.24,40.16 C2229.6,34.72 2230.24,28.48 2230.24,24.72 L2247.76,24.72 C2247.6,31.12 2245.68,39.84 2239.44,47.28 C2242.8,48.24 2246.64,48.64 2251.84,48.64 L2246.88,61.68 Z M2193.2,14.64 C2193.2,17.6 2196.32,19.84 2202.24,23.92 C2208.48,22 2213.12,19.68 2213.12,15.92 C2213.12,12.48 2211.2,10.08 2202.4,10.08 C2194.88,10.08 2193.2,12 2193.2,14.64 Z M2183.92,41.04 C2183.92,45.52 2188.56,50.24 2201.2,50.24 C2206.32,50.24 2210.72,49.76 2214.32,48.8 L2190.32,33.2 C2186.88,34.48 2183.92,36.8 2183.92,40.8 L2183.92,41.04 Z"/>
      <path fill="#FFF" d="M2360.64,37.68 C2360.64,45.2 2354.8,61.84 2320.72,61.84 L2317.44,61.84 C2282.96,61.84 2277.6,42.64 2277.6,32 L2277.6,29.68 C2277.6,18.88 2282.32,0.24 2317.44,0.24 L2320.72,0.24 C2355.28,0.24 2360.48,16.72 2360.56,23.68 L2360.56,24.56 L2340.8,24.56 C2340.32,22.96 2338,14.64 2319.04,14.64 C2301.2,14.64 2297.12,22.64 2297.12,30.08 L2297.12,31.04 C2297.12,38 2301.84,47.36 2319.2,47.36 C2338.48,47.36 2340.48,38.16 2340.88,36.8 L2360.64,36.8 L2360.64,37.68 Z M2426.8,60.8 L2421.2,49.92 L2385.12,49.92 L2379.76,60.8 L2360.8,60.8 L2390.88,1.28 L2415.04,1.28 L2446.88,60.8 L2426.8,60.8 Z M2391.76,36.48 L2414.32,36.48 L2402.8,14.16 L2391.76,36.48 Z M2468.32,39.68 L2468.32,60.8 L2449.68,60.8 L2449.68,1.28 L2497.68,1.28 C2517.52,1.28 2523.52,8.16 2523.52,16.72 L2523.52,17.68 C2523.52,26.16 2516.4,29.52 2512.48,30.72 C2518.56,32.32 2523.76,36.8 2523.76,44.4 L2523.76,53.12 C2523.76,57.92 2524.4,59.44 2524.88,60.4 L2524.88,60.8 L2505.92,60.8 C2505.36,60.08 2505.04,59.12 2505.04,57.04 L2505.04,50.16 C2505.04,42.88 2501.84,39.68 2492.64,39.68 L2468.32,39.68 Z M2468.32,14.8 L2468.32,26.48 L2496.56,26.48 C2501.84,26.48 2504.08,23.92 2504.08,20.64 L2504.08,20.56 C2504.08,17.44 2502,14.8 2496.56,14.8 L2468.32,14.8 Z M2549.28,39.68 L2549.28,60.8 L2530.64,60.8 L2530.64,1.28 L2578.64,1.28 C2598.48,1.28 2604.48,8.16 2604.48,16.72 L2604.48,17.68 C2604.48,26.16 2597.36,29.52 2593.44,30.72 C2599.52,32.32 2604.72,36.8 2604.72,44.4 L2604.72,53.12 C2604.72,57.92 2605.36,59.44 2605.84,60.4 L2605.84,60.8 L2586.88,60.8 C2586.32,60.08 2586,59.12 2586,57.04 L2586,50.16 C2586,42.88 2582.8,39.68 2573.6,39.68 L2549.28,39.68 Z M2549.28,14.8 L2549.28,26.48 L2577.52,26.48 C2582.8,26.48 2585.04,23.92 2585.04,20.64 L2585.04,20.56 C2585.04,17.44 2582.96,14.8 2577.52,14.8 L2549.28,14.8 Z M2655.76,37.76 L2655.76,60.8 L2637.12,60.8 L2637.12,37.76 L2605.28,1.28 L2628.4,1.28 L2646.88,23.2 L2665.68,1.28 L2686.72,1.28 L2655.76,37.76 Z M2794.32,37.68 C2794.32,45.2 2788.48,61.84 2754.4,61.84 L2751.12,61.84 C2716.64,61.84 2711.28,42.64 2711.28,32 L2711.28,29.68 C2711.28,18.88 2716,0.24 2751.12,0.24 L2754.4,0.24 C2788.96,0.24 2794.16,16.72 2794.24,23.68 L2794.24,24.56 L2774.48,24.56 C2774,22.96 2771.68,14.64 2752.72,14.64 C2734.88,14.64 2730.8,22.64 2730.8,30.08 L2730.8,31.04 C2730.8,38 2735.52,47.36 2752.88,47.36 C2772.16,47.36 2774.16,38.16 2774.56,36.8 L2794.32,36.8 L2794.32,37.68 Z M2860.48,60.8 L2854.88,49.92 L2818.8,49.92 L2813.44,60.8 L2794.48,60.8 L2824.56,1.28 L2848.72,1.28 L2880.56,60.8 L2860.48,60.8 Z M2825.44,36.48 L2848,36.48 L2836.48,14.16 L2825.44,36.48 Z M2955.52,41.92 C2955.52,51.76 2950.56,61.84 2920.64,61.84 L2915.12,61.84 C2883.92,61.84 2880.32,48.4 2880.32,40.56 L2880.32,39.68 L2899.76,39.68 C2900,43.2 2902.08,49.12 2917.44,49.12 L2918.56,49.12 C2934.24,49.12 2936,46 2936,42.8 C2936,39.36 2934.16,37.12 2920.4,36.8 L2910.16,36.56 C2887.92,35.92 2881.12,28.4 2881.12,19.12 L2881.12,18.4 C2881.12,9.52 2886.48,0.24 2913.52,0.24 L2919.04,0.24 C2947.2,0.24 2953.6,10.08 2953.6,19.04 L2953.6,19.84 L2934.24,19.84 C2933.92,17.52 2932.56,12.72 2917.04,12.72 L2915.76,12.72 C2901.36,12.72 2900.32,15.36 2900.32,17.84 C2900.32,20.32 2901.84,22.8 2914.08,22.96 L2924.08,23.12 C2946.48,23.6 2955.52,28.96 2955.52,40.8 L2955.52,41.92 Z M3020,60.8 L3020,37.36 L2980,37.36 L2980,60.8 L2961.36,60.8 L2961.36,1.28 L2980,1.28 L2980,22.96 L3020,22.96 L3020,1.28 L3038.64,1.28 L3038.64,60.8 L3020,60.8 Z"/>
      <path fill="#FF0226" d="M3150.64,61.68 C3141.68,61.68 3136.08,59.84 3130.88,56.96 C3124.48,59.92 3116.16,61.84 3105.52,61.84 C3075.44,61.84 3068.64,52.88 3068.64,43.84 L3068.64,42.96 C3068.64,35.12 3075.04,30.32 3087.04,28.56 C3081.92,24.72 3079.12,19.92 3079.12,15.2 L3079.12,14.56 C3079.12,7.68 3082.56,-1.13686838e-13 3104.32,-1.13686838e-13 L3108.56,-1.13686838e-13 C3130.4,-1.13686838e-13 3133.2,8.48 3133.2,14.16 L3133.2,14.56 C3133.2,20.88 3128.72,26.32 3113.76,29.2 L3130,40.16 C3133.36,34.72 3134,28.48 3134,24.72 L3151.52,24.72 C3151.36,31.12 3149.44,39.84 3143.2,47.28 C3146.56,48.24 3150.4,48.64 3155.6,48.64 L3150.64,61.68 Z M3096.96,14.64 C3096.96,17.6 3100.08,19.84 3106,23.92 C3112.24,22 3116.88,19.68 3116.88,15.92 C3116.88,12.48 3114.96,10.08 3106.16,10.08 C3098.64,10.08 3096.96,12 3096.96,14.64 Z M3087.68,41.04 C3087.68,45.52 3092.32,50.24 3104.96,50.24 C3110.08,50.24 3114.48,49.76 3118.08,48.8 L3094.08,33.2 C3090.64,34.48 3087.68,36.8 3087.68,40.8 L3087.68,41.04 Z"/>
      <path fill="#FFF" d="M3264.4,37.68 C3264.4,45.2 3258.56,61.84 3224.48,61.84 L3221.2,61.84 C3186.72,61.84 3181.36,42.64 3181.36,32 L3181.36,29.68 C3181.36,18.88 3186.08,0.24 3221.2,0.24 L3224.48,0.24 C3259.04,0.24 3264.24,16.72 3264.32,23.68 L3264.32,24.56 L3244.56,24.56 C3244.08,22.96 3241.76,14.64 3222.8,14.64 C3204.96,14.64 3200.88,22.64 3200.88,30.08 L3200.88,31.04 C3200.88,38 3205.6,47.36 3222.96,47.36 C3242.24,47.36 3244.24,38.16 3244.64,36.8 L3264.4,36.8 L3264.4,37.68 Z M3330.56,60.8 L3324.96,49.92 L3288.88,49.92 L3283.52,60.8 L3264.56,60.8 L3294.64,1.28 L3318.8,1.28 L3350.64,60.8 L3330.56,60.8 Z M3295.52,36.48 L3318.08,36.48 L3306.56,14.16 L3295.52,36.48 Z M3372.08,39.68 L3372.08,60.8 L3353.44,60.8 L3353.44,1.28 L3401.44,1.28 C3421.28,1.28 3427.28,8.16 3427.28,16.72 L3427.28,17.68 C3427.28,26.16 3420.16,29.52 3416.24,30.72 C3422.32,32.32 3427.52,36.8 3427.52,44.4 L3427.52,53.12 C3427.52,57.92 3428.16,59.44 3428.64,60.4 L3428.64,60.8 L3409.68,60.8 C3409.12,60.08 3408.8,59.12 3408.8,57.04 L3408.8,50.16 C3408.8,42.88 3405.6,39.68 3396.4,39.68 L3372.08,39.68 Z M3372.08,14.8 L3372.08,26.48 L3400.32,26.48 C3405.6,26.48 3407.84,23.92 3407.84,20.64 L3407.84,20.56 C3407.84,17.44 3405.76,14.8 3400.32,14.8 L3372.08,14.8 Z M3453.04,39.68 L3453.04,60.8 L3434.4,60.8 L3434.4,1.28 L3482.4,1.28 C3502.24,1.28 3508.24,8.16 3508.24,16.72 L3508.24,17.68 C3508.24,26.16 3501.12,29.52 3497.2,30.72 C3503.28,32.32 3508.48,36.8 3508.48,44.4 L3508.48,53.12 C3508.48,57.92 3509.12,59.44 3509.6,60.4 L3509.6,60.8 L3490.64,60.8 C3490.08,60.08 3489.76,59.12 3489.76,57.04 L3489.76,50.16 C3489.76,42.88 3486.56,39.68 3477.36,39.68 L3453.04,39.68 Z M3453.04,14.8 L3453.04,26.48 L3481.28,26.48 C3486.56,26.48 3488.8,23.92 3488.8,20.64 L3488.8,20.56 C3488.8,17.44 3486.72,14.8 3481.28,14.8 L3453.04,14.8 Z M3559.52,37.76 L3559.52,60.8 L3540.88,60.8 L3540.88,37.76 L3509.04,1.28 L3532.16,1.28 L3550.64,23.2 L3569.44,1.28 L3590.48,1.28 L3559.52,37.76 Z M3698.08,37.68 C3698.08,45.2 3692.24,61.84 3658.16,61.84 L3654.88,61.84 C3620.4,61.84 3615.04,42.64 3615.04,32 L3615.04,29.68 C3615.04,18.88 3619.76,0.24 3654.88,0.24 L3658.16,0.24 C3692.72,0.24 3697.92,16.72 3698,23.68 L3698,24.56 L3678.24,24.56 C3677.76,22.96 3675.44,14.64 3656.48,14.64 C3638.64,14.64 3634.56,22.64 3634.56,30.08 L3634.56,31.04 C3634.56,38 3639.28,47.36 3656.64,47.36 C3675.92,47.36 3677.92,38.16 3678.32,36.8 L3698.08,36.8 L3698.08,37.68 Z M3764.24,60.8 L3758.64,49.92 L3722.56,49.92 L3717.2,60.8 L3698.24,60.8 L3728.32,1.28 L3752.48,1.28 L3784.32,60.8 L3764.24,60.8 Z M3729.2,36.48 L3751.76,36.48 L3740.24,14.16 L3729.2,36.48 Z M3859.28,41.92 C3859.28,51.76 3854.32,61.84 3824.4,61.84 L3818.88,61.84 C3787.68,61.84 3784.08,48.4 3784.08,40.56 L3784.08,39.68 L3803.52,39.68 C3803.76,43.2 3805.84,49.12 3821.2,49.12 L3822.32,49.12 C3838,49.12 3839.76,46 3839.76,42.8 C3839.76,39.36 3837.92,37.12 3824.16,36.8 L3813.92,36.56 C3791.68,35.92 3784.88,28.4 3784.88,19.12 L3784.88,18.4 C3784.88,9.52 3790.24,0.24 3817.28,0.24 L3822.8,0.24 C3850.96,0.24 3857.36,10.08 3857.36,19.04 L3857.36,19.84 L3838,19.84 C3837.68,17.52 3836.32,12.72 3820.8,12.72 L3819.52,12.72 C3805.12,12.72 3804.08,15.36 3804.08,17.84 C3804.08,20.32 3805.6,22.8 3817.84,22.96 L3827.84,23.12 C3850.24,23.6 3859.28,28.96 3859.28,40.8 L3859.28,41.92 Z M3923.76,60.8 L3923.76,37.36 L3883.76,37.36 L3883.76,60.8 L3865.12,60.8 L3865.12,1.28 L3883.76,1.28 L3883.76,22.96 L3923.76,22.96 L3923.76,1.28 L3942.4,1.28 L3942.4,60.8 L3923.76,60.8 Z"/>
      <path fill="#FF0226" d="M4054.4,61.68 C4045.44,61.68 4039.84,59.84 4034.64,56.96 C4028.24,59.92 4019.92,61.84 4009.28,61.84 C3979.2,61.84 3972.4,52.88 3972.4,43.84 L3972.4,42.96 C3972.4,35.12 3978.8,30.32 3990.8,28.56 C3985.68,24.72 3982.88,19.92 3982.88,15.2 L3982.88,14.56 C3982.88,7.68 3986.32,-1.13686838e-13 4008.08,-1.13686838e-13 L4012.32,-1.13686838e-13 C4034.16,-1.13686838e-13 4036.96,8.48 4036.96,14.16 L4036.96,14.56 C4036.96,20.88 4032.48,26.32 4017.52,29.2 L4033.76,40.16 C4037.12,34.72 4037.76,28.48 4037.76,24.72 L4055.28,24.72 C4055.12,31.12 4053.2,39.84 4046.96,47.28 C4050.32,48.24 4054.16,48.64 4059.36,48.64 L4054.4,61.68 Z M4000.72,14.64 C4000.72,17.6 4003.84,19.84 4009.76,23.92 C4016,22 4020.64,19.68 4020.64,15.92 C4020.64,12.48 4018.72,10.08 4009.92,10.08 C4002.4,10.08 4000.72,12 4000.72,14.64 Z M3991.44,41.04 C3991.44,45.52 3996.08,50.24 4008.72,50.24 C4013.84,50.24 4018.24,49.76 4021.84,48.8 L3997.84,33.2 C3994.4,34.48 3991.44,36.8 3991.44,40.8 L3991.44,41.04 Z"/>
      <path fill="#FFF" d="M4168.16,37.68 C4168.16,45.2 4162.32,61.84 4128.24,61.84 L4124.96,61.84 C4090.48,61.84 4085.12,42.64 4085.12,32 L4085.12,29.68 C4085.12,18.88 4089.84,0.24 4124.96,0.24 L4128.24,0.24 C4162.8,0.24 4168,16.72 4168.08,23.68 L4168.08,24.56 L4148.32,24.56 C4147.84,22.96 4145.52,14.64 4126.56,14.64 C4108.72,14.64 4104.64,22.64 4104.64,30.08 L4104.64,31.04 C4104.64,38 4109.36,47.36 4126.72,47.36 C4146,47.36 4148,38.16 4148.4,36.8 L4168.16,36.8 L4168.16,37.68 Z M4234.32,60.8 L4228.72,49.92 L4192.64,49.92 L4187.28,60.8 L4168.32,60.8 L4198.4,1.28 L4222.56,1.28 L4254.4,60.8 L4234.32,60.8 Z M4199.28,36.48 L4221.84,36.48 L4210.32,14.16 L4199.28,36.48 Z M4275.84,39.68 L4275.84,60.8 L4257.2,60.8 L4257.2,1.28 L4305.2,1.28 C4325.04,1.28 4331.04,8.16 4331.04,16.72 L4331.04,17.68 C4331.04,26.16 4323.92,29.52 4320,30.72 C4326.08,32.32 4331.28,36.8 4331.28,44.4 L4331.28,53.12 C4331.28,57.92 4331.92,59.44 4332.4,60.4 L4332.4,60.8 L4313.44,60.8 C4312.88,60.08 4312.56,59.12 4312.56,57.04 L4312.56,50.16 C4312.56,42.88 4309.36,39.68 4300.16,39.68 L4275.84,39.68 Z M4275.84,14.8 L4275.84,26.48 L4304.08,26.48 C4309.36,26.48 4311.6,23.92 4311.6,20.64 L4311.6,20.56 C4311.6,17.44 4309.52,14.8 4304.08,14.8 L4275.84,14.8 Z M4356.8,39.68 L4356.8,60.8 L4338.16,60.8 L4338.16,1.28 L4386.16,1.28 C4406,1.28 4412,8.16 4412,16.72 L4412,17.68 C4412,26.16 4404.88,29.52 4400.96,30.72 C4407.04,32.32 4412.24,36.8 4412.24,44.4 L4412.24,53.12 C4412.24,57.92 4412.88,59.44 4413.36,60.4 L4413.36,60.8 L4394.4,60.8 C4393.84,60.08 4393.52,59.12 4393.52,57.04 L4393.52,50.16 C4393.52,42.88 4390.32,39.68 4381.12,39.68 L4356.8,39.68 Z M4356.8,14.8 L4356.8,26.48 L4385.04,26.48 C4390.32,26.48 4392.56,23.92 4392.56,20.64 L4392.56,20.56 C4392.56,17.44 4390.48,14.8 4385.04,14.8 L4356.8,14.8 Z M4463.28,37.76 L4463.28,60.8 L4444.64,60.8 L4444.64,37.76 L4412.8,1.28 L4435.92,1.28 L4454.4,23.2 L4473.2,1.28 L4494.24,1.28 L4463.28,37.76 Z"/>
    </g>
  </g>
</svg>
