<svg xmlns="http://www.w3.org/2000/svg" width="3925" height="102" viewBox="0 0 3925 102">
  <g fill="none" fill-rule="evenodd">
    <rect width="3925" height="102" fill="#000"/>
    <path fill="#FFF" fill-rule="nonzero" d="M-9.09494702e-13,35.12 L-9.09494702e-13,21.04 L70.08,21.04 L70.08,35.12 L44.4,35.12 L44.4,80.56 L25.6,80.56 L25.6,35.12 L-9.09494702e-13,35.12 Z M115.92,20 L119.36,20 C156.8,20 161.2,38.8 161.2,49.44 L161.2,51.84 C161.2,62.32 156.88,81.6 119.36,81.6 L115.92,81.6 C78.24,81.6 74,62.32 74,51.84 L74,49.44 C74,38.8 78.24,20 115.92,20 Z M141.68,50 C141.68,43.12 137.68,34.4 117.6,34.4 C97.2,34.4 93.52,43.12 93.52,50 L93.52,50.96 C93.52,57.76 97.52,67.12 117.6,67.12 C137.6,67.12 141.68,58 141.68,51.12 L141.68,50 Z M167.44,80.5602944 L167.44,21.04 L206.88,21.04 C241.36,21.04 248.88,35.84 248.88,49.2 L248.88,51.6 C248.88,64.4 241.76,80.64 206.96,80.56 L167.44,80.5602944 Z M186.08,35.12 L186.08,66.24 L205.44,66.24 C226.56,66.24 229.36,56.96 229.36,50.88 L229.36,50.4 C229.36,44.32 226.8,35.12 205.44,35.12 L186.08,35.12 Z M294.32,20 L297.76,20 C335.2,20 339.6,38.8 339.6,49.44 L339.6,51.84 C339.6,62.32 335.28,81.6 297.76,81.6 L294.32,81.6 C256.64,81.6 252.4,62.32 252.4,51.84 L252.4,49.44 C252.4,38.8 256.64,20 294.32,20 Z M320.08,50 C320.08,43.12 316.08,34.4 296,34.4 C275.6,34.4 271.92,43.12 271.92,50 L271.92,50.96 C271.92,57.76 275.92,67.12 296,67.12 C316,67.12 320.08,58 320.08,51.12 L320.08,50 Z"/>
    <g fill-rule="nonzero" transform="translate(0 20)">
      <path fill="#FF0226" d="M381.36,23.68 L367.52,23.68 L367.52,12.48 C377.84,11.76 382.56,7.36 385.28,1.04 L399.84,1.04 L399.84,60.56 L381.36,60.56 L381.36,23.68 Z M433.44,1.04 L496.16,1.04 L496.16,14.56 L451.84,14.56 L451.84,23.36 L495.12,23.36 L495.12,36.96 L451.84,36.96 L451.84,46.72 L496.96,46.72 L496.96,60.56 L433.44,60.56 L433.44,1.04 Z M580.08,29.92 C580.08,41.12 574.08,61.44 543.52,61.44 L540.64,61.44 C508.72,61.44 503.52,41.12 503.52,29.92 L503.52,1.04 L522.24,1.04 L522.24,28.8 C522.24,36.48 525.68,46 541.92,46 C557.92,46 561.44,36.48 561.44,28.8 L561.44,1.04 L580.08,1.04 L580.08,29.92 Z M606.64,39.44 L606.64,60.56 L588,60.56 L588,1.04 L636,1.04 C655.84,1.04 661.84,7.92 661.84,16.48 L661.84,17.44 C661.84,25.92 654.72,29.28 650.8,30.48 C656.88,32.08 662.08,36.56 662.08,44.16 L662.08,52.88 C662.08,57.68 662.72,59.2 663.2,60.16 L663.2,60.56 L644.24,60.56 C643.68,59.84 643.36,58.88 643.36,56.8 L643.36,49.92 C643.36,42.64 640.16,39.44 630.96,39.44 L606.64,39.44 Z M606.64,14.56 L606.64,26.24 L634.88,26.24 C640.16,26.24 642.4,23.68 642.4,20.4 L642.4,20.32 C642.4,17.2 640.32,14.56 634.88,14.56 L606.64,14.56 Z M708.48,0 L711.92,0 C749.36,0 753.76,18.8 753.76,29.44 L753.76,31.84 C753.76,42.32 749.44,61.6 711.92,61.6 L708.48,61.6 C670.8,61.6 666.56,42.32 666.56,31.84 L666.56,29.44 C666.56,18.8 670.8,0 708.48,0 Z M734.24,30 C734.24,23.12 730.24,14.4 710.16,14.4 C689.76,14.4 686.08,23.12 686.08,30 L686.08,30.96 C686.08,37.76 690.08,47.12 710.16,47.12 C730.16,47.12 734.24,38 734.24,31.12 L734.24,30 Z"/>
      <path fill="#FFF" d="M782.32,15.12 L782.32,1.04 L852.4,1.04 L852.4,15.12 L826.72,15.12 L826.72,60.56 L807.92,60.56 L807.92,15.12 L782.32,15.12 Z M898.24,0 L901.68,0 C939.12,0 943.52,18.8 943.52,29.44 L943.52,31.84 C943.52,42.32 939.2,61.6 901.68,61.6 L898.24,61.6 C860.56,61.6 856.32,42.32 856.32,31.84 L856.32,29.44 C856.32,18.8 860.56,0 898.24,0 Z M924,30 C924,23.12 920,14.4 899.92,14.4 C879.52,14.4 875.84,23.12 875.84,30 L875.84,30.96 C875.84,37.76 879.84,47.12 899.92,47.12 C919.92,47.12 924,38 924,31.12 L924,30 Z M949.76,60.5602944 L949.76,1.04 L989.2,1.04 C1023.68,1.04 1031.2,15.84 1031.2,29.2 L1031.2,31.6 C1031.2,44.4 1024.08,60.64 989.28,60.56 L949.76,60.5602944 Z M968.4,15.12 L968.4,46.24 L987.76,46.24 C1008.88,46.24 1011.68,36.96 1011.68,30.88 L1011.68,30.4 C1011.68,24.32 1009.12,15.12 987.76,15.12 L968.4,15.12 Z M1076.64,0 L1080.08,0 C1117.52,0 1121.92,18.8 1121.92,29.44 L1121.92,31.84 C1121.92,42.32 1117.6,61.6 1080.08,61.6 L1076.64,61.6 C1038.96,61.6 1034.72,42.32 1034.72,31.84 L1034.72,29.44 C1034.72,18.8 1038.96,0 1076.64,0 Z M1102.4,30 C1102.4,23.12 1098.4,14.4 1078.32,14.4 C1057.92,14.4 1054.24,23.12 1054.24,30 L1054.24,30.96 C1054.24,37.76 1058.24,47.12 1078.32,47.12 C1098.32,47.12 1102.4,38 1102.4,31.12 L1102.4,30 Z"/>
      <path fill="#FF0226" d="M1163.68,23.68 L1149.84,23.68 L1149.84,12.48 C1160.16,11.76 1164.88,7.36 1167.6,1.04 L1182.16,1.04 L1182.16,60.56 L1163.68,60.56 L1163.68,23.68 Z M1215.76,1.04 L1278.48,1.04 L1278.48,14.56 L1234.16,14.56 L1234.16,23.36 L1277.44,23.36 L1277.44,36.96 L1234.16,36.96 L1234.16,46.72 L1279.28,46.72 L1279.28,60.56 L1215.76,60.56 L1215.76,1.04 Z M1362.4,29.92 C1362.4,41.12 1356.4,61.44 1325.84,61.44 L1322.96,61.44 C1291.04,61.44 1285.84,41.12 1285.84,29.92 L1285.84,1.04 L1304.56,1.04 L1304.56,28.8 C1304.56,36.48 1308,46 1324.24,46 C1340.24,46 1343.76,36.48 1343.76,28.8 L1343.76,1.04 L1362.4,1.04 L1362.4,29.92 Z M1388.96,39.44 L1388.96,60.56 L1370.32,60.56 L1370.32,1.04 L1418.32,1.04 C1438.16,1.04 1444.16,7.92 1444.16,16.48 L1444.16,17.44 C1444.16,25.92 1437.04,29.28 1433.12,30.48 C1439.2,32.08 1444.4,36.56 1444.4,44.16 L1444.4,52.88 C1444.4,57.68 1445.04,59.2 1445.52,60.16 L1445.52,60.56 L1426.56,60.56 C1426,59.84 1425.68,58.88 1425.68,56.8 L1425.68,49.92 C1425.68,42.64 1422.48,39.44 1413.28,39.44 L1388.96,39.44 Z M1388.96,14.56 L1388.96,26.24 L1417.2,26.24 C1422.48,26.24 1424.72,23.68 1424.72,20.4 L1424.72,20.32 C1424.72,17.2 1422.64,14.56 1417.2,14.56 L1388.96,14.56 Z M1490.8,0 L1494.24,0 C1531.68,0 1536.08,18.8 1536.08,29.44 L1536.08,31.84 C1536.08,42.32 1531.76,61.6 1494.24,61.6 L1490.8,61.6 C1453.12,61.6 1448.88,42.32 1448.88,31.84 L1448.88,29.44 C1448.88,18.8 1453.12,0 1490.8,0 Z M1516.56,30 C1516.56,23.12 1512.56,14.4 1492.48,14.4 C1472.08,14.4 1468.4,23.12 1468.4,30 L1468.4,30.96 C1468.4,37.76 1472.4,47.12 1492.48,47.12 C1512.48,47.12 1516.56,38 1516.56,31.12 L1516.56,30 Z"/>
      <path fill="#FFF" d="M1564.64,15.12 L1564.64,1.04 L1634.72,1.04 L1634.72,15.12 L1609.04,15.12 L1609.04,60.56 L1590.24,60.56 L1590.24,15.12 L1564.64,15.12 Z M1680.56,0 L1684,0 C1721.44,0 1725.84,18.8 1725.84,29.44 L1725.84,31.84 C1725.84,42.32 1721.52,61.6 1684,61.6 L1680.56,61.6 C1642.88,61.6 1638.64,42.32 1638.64,31.84 L1638.64,29.44 C1638.64,18.8 1642.88,0 1680.56,0 Z M1706.32,30 C1706.32,23.12 1702.32,14.4 1682.24,14.4 C1661.84,14.4 1658.16,23.12 1658.16,30 L1658.16,30.96 C1658.16,37.76 1662.16,47.12 1682.24,47.12 C1702.24,47.12 1706.32,38 1706.32,31.12 L1706.32,30 Z M1732.08,60.5602944 L1732.08,1.04 L1771.52,1.04 C1806,1.04 1813.52,15.84 1813.52,29.2 L1813.52,31.6 C1813.52,44.4 1806.4,60.64 1771.6,60.56 L1732.08,60.5602944 Z M1750.72,15.12 L1750.72,46.24 L1770.08,46.24 C1791.2,46.24 1794,36.96 1794,30.88 L1794,30.4 C1794,24.32 1791.44,15.12 1770.08,15.12 L1750.72,15.12 Z M1858.96,0 L1862.4,0 C1899.84,0 1904.24,18.8 1904.24,29.44 L1904.24,31.84 C1904.24,42.32 1899.92,61.6 1862.4,61.6 L1858.96,61.6 C1821.28,61.6 1817.04,42.32 1817.04,31.84 L1817.04,29.44 C1817.04,18.8 1821.28,0 1858.96,0 Z M1884.72,30 C1884.72,23.12 1880.72,14.4 1860.64,14.4 C1840.24,14.4 1836.56,23.12 1836.56,30 L1836.56,30.96 C1836.56,37.76 1840.56,47.12 1860.64,47.12 C1880.64,47.12 1884.72,38 1884.72,31.12 L1884.72,30 Z"/>
      <path fill="#FF0226" d="M1946,23.68 L1932.16,23.68 L1932.16,12.48 C1942.48,11.76 1947.2,7.36 1949.92,1.04 L1964.48,1.04 L1964.48,60.56 L1946,60.56 L1946,23.68 Z M1998.08,1.04 L2060.8,1.04 L2060.8,14.56 L2016.48,14.56 L2016.48,23.36 L2059.76,23.36 L2059.76,36.96 L2016.48,36.96 L2016.48,46.72 L2061.6,46.72 L2061.6,60.56 L1998.08,60.56 L1998.08,1.04 Z M2144.72,29.92 C2144.72,41.12 2138.72,61.44 2108.16,61.44 L2105.28,61.44 C2073.36,61.44 2068.16,41.12 2068.16,29.92 L2068.16,1.04 L2086.88,1.04 L2086.88,28.8 C2086.88,36.48 2090.32,46 2106.56,46 C2122.56,46 2126.08,36.48 2126.08,28.8 L2126.08,1.04 L2144.72,1.04 L2144.72,29.92 Z M2171.28,39.44 L2171.28,60.56 L2152.64,60.56 L2152.64,1.04 L2200.64,1.04 C2220.48,1.04 2226.48,7.92 2226.48,16.48 L2226.48,17.44 C2226.48,25.92 2219.36,29.28 2215.44,30.48 C2221.52,32.08 2226.72,36.56 2226.72,44.16 L2226.72,52.88 C2226.72,57.68 2227.36,59.2 2227.84,60.16 L2227.84,60.56 L2208.88,60.56 C2208.32,59.84 2208,58.88 2208,56.8 L2208,49.92 C2208,42.64 2204.8,39.44 2195.6,39.44 L2171.28,39.44 Z M2171.28,14.56 L2171.28,26.24 L2199.52,26.24 C2204.8,26.24 2207.04,23.68 2207.04,20.4 L2207.04,20.32 C2207.04,17.2 2204.96,14.56 2199.52,14.56 L2171.28,14.56 Z M2273.12,0 L2276.56,0 C2314,0 2318.4,18.8 2318.4,29.44 L2318.4,31.84 C2318.4,42.32 2314.08,61.6 2276.56,61.6 L2273.12,61.6 C2235.44,61.6 2231.2,42.32 2231.2,31.84 L2231.2,29.44 C2231.2,18.8 2235.44,0 2273.12,0 Z M2298.88,30 C2298.88,23.12 2294.88,14.4 2274.8,14.4 C2254.4,14.4 2250.72,23.12 2250.72,30 L2250.72,30.96 C2250.72,37.76 2254.72,47.12 2274.8,47.12 C2294.8,47.12 2298.88,38 2298.88,31.12 L2298.88,30 Z"/>
      <path fill="#FFF" d="M2346.96,15.12 L2346.96,1.04 L2417.04,1.04 L2417.04,15.12 L2391.36,15.12 L2391.36,60.56 L2372.56,60.56 L2372.56,15.12 L2346.96,15.12 Z M2462.88,0 L2466.32,0 C2503.76,0 2508.16,18.8 2508.16,29.44 L2508.16,31.84 C2508.16,42.32 2503.84,61.6 2466.32,61.6 L2462.88,61.6 C2425.2,61.6 2420.96,42.32 2420.96,31.84 L2420.96,29.44 C2420.96,18.8 2425.2,0 2462.88,0 Z M2488.64,30 C2488.64,23.12 2484.64,14.4 2464.56,14.4 C2444.16,14.4 2440.48,23.12 2440.48,30 L2440.48,30.96 C2440.48,37.76 2444.48,47.12 2464.56,47.12 C2484.56,47.12 2488.64,38 2488.64,31.12 L2488.64,30 Z M2514.4,60.5602944 L2514.4,1.04 L2553.84,1.04 C2588.32,1.04 2595.84,15.84 2595.84,29.2 L2595.84,31.6 C2595.84,44.4 2588.72,60.64 2553.92,60.56 L2514.4,60.5602944 Z M2533.04,15.12 L2533.04,46.24 L2552.4,46.24 C2573.52,46.24 2576.32,36.96 2576.32,30.88 L2576.32,30.4 C2576.32,24.32 2573.76,15.12 2552.4,15.12 L2533.04,15.12 Z M2641.28,0 L2644.72,0 C2682.16,0 2686.56,18.8 2686.56,29.44 L2686.56,31.84 C2686.56,42.32 2682.24,61.6 2644.72,61.6 L2641.28,61.6 C2603.6,61.6 2599.36,42.32 2599.36,31.84 L2599.36,29.44 C2599.36,18.8 2603.6,0 2641.28,0 Z M2667.04,30 C2667.04,23.12 2663.04,14.4 2642.96,14.4 C2622.56,14.4 2618.88,23.12 2618.88,30 L2618.88,30.96 C2618.88,37.76 2622.88,47.12 2642.96,47.12 C2662.96,47.12 2667.04,38 2667.04,31.12 L2667.04,30 Z"/>
      <path fill="#FF0226" d="M2728.32,23.68 L2714.48,23.68 L2714.48,12.48 C2724.8,11.76 2729.52,7.36 2732.24,1.04 L2746.8,1.04 L2746.8,60.56 L2728.32,60.56 L2728.32,23.68 Z M2780.4,1.04 L2843.12,1.04 L2843.12,14.56 L2798.8,14.56 L2798.8,23.36 L2842.08,23.36 L2842.08,36.96 L2798.8,36.96 L2798.8,46.72 L2843.92,46.72 L2843.92,60.56 L2780.4,60.56 L2780.4,1.04 Z M2927.04,29.92 C2927.04,41.12 2921.04,61.44 2890.48,61.44 L2887.6,61.44 C2855.68,61.44 2850.48,41.12 2850.48,29.92 L2850.48,1.04 L2869.2,1.04 L2869.2,28.8 C2869.2,36.48 2872.64,46 2888.88,46 C2904.88,46 2908.4,36.48 2908.4,28.8 L2908.4,1.04 L2927.04,1.04 L2927.04,29.92 Z M2953.6,39.44 L2953.6,60.56 L2934.96,60.56 L2934.96,1.04 L2982.96,1.04 C3002.8,1.04 3008.8,7.92 3008.8,16.48 L3008.8,17.44 C3008.8,25.92 3001.68,29.28 2997.76,30.48 C3003.84,32.08 3009.04,36.56 3009.04,44.16 L3009.04,52.88 C3009.04,57.68 3009.68,59.2 3010.16,60.16 L3010.16,60.56 L2991.2,60.56 C2990.64,59.84 2990.32,58.88 2990.32,56.8 L2990.32,49.92 C2990.32,42.64 2987.12,39.44 2977.92,39.44 L2953.6,39.44 Z M2953.6,14.56 L2953.6,26.24 L2981.84,26.24 C2987.12,26.24 2989.36,23.68 2989.36,20.4 L2989.36,20.32 C2989.36,17.2 2987.28,14.56 2981.84,14.56 L2953.6,14.56 Z M3055.44,0 L3058.88,0 C3096.32,0 3100.72,18.8 3100.72,29.44 L3100.72,31.84 C3100.72,42.32 3096.4,61.6 3058.88,61.6 L3055.44,61.6 C3017.76,61.6 3013.52,42.32 3013.52,31.84 L3013.52,29.44 C3013.52,18.8 3017.76,0 3055.44,0 Z M3081.2,30 C3081.2,23.12 3077.2,14.4 3057.12,14.4 C3036.72,14.4 3033.04,23.12 3033.04,30 L3033.04,30.96 C3033.04,37.76 3037.04,47.12 3057.12,47.12 C3077.12,47.12 3081.2,38 3081.2,31.12 L3081.2,30 Z"/>
      <path fill="#FFF" d="M3129.28,15.12 L3129.28,1.04 L3199.36,1.04 L3199.36,15.12 L3173.68,15.12 L3173.68,60.56 L3154.88,60.56 L3154.88,15.12 L3129.28,15.12 Z M3245.2,0 L3248.64,0 C3286.08,0 3290.48,18.8 3290.48,29.44 L3290.48,31.84 C3290.48,42.32 3286.16,61.6 3248.64,61.6 L3245.2,61.6 C3207.52,61.6 3203.28,42.32 3203.28,31.84 L3203.28,29.44 C3203.28,18.8 3207.52,0 3245.2,0 Z M3270.96,30 C3270.96,23.12 3266.96,14.4 3246.88,14.4 C3226.48,14.4 3222.8,23.12 3222.8,30 L3222.8,30.96 C3222.8,37.76 3226.8,47.12 3246.88,47.12 C3266.88,47.12 3270.96,38 3270.96,31.12 L3270.96,30 Z M3296.72,60.5602944 L3296.72,1.04 L3336.16,1.04 C3370.64,1.04 3378.16,15.84 3378.16,29.2 L3378.16,31.6 C3378.16,44.4 3371.04,60.64 3336.24,60.56 L3296.72,60.5602944 Z M3315.36,15.12 L3315.36,46.24 L3334.72,46.24 C3355.84,46.24 3358.64,36.96 3358.64,30.88 L3358.64,30.4 C3358.64,24.32 3356.08,15.12 3334.72,15.12 L3315.36,15.12 Z M3423.6,0 L3427.04,0 C3464.48,0 3468.88,18.8 3468.88,29.44 L3468.88,31.84 C3468.88,42.32 3464.56,61.6 3427.04,61.6 L3423.6,61.6 C3385.92,61.6 3381.68,42.32 3381.68,31.84 L3381.68,29.44 C3381.68,18.8 3385.92,0 3423.6,0 Z M3449.36,30 C3449.36,23.12 3445.36,14.4 3425.28,14.4 C3404.88,14.4 3401.2,23.12 3401.2,30 L3401.2,30.96 C3401.2,37.76 3405.2,47.12 3425.28,47.12 C3445.28,47.12 3449.36,38 3449.36,31.12 L3449.36,30 Z"/>
      <path fill="#FF0226" d="M3510.64,23.68 L3496.8,23.68 L3496.8,12.48 C3507.12,11.76 3511.84,7.36 3514.56,1.04 L3529.12,1.04 L3529.12,60.56 L3510.64,60.56 L3510.64,23.68 Z M3562.72,1.04 L3625.44,1.04 L3625.44,14.56 L3581.12,14.56 L3581.12,23.36 L3624.4,23.36 L3624.4,36.96 L3581.12,36.96 L3581.12,46.72 L3626.24,46.72 L3626.24,60.56 L3562.72,60.56 L3562.72,1.04 Z M3709.36,29.92 C3709.36,41.12 3703.36,61.44 3672.8,61.44 L3669.92,61.44 C3638,61.44 3632.8,41.12 3632.8,29.92 L3632.8,1.04 L3651.52,1.04 L3651.52,28.8 C3651.52,36.48 3654.96,46 3671.2,46 C3687.2,46 3690.72,36.48 3690.72,28.8 L3690.72,1.04 L3709.36,1.04 L3709.36,29.92 Z M3735.92,39.44 L3735.92,60.56 L3717.28,60.56 L3717.28,1.04 L3765.28,1.04 C3785.12,1.04 3791.12,7.92 3791.12,16.48 L3791.12,17.44 C3791.12,25.92 3784,29.28 3780.08,30.48 C3786.16,32.08 3791.36,36.56 3791.36,44.16 L3791.36,52.88 C3791.36,57.68 3792,59.2 3792.48,60.16 L3792.48,60.56 L3773.52,60.56 C3772.96,59.84 3772.64,58.88 3772.64,56.8 L3772.64,49.92 C3772.64,42.64 3769.44,39.44 3760.24,39.44 L3735.92,39.44 Z M3735.92,14.56 L3735.92,26.24 L3764.16,26.24 C3769.44,26.24 3771.68,23.68 3771.68,20.4 L3771.68,20.32 C3771.68,17.2 3769.6,14.56 3764.16,14.56 L3735.92,14.56 Z M3837.76,0 L3841.2,0 C3878.64,0 3883.04,18.8 3883.04,29.44 L3883.04,31.84 C3883.04,42.32 3878.72,61.6 3841.2,61.6 L3837.76,61.6 C3800.08,61.6 3795.84,42.32 3795.84,31.84 L3795.84,29.44 C3795.84,18.8 3800.08,0 3837.76,0 Z M3863.52,30 C3863.52,23.12 3859.52,14.4 3839.44,14.4 C3819.04,14.4 3815.36,23.12 3815.36,30 L3815.36,30.96 C3815.36,37.76 3819.36,47.12 3839.44,47.12 C3859.44,47.12 3863.52,38 3863.52,31.12 L3863.52,30 Z"/>
    </g>
  </g>
</svg>
