<svg xmlns="http://www.w3.org/2000/svg" width="3970" height="102" viewBox="0 0 3970 102">
  <g fill="none" fill-rule="evenodd">
    <rect width="3970" height="102" fill="#000"/>
    <path fill="#FFF" fill-rule="nonzero" d="M66,80.52 L60.4,69.64 L24.32,69.64 L18.96,80.52 L2.27373675e-13,80.52 L30.08,21 L54.24,21 L86.08,80.52 L66,80.52 Z M30.96,56.2 L53.52,56.2 L42,33.88 L30.96,56.2 Z M138.96,80.52 L107.52,52.44 L107.52,80.52 L88.88,80.52 L88.88,21 L107.52,21 L107.52,45.8 L138,21 L161.68,21 L127.44,48.2 L163.28,80.52 L138.96,80.52 Z M231.6,90.52 L231.6,80.52 L165.84,80.52 L165.84,21 L184.48,21 L184.48,66.12 L221.2,66.12 L221.2,21 L239.84,21 L239.84,66.12 L249.44,66.12 L249.44,90.52 L231.6,90.52 Z M312.72,80.52 L312.72,41.24 L272.8,80.52 L254.16,80.52 L254.16,21 L272.8,21 L272.8,60.44 L312.72,21 L331.36,21 L331.36,80.52 L312.72,80.52 Z M393.68,59.4 L381.44,59.4 L359.36,80.52 L335.52,80.52 L359.44,58.44 C343.44,57.4 337.68,50.04 337.68,40.84 L337.68,39.88 C337.68,30.52 343.68,21 363.52,21 L412.32,21 L412.32,80.52 L393.68,80.52 L393.68,59.4 Z M393.68,46.2 L393.68,34.52 L364.64,34.52 C359.2,34.52 357.12,37.16 357.12,40.28 L357.12,40.36 C357.12,43.64 359.36,46.2 364.64,46.2 L393.68,46.2 Z M505.76,80.52 L500.16,69.64 L464.08,69.64 L458.72,80.52 L439.76,80.52 L469.84,21 L494,21 L525.84,80.52 L505.76,80.52 Z M470.72,56.2 L493.28,56.2 L481.76,33.88 L470.72,56.2 Z M578.72,80.52 L547.28,52.44 L547.28,80.52 L528.64,80.52 L528.64,21 L547.28,21 L547.28,45.8 L577.76,21 L601.44,21 L567.2,48.2 L603.04,80.52 L578.72,80.52 Z M671.36,90.52 L671.36,80.52 L605.6,80.52 L605.6,21 L624.24,21 L624.24,66.12 L660.96,66.12 L660.96,21 L679.6,21 L679.6,66.12 L689.2,66.12 L689.2,90.52 L671.36,90.52 Z M752.48,80.52 L752.48,41.24 L712.56,80.52 L693.92,80.52 L693.92,21 L712.56,21 L712.56,60.44 L752.48,21 L771.12,21 L771.12,80.52 L752.48,80.52 Z M833.44,59.4 L821.2,59.4 L799.12,80.52 L775.28,80.52 L799.2,58.44 C783.2,57.4 777.44,50.04 777.44,40.84 L777.44,39.88 C777.44,30.52 783.44,21 803.28,21 L852.08,21 L852.08,80.52 L833.44,80.52 L833.44,59.4 Z M833.44,46.2 L833.44,34.52 L804.4,34.52 C798.96,34.52 796.88,37.16 796.88,40.28 L796.88,40.36 C796.88,43.64 799.12,46.2 804.4,46.2 L833.44,46.2 Z M945.52,80.52 L939.92,69.64 L903.84,69.64 L898.48,80.52 L879.52,80.52 L909.6,21 L933.76,21 L965.6,80.52 L945.52,80.52 Z M910.48,56.2 L933.04,56.2 L921.52,33.88 L910.48,56.2 Z M1018.48,80.52 L987.04,52.44 L987.04,80.52 L968.4,80.52 L968.4,21 L987.04,21 L987.04,45.8 L1017.52,21 L1041.2,21 L1006.96,48.2 L1042.8,80.52 L1018.48,80.52 Z M1111.12,90.52 L1111.12,80.52 L1045.36,80.52 L1045.36,21 L1064,21 L1064,66.12 L1100.72,66.12 L1100.72,21 L1119.36,21 L1119.36,66.12 L1128.96,66.12 L1128.96,90.52 L1111.12,90.52 Z M1192.24,80.52 L1192.24,41.24 L1152.32,80.52 L1133.68,80.52 L1133.68,21 L1152.32,21 L1152.32,60.44 L1192.24,21 L1210.88,21 L1210.88,80.52 L1192.24,80.52 Z M1273.2,59.4 L1260.96,59.4 L1238.88,80.52 L1215.04,80.52 L1238.96,58.44 C1222.96,57.4 1217.2,50.04 1217.2,40.84 L1217.2,39.88 C1217.2,30.52 1223.2,21 1243.04,21 L1291.84,21 L1291.84,80.52 L1273.2,80.52 L1273.2,59.4 Z M1273.2,46.2 L1273.2,34.52 L1244.16,34.52 C1238.72,34.52 1236.64,37.16 1236.64,40.28 L1236.64,40.36 C1236.64,43.64 1238.88,46.2 1244.16,46.2 L1273.2,46.2 Z M1385.28,80.52 L1379.68,69.64 L1343.6,69.64 L1338.24,80.52 L1319.28,80.52 L1349.36,21 L1373.52,21 L1405.36,80.52 L1385.28,80.52 Z M1350.24,56.2 L1372.8,56.2 L1361.28,33.88 L1350.24,56.2 Z M1458.24,80.52 L1426.8,52.44 L1426.8,80.52 L1408.16,80.52 L1408.16,21 L1426.8,21 L1426.8,45.8 L1457.28,21 L1480.96,21 L1446.72,48.2 L1482.56,80.52 L1458.24,80.52 Z M1550.88,90.52 L1550.88,80.52 L1485.12,80.52 L1485.12,21 L1503.76,21 L1503.76,66.12 L1540.48,66.12 L1540.48,21 L1559.12,21 L1559.12,66.12 L1568.72,66.12 L1568.72,90.52 L1550.88,90.52 Z M1632,80.52 L1632,41.24 L1592.08,80.52 L1573.44,80.52 L1573.44,21 L1592.08,21 L1592.08,60.44 L1632,21 L1650.64,21 L1650.64,80.52 L1632,80.52 Z M1712.96,59.4 L1700.72,59.4 L1678.64,80.52 L1654.8,80.52 L1678.72,58.44 C1662.72,57.4 1656.96,50.04 1656.96,40.84 L1656.96,39.88 C1656.96,30.52 1662.96,21 1682.8,21 L1731.6,21 L1731.6,80.52 L1712.96,80.52 L1712.96,59.4 Z M1712.96,46.2 L1712.96,34.52 L1683.92,34.52 C1678.48,34.52 1676.4,37.16 1676.4,40.28 L1676.4,40.36 C1676.4,43.64 1678.64,46.2 1683.92,46.2 L1712.96,46.2 Z M1825.04,80.52 L1819.44,69.64 L1783.36,69.64 L1778,80.52 L1759.04,80.52 L1789.12,21 L1813.28,21 L1845.12,80.52 L1825.04,80.52 Z M1790,56.2 L1812.56,56.2 L1801.04,33.88 L1790,56.2 Z M1898,80.52 L1866.56,52.44 L1866.56,80.52 L1847.92,80.52 L1847.92,21 L1866.56,21 L1866.56,45.8 L1897.04,21 L1920.72,21 L1886.48,48.2 L1922.32,80.52 L1898,80.52 Z M1990.64,90.52 L1990.64,80.52 L1924.88,80.52 L1924.88,21 L1943.52,21 L1943.52,66.12 L1980.24,66.12 L1980.24,21 L1998.88,21 L1998.88,66.12 L2008.48,66.12 L2008.48,90.52 L1990.64,90.52 Z M2071.76,80.52 L2071.76,41.24 L2031.84,80.52 L2013.2,80.52 L2013.2,21 L2031.84,21 L2031.84,60.44 L2071.76,21 L2090.4,21 L2090.4,80.52 L2071.76,80.52 Z M2152.72,59.4 L2140.48,59.4 L2118.4,80.52 L2094.56,80.52 L2118.48,58.44 C2102.48,57.4 2096.72,50.04 2096.72,40.84 L2096.72,39.88 C2096.72,30.52 2102.72,21 2122.56,21 L2171.36,21 L2171.36,80.52 L2152.72,80.52 L2152.72,59.4 Z M2152.72,46.2 L2152.72,34.52 L2123.68,34.52 C2118.24,34.52 2116.16,37.16 2116.16,40.28 L2116.16,40.36 C2116.16,43.64 2118.4,46.2 2123.68,46.2 L2152.72,46.2 Z M2264.8,80.52 L2259.2,69.64 L2223.12,69.64 L2217.76,80.52 L2198.8,80.52 L2228.88,21 L2253.04,21 L2284.88,80.52 L2264.8,80.52 Z M2229.76,56.2 L2252.32,56.2 L2240.8,33.88 L2229.76,56.2 Z M2337.76,80.52 L2306.32,52.44 L2306.32,80.52 L2287.68,80.52 L2287.68,21 L2306.32,21 L2306.32,45.8 L2336.8,21 L2360.48,21 L2326.24,48.2 L2362.08,80.52 L2337.76,80.52 Z M2430.4,90.52 L2430.4,80.52 L2364.64,80.52 L2364.64,21 L2383.28,21 L2383.28,66.12 L2420,66.12 L2420,21 L2438.64,21 L2438.64,66.12 L2448.24,66.12 L2448.24,90.52 L2430.4,90.52 Z M2511.52,80.52 L2511.52,41.24 L2471.6,80.52 L2452.96,80.52 L2452.96,21 L2471.6,21 L2471.6,60.44 L2511.52,21 L2530.16,21 L2530.16,80.52 L2511.52,80.52 Z M2592.48,59.4 L2580.24,59.4 L2558.16,80.52 L2534.32,80.52 L2558.24,58.44 C2542.24,57.4 2536.48,50.04 2536.48,40.84 L2536.48,39.88 C2536.48,30.52 2542.48,21 2562.32,21 L2611.12,21 L2611.12,80.52 L2592.48,80.52 L2592.48,59.4 Z M2592.48,46.2 L2592.48,34.52 L2563.44,34.52 C2558,34.52 2555.92,37.16 2555.92,40.28 L2555.92,40.36 C2555.92,43.64 2558.16,46.2 2563.44,46.2 L2592.48,46.2 Z M2704.56,80.52 L2698.96,69.64 L2662.88,69.64 L2657.52,80.52 L2638.56,80.52 L2668.64,21 L2692.8,21 L2724.64,80.52 L2704.56,80.52 Z M2669.52,56.2 L2692.08,56.2 L2680.56,33.88 L2669.52,56.2 Z M2777.52,80.52 L2746.08,52.44 L2746.08,80.52 L2727.44,80.52 L2727.44,21 L2746.08,21 L2746.08,45.8 L2776.56,21 L2800.24,21 L2766,48.2 L2801.84,80.52 L2777.52,80.52 Z M2870.16,90.52 L2870.16,80.52 L2804.4,80.52 L2804.4,21 L2823.04,21 L2823.04,66.12 L2859.76,66.12 L2859.76,21 L2878.4,21 L2878.4,66.12 L2888,66.12 L2888,90.52 L2870.16,90.52 Z M2951.28,80.52 L2951.28,41.24 L2911.36,80.52 L2892.72,80.52 L2892.72,21 L2911.36,21 L2911.36,60.44 L2951.28,21 L2969.92,21 L2969.92,80.52 L2951.28,80.52 Z M3032.24,59.4 L3020,59.4 L2997.92,80.52 L2974.08,80.52 L2998,58.44 C2982,57.4 2976.24,50.04 2976.24,40.84 L2976.24,39.88 C2976.24,30.52 2982.24,21 3002.08,21 L3050.88,21 L3050.88,80.52 L3032.24,80.52 L3032.24,59.4 Z M3032.24,46.2 L3032.24,34.52 L3003.2,34.52 C2997.76,34.52 2995.68,37.16 2995.68,40.28 L2995.68,40.36 C2995.68,43.64 2997.92,46.2 3003.2,46.2 L3032.24,46.2 Z M3144.32,80.52 L3138.72,69.64 L3102.64,69.64 L3097.28,80.52 L3078.32,80.52 L3108.4,21 L3132.56,21 L3164.4,80.52 L3144.32,80.52 Z M3109.28,56.2 L3131.84,56.2 L3120.32,33.88 L3109.28,56.2 Z M3217.28,80.52 L3185.84,52.44 L3185.84,80.52 L3167.2,80.52 L3167.2,21 L3185.84,21 L3185.84,45.8 L3216.32,21 L3240,21 L3205.76,48.2 L3241.6,80.52 L3217.28,80.52 Z M3309.92,90.52 L3309.92,80.52 L3244.16,80.52 L3244.16,21 L3262.8,21 L3262.8,66.12 L3299.52,66.12 L3299.52,21 L3318.16,21 L3318.16,66.12 L3327.76,66.12 L3327.76,90.52 L3309.92,90.52 Z M3391.04,80.52 L3391.04,41.24 L3351.12,80.52 L3332.48,80.52 L3332.48,21 L3351.12,21 L3351.12,60.44 L3391.04,21 L3409.68,21 L3409.68,80.52 L3391.04,80.52 Z M3472,59.4 L3459.76,59.4 L3437.68,80.52 L3413.84,80.52 L3437.76,58.44 C3421.76,57.4 3416,50.04 3416,40.84 L3416,39.88 C3416,30.52 3422,21 3441.84,21 L3490.64,21 L3490.64,80.52 L3472,80.52 L3472,59.4 Z M3472,46.2 L3472,34.52 L3442.96,34.52 C3437.52,34.52 3435.44,37.16 3435.44,40.28 L3435.44,40.36 C3435.44,43.64 3437.68,46.2 3442.96,46.2 L3472,46.2 Z M3584.08,80.52 L3578.48,69.64 L3542.4,69.64 L3537.04,80.52 L3518.08,80.52 L3548.16,21 L3572.32,21 L3604.16,80.52 L3584.08,80.52 Z M3549.04,56.2 L3571.6,56.2 L3560.08,33.88 L3549.04,56.2 Z M3657.04,80.52 L3625.6,52.44 L3625.6,80.52 L3606.96,80.52 L3606.96,21 L3625.6,21 L3625.6,45.8 L3656.08,21 L3679.76,21 L3645.52,48.2 L3681.36,80.52 L3657.04,80.52 Z M3749.68,90.52 L3749.68,80.52 L3683.92,80.52 L3683.92,21 L3702.56,21 L3702.56,66.12 L3739.28,66.12 L3739.28,21 L3757.92,21 L3757.92,66.12 L3767.52,66.12 L3767.52,90.52 L3749.68,90.52 Z M3830.8,80.52 L3830.8,41.24 L3790.88,80.52 L3772.24,80.52 L3772.24,21 L3790.88,21 L3790.88,60.44 L3830.8,21 L3849.44,21 L3849.44,80.52 L3830.8,80.52 Z M3911.76,59.4 L3899.52,59.4 L3877.44,80.52 L3853.6,80.52 L3877.52,58.44 C3861.52,57.4 3855.76,50.04 3855.76,40.84 L3855.76,39.88 C3855.76,30.52 3861.76,21 3881.6,21 L3930.4,21 L3930.4,80.52 L3911.76,80.52 L3911.76,59.4 Z M3911.76,46.2 L3911.76,34.52 L3882.72,34.52 C3877.28,34.52 3875.2,37.16 3875.2,40.28 L3875.2,40.36 C3875.2,43.64 3877.44,46.2 3882.72,46.2 L3911.76,46.2 Z"/>
  </g>
</svg>
