<svg fill="currentColor" role="img" aria-label="redo" viewBox="79.60 765.86 1840.49 468.42" xmlns="http://www.w3.org/2000/svg">
  <path d="M771.16,928.34h-152.45c-39.62,0-71.74,32.12-71.74,71.74s32.12,71.74,71.74,71.74h152.46c39.62,0,71.74-32.12,71.74-71.74s-32.12-71.74-71.74-71.74h0Z"></path>
  <path d="M771.16,775.88h-152.45c-39.62,0-71.74,32.12-71.74,71.74,0,44.57-36.14,80.71-80.71,80.71-39.62,0-71.74,32.12-71.74,71.74h0c0,9.72,1.94,18.98,5.44,27.43.11.27.22.53.33.8,2.71,6.32,6.29,12.17,10.61,17.41.73.89,1.48,1.75,2.25,2.6.39.42.79.83,1.19,1.25,1.21,1.27,2.46,2.51,3.76,3.69.8.72,1.61,1.43,2.44,2.12.29.24.58.46.87.69.58.47,1.16.93,1.75,1.38.36.27.72.52,1.08.78.54.39,1.09.79,1.64,1.17.39.27.79.52,1.18.78.54.35,1.08.71,1.63,1.04.42.26.84.5,1.26.75.54.32,1.09.64,1.64.94.44.24.88.47,1.33.71.55.29,1.1.58,1.66.85.46.22.92.44,1.38.66.56.26,1.13.52,1.7.77.47.2.94.4,1.42.6.57.23,1.15.46,1.73.68.48.18.97.36,1.46.54.58.21,1.17.4,1.76.6.49.16.99.32,1.49.47.6.18,1.2.35,1.81.51.5.14,1,.27,1.51.4.62.15,1.24.29,1.86.43.51.11,1.01.23,1.52.33.64.13,1.28.23,1.93.34.5.08,1,.18,1.51.25.67.1,1.35.18,2.03.26.49.06.97.13,1.46.17.74.07,1.49.12,2.24.17.43.03.86.07,1.3.09,1.07.05,2.14.08,3.23.08.12,0,.23,0,.34,0,0,0,0,0,.01,0,44.57,0,80.7,36.14,80.7,80.71,0,39.62,32.12,71.74,71.74,71.74h152.45s4.33-.14,4.25-.14c37.64-2.2,67.49-33.41,67.49-71.61s-32.12-71.74-71.74-71.74h-152.45c-44.57,0-80.71-36.14-80.71-80.71,0-44.57,36.13-80.71,80.7-80.71h152.46s4.33-.14,4.25-.14c37.64-2.2,67.49-33.41,67.49-71.61s-32.12-71.74-71.74-71.74Z"></path>
  <path d="M470.5,919.23c37.64-2.2,67.49-33.41,67.49-71.61s-32.12-71.74-71.74-71.74h-152.45c-39.62,0-71.74,32.12-71.74,71.74,0,44.57-36.14,80.71-80.71,80.71h0c-39.62,0-71.74,32.12-71.74,71.74v152.45s0,0,0,0c0,39.62,32.12,71.74,71.74,71.74s71.74-32.12,71.74-71.74h0s0-152.4,0-152.4c0-.02,0-.04,0-.06,0-44.57,36.14-80.71,80.71-80.71h152.45s4.33-.14,4.25-.14Z"></path>
  <circle cx="161.34" cy="847.63" r="71.74"></circle>
  <circle cx="923.61" cy="1152.53" r="71.74"></circle>
  <path d="M1076.07,775.88h0s-.02,0-.03,0c-39.62,0-71.74,32.12-71.74,71.74s32.12,71.74,71.74,71.74h.03c44.57,0,80.71,36.14,80.71,80.71s-36.14,80.71-80.71,80.71-80.71-36.14-80.71-80.71c0,0,0,0,0,0v-152.45c0-39.62-32.12-71.74-71.75-71.74s-71.74,32.12-71.74,71.74v152.46s0,0,0,0c0,16.1,5.3,30.95,14.25,42.93.13.17.26.33.39.49.72.94,1.46,1.87,2.23,2.78,13.16,15.62,32.85,25.55,54.88,25.55,44.57,0,80.71,36.14,80.71,80.71,0,39.62,32.12,71.74,71.74,71.74.05,0,.09,0,.14,0,123.76-.07,224.06-100.42,224.06-224.2s-100.38-224.2-224.2-224.2Z"></path>
  <circle cx="1076.04" cy="1000.08" r="71.74"></circle>
  <path d="M1685.88,775.88h0s-152.45,0-152.45,0h0s-.09,0-.14,0h-1.65v.02c-122.99.96-222.41,100.95-222.41,224.17,0,123.22,99.41,223.21,222.41,224.18v.02h154.25s0,0,0,0c123.82,0,224.2-100.38,224.2-224.2s-100.38-224.2-224.2-224.2ZM1820.4,1080.79h-421.67c-44.58,0-80.71-36.14-80.71-80.71s36.14-80.71,80.71-80.71h287.15s.02,0,.03,0h134.48c44.58,0,80.71,36.13,80.71,80.71s-36.14,80.71-80.71,80.71Z"></path>
  <path d="M1820.4,928.34h-134.52s-156.94,0-156.94,0h0s-130.39,0-130.39,0c-39.62,0-71.74,32.12-71.74,71.74s32.12,71.74,71.74,71.74h269.38s0,0,.01,0h152.45c39.62,0,71.74-32.12,71.74-71.74s-32.12-71.74-71.74-71.74Z"></path>
</svg>